{
.appVersion = "3343";
.formatVersion = 3;
axes = (
{
default = 400;
name = Weight;
tag = wght;
}
);
classes = (
{
automatic = 1;

glyphs = (
{
glyphname = A;
kernLeft = A;
kernRight = A;
lastChange = "2025-02-14 16:17:50 +0000";
layers = (
{
anchors = (
{
name = bottom;
pos = (311,0);
},
{
name = ogonek;
pos = (531,0);
},
{
name = top;
pos = (311,660);
}
);
layerId = m01;
shapes = (
{
closed = 1;
nodes = (
(453,242,l),
(163,242,l),
(139,182,l),
(477,182,l)
);
},
{
closed = 1;
nodes = (
(601,0,l),
(343,660,l),
(279,660,l),
(20,0,l),
(90,0,l),
(317,582,l),
(304,582,l),
(531,0,l)
);
}
);
width = 621;
},
{
anchors = (
{
name = bottom;
pos = (299,0);
},
{
name = ogonek;
pos = (545,0);
},
{
name = top;
pos = (299,660);
}
);
layerId = "4DE8B86A-429B-4593-9BC8-49866BB1A430";
shapes = (
{
closed = 1;
nodes = (
(462,243,l),
(132,243,l),
(124,221,l),
(471,221,l)
);
},
{
closed = 1;
nodes = (
(570,0,l),
(312,660,l),
(285,660,l),
(26,0,l),
(51,0,l),
(302,642,l),
(294,642,l),
(545,0,l)
);
}
);
width = 596;
},
{
anchors = (
{
name = bottom;
pos = (340,0);
},
{
name = ogonek;
pos = (517,0);
},
{
name = top;
pos = (340,660);
}
);
layerId = "0BE882A4-FC89-4865-8E81-154FB3EE808B";
shapes = (
{
closed = 1;
nodes = (
(451,245,l),
(220,245,l),
(170,121,l),
(500,121,l)
);
},
{
closed = 1;
nodes = (
(660,0,l),
(402,660,l),
(279,660,l),
(20,0,l),
(164,0,l),
(356,492,l),
(326,492,l),
(517,0,l)
);
}
);
width = 680;
},
{
anchors = (
{
name = bottom;
pos = (344,0);
},
{
name = ogonek;
pos = (515,0);
},
{
name = top;
pos = (344,660);
}
);
layerId = "9C2CFEA6-85BB-4338-BB26-B1BEA40B5780";
shapes = (
{
closed = 1;
nodes = (
(451,246,l),
(229,246,l),
(176,110,l),
(503,110,l)
);
},
{
closed = 1;
nodes = (
(671,0,l),
(413,660,l),
(279,660,l),
(20,0,l),
(176,0,l),
(362,477,l),
(329,477,l),
(515,0,l)
);
}
);
width = 691;
}
);
note = A;
unicode = 65;
},
{
glyphname = AE;
kernLeft = AE;
kernRight = AE;
lastChange = "2025-02-14 16:17:50 +0000";
layers = (
{
anchors = (
{
name = bottom;
pos = (525,0);
},
{
name = top;
pos = (752,660);
}
);
layerId = m01;
shapes = (
{
closed = 1;
nodes = (
(116,0,l),
(279,210,l),
(546,210,l),
(546,0,l),
(973,0,l),
(973,60,l),
(612,60,l),
(612,304,l),
(903,304,l),
(903,364,l),
(612,364,l),
(612,600,l),
(973,600,l),
(973,660,l),
(553,660,l),
(33,0,l)
);
},
{
closed = 1;
nodes = (
(546,550,l),
(546,271,l),
(328,271,l)
);
}
);
width = 1049;
},
{
anchors = (
{
name = bottom;
pos = (532,0);
},
{
name = top;
pos = (759,660);
}
);
layerId = "4DE8B86A-429B-4593-9BC8-49866BB1A430";
shapes = (
{
closed = 1;
nodes = (
(77,-1,l),
(251,224,l),
(563,224,l),
(563,0,l),
(970,0,l),
(970,18,l),
(583,18,l),
(583,326,l),
(895,326,l),
(895,343,l),
(583,343,l),
(583,642,l),
(970,642,l),
(970,660,l),
(568,660,l),
(50,-1,l)
);
},
{
closed = 1;
nodes = (
(563,619,l),
(563,243,l),
(267,243,l)
);
}
);
width = 1065;
},
{
anchors = (
{
name = bottom;
pos = (525,0);
},
{
name = top;
pos = (752,660);
}
);
layerId = "0BE882A4-FC89-4865-8E81-154FB3EE808B";
shapes = (
{
closed = 1;
nodes = (
(186,1,l),
(332,188,l),
(531,188,l),
(531,0,l),
(988,0,l),
(988,124,l),
(666,124,l),
(666,271,l),
(926,271,l),
(926,395,l),
(666,395,l),
(666,536,l),
(988,536,l),
(988,660,l),
(542,660,l),
(17,1,l)
);
},
{
closed = 1;
nodes = (
(531,446,l),
(531,313,l),
(430,313,l)
);
}
);
width = 1049;
},
{
anchors = (
{
name = bottom;
pos = (525,0);
},
{
name = top;
pos = (752,660);
}
);
layerId = "9C2CFEA6-85BB-4338-BB26-B1BEA40B5780";
shapes = (
{
closed = 1;
nodes = (
(197,1,l),
(340,185,l),
(528,185,l),
(528,0,l),
(991,0,l),
(991,134,l),
(675,134,l),
(675,265,l),
(929,265,l),
(929,401,l),
(675,401,l),
(675,526,l),
(991,526,l),
(991,660,l),
(540,660,l),
(14,1,l)
);
},
{
closed = 1;
nodes = (
(528,429,l),
(528,321,l),
(447,321,l)
);
}
);
width = 1049;
}
);
note = AE;
unicode = 198;
},
{
glyphname = B;
kernLeft = H;
kernRight = B;
lastChange = "2025-02-14 16:17:50 +0000";
layers = (
{
anchors = (
{
name = bottom;
pos = (283,0);
},
{
name = center;
pos = (144,165);
},
{
name = top;
pos = (283,660);
}
);
layerId = m01;
shapes = (
{
closed = 1;
nodes = (
(533,331,o),
(440,388,o),
(353,388,cs),
(146,388,l),
(146,372,l),
(296,372,ls),
(412,372,o),
(451,422,o),
(451,505,cs),
(451,589,o),
(385,660,o),
(296,660,cs),
(80,660,l),
(80,0,l),
(316,0,ls),
(444,0,o),
(533,84,o),
(533,206,cs)
);
},
{
closed = 1;
nodes = (
(146,60,l),
(146,351,l),
(319,351,ls),
(416,351,o),
(467,288,o),
(467,206,cs),
(467,118,o),
(412,60,o),
(297,60,cs)
);
},
{
closed = 1;
nodes = (
(146,411,l),
(146,600,l),
(296,600,ls),
(345,600,o),
(385,559,o),
(385,505,cs),
(385,448,o),
(362,411,o),
(298,411,cs)
);
}
);
width = 566;
},
{
anchors = (
{
name = bottom;
pos = (282,0);
},
{
name = center;
pos = (148,165);
},
{
name = top;
pos = (282,660);
}
);
layerId = "4DE8B86A-429B-4593-9BC8-49866BB1A430";
shapes = (
{
closed = 1;
nodes = (
(523,316,o),
(442,389,o),
(346,389,cs),
(106,390,l),
(106,376,l),
(276,376,ls),
(401,377,o),
(436,445,o),
(436,517,cs),
(436,593,o),
(376,660,o),
(293,660,cs),
(87,660,l),
(87,0,l),
(311,0,ls),
(438,0,o),
(523,76,o),
(523,198,cs)
);
},
{
closed = 1;
nodes = (
(110,21,l),
(110,374,l),
(335,374,ls),
(444,374,o),
(498,289,o),
(498,198,cs),
(498,94,o),
(438,22,o),
(298,22,cs)
);
},
{
closed = 1;
nodes = (
(108,393,l),
(108,641,l),
(293,641,ls),
(358,639,o),
(413,586,o),
(413,517,cs),
(413,453,o),
(386,393,o),
(303,393,cs)
);
}
);
width = 560;
},
{
anchors = (
{
name = bottom;
pos = (297,0);
},
{
name = center;
pos = (151,165);
},
{
name = top;
pos = (297,660);
}
);
layerId = "0BE882A4-FC89-4865-8E81-154FB3EE808B";
shapes = (
{
closed = 1;
nodes = (
(560,323,o),
(465,388,o),
(375,388,cs),
(215,388,l),
(215,363,l),
(337,363,ls),
(437,363,o),
(487,419,o),
(487,503,cs),
(487,598,o),
(409,660,o),
(311,660,cs),
(80,660,l),
(80,0,l),
(334,0,ls),
(456,0,o),
(560,83,o),
(560,219,cs)
);
},
{
closed = 1;
nodes = (
(215,124,l),
(215,313,l),
(307,313,ls),
(381,313,o),
(426,272,o),
(426,219,cs),
(426,156,o),
(382,124,o),
(307,124,cs)
);
},
{
closed = 1;
nodes = (
(215,438,l),
(215,536,l),
(302,536,ls),
(333,536,o),
(352,515,o),
(352,487,cs),
(352,458,o),
(332,438,o),
(303,438,cs)
);
}
);
width = 593;
},
{
anchors = (
{
name = bottom;
pos = (299,0);
},
{
name = center;
pos = (152,165);
},
{
name = top;
pos = (299,660);
}
);
layerId = "9C2CFEA6-85BB-4338-BB26-B1BEA40B5780";
shapes = (
{
closed = 1;
nodes = (
(565,334,o),
(457,388,o),
(378,388,cs),
(226,388,l),
(226,361,l),
(343,361,ls),
(442,361,o),
(493,417,o),
(493,501,cs),
(493,597,o),
(413,660,o),
(314,660,cs),
(80,660,l),
(80,0,l),
(337,0,ls),
(463,0,o),
(565,70,o),
(565,221,cs)
);
},
{
closed = 1;
nodes = (
(226,134,l),
(226,307,l),
(305,307,ls),
(374,305,o),
(419,270,o),
(419,221,cs),
(419,162,o),
(377,135,o),
(309,135,cs)
);
},
{
closed = 1;
nodes = (
(226,443,l),
(226,526,l),
(303,526,l),
(330,524,o),
(346,510,o),
(346,484,cs),
(346,460,o),
(328,443,o),
(304,443,cs)
);
}
);
width = 598;
}
);
note = B;
unicode = 66;
},
{
glyphname = C;
kernLeft = C;
kernRight = C;
lastChange = "2025-02-14 16:17:50 +0000";
layers = (
{
anchors = (
{
name = bottom;
pos = (363,0);
},
{
name = top;
pos = (323,660);
}
);
layerId = m01;
shapes = (
{
closed = 1;
nodes = (
(461,-2,o),
(552,49,o),
(611,130,c),
(558,166,l),
(507,97,o),
(440,58,o),
(361,58,cs),
(229,58,o),
(113,177,o),
(113,330,cs),
(113,477,o),
(223,601,o),
(361,601,cs),
(434,601,o),
(499,567,o),
(548,506,c),
(599,545,l),
(540,618,o),
(456,661,o),
(361,661,cs),
(176,661,o),
(47,502,o),
(47,330,cs),
(47,153,o),
(184,-2,o),
(361,-2,cs)
);
}
);
width = 645;
},
{
anchors = (
{
name = bottom;
pos = (319,0);
},
{
name = top;
pos = (319,660);
}
);
layerId = "4DE8B86A-429B-4593-9BC8-49866BB1A430";
shapes = (
{
closed = 1;
nodes = (
(456,-2,o),
(536,37,o),
(600,110,c),
(580,125,l),
(525,58,o),
(448,20,o),
(364,20,cs),
(198,20,o),
(76,166,o),
(76,330,cs),
(76,486,o),
(189,639,o),
(364,639,cs),
(441,639,o),
(515,606,o),
(568,549,c),
(586,563,l),
(523,628,o),
(451,661,o),
(364,661,cs),
(177,661,o),
(52,498,o),
(52,330,cs),
(52,153,o),
(188,-2,o),
(364,-2,cs)
);
}
);
width = 636;
},
{
anchors = (
{
name = bottom;
pos = (376,0);
},
{
name = top;
pos = (336,660);
}
);
layerId = "0BE882A4-FC89-4865-8E81-154FB3EE808B";
shapes = (
{
closed = 1;
nodes = (
(478,-2,o),
(588,67,o),
(639,162,c),
(530,234,l),
(487,159,o),
(434,123,o),
(365,123,cs),
(266,123,o),
(182,215,o),
(182,330,cs),
(182,443,o),
(264,537,o),
(365,537,cs),
(430,537,o),
(481,504,o),
(524,437,c),
(628,515,l),
(577,599,o),
(472,661,o),
(365,661,cs),
(177,661,o),
(47,501,o),
(47,330,cs),
(47,152,o),
(187,-2,o),
(365,-2,cs)
);
}
);
width = 672;
},
{
anchors = (
{
name = bottom;
pos = (386,0);
},
{
name = top;
pos = (339,660);
}
);
layerId = "9C2CFEA6-85BB-4338-BB26-B1BEA40B5780";
shapes = (
{
closed = 1;
nodes = (
(481,-2,o),
(594,71,o),
(643,168,c),
(525,245,l),
(484,170,o),
(433,133,o),
(366,133,cs),
(278,133,o),
(194,213,o),
(194,330,cs),
(194,435,o),
(268,526,o),
(366,526,cs),
(429,526,o),
(479,493,o),
(520,425,c),
(633,510,l),
(584,597,o),
(474,661,o),
(366,661,cs),
(175,661,o),
(47,499,o),
(47,330,cs),
(47,152,o),
(186,-2,o),
(366,-2,cs)
);
}
);
width = 677;
}
);
note = C;
unicode = 67;
},
{
glyphname = D;
kernLeft = H;
kernRight = D;
lastChange = "2025-02-14 16:17:50 +0000";
layers = (
{
anchors = (
{
name = bottom;
pos = (306,0);
},
{
name = center;
pos = (156,330);
},
{
name = top;
pos = (306,660);
}
);
layerId = m01;
shapes = (
{
closed = 1;
nodes = (
(233,0,ls),
(442,0,o),
(564,123,o),
(564,330,cs),
(564,543,o),
(446,660,o),
(228,660,cs),
(80,660,l),
(80,0,l)
);
},
{
closed = 1;
nodes = (
(146,60,l),
(146,600,l),
(228,600,ls),
(415,600,o),
(498,503,o),
(498,330,cs),
(498,161,o),
(410,60,o),
(233,60,cs)
);
}
);
width = 612;
},
{
anchors = (
{
name = bottom;
pos = (302,0);
},
{
name = center;
pos = (158,330);
},
{
name = top;
pos = (302,660);
}
);
layerId = "4DE8B86A-429B-4593-9BC8-49866BB1A430";
shapes = (
{
closed = 1;
nodes = (
(219,0,ls),
(446,0,o),
(548,141,o),
(548,330,cs),
(548,535,o),
(437,660,o),
(215,660,cs),
(87,660,l),
(87,0,l)
);
},
{
closed = 1;
nodes = (
(110,21,l),
(110,639,l),
(214,639,ls),
(427,638,o),
(524,525,o),
(524,330,cs),
(524,139,o),
(422,22,o),
(219,22,cs)
);
}
);
width = 601;
},
{
anchors = (
{
name = bottom;
pos = (324,0);
},
{
name = center;
pos = (165,330);
},
{
name = top;
pos = (324,660);
}
);
layerId = "0BE882A4-FC89-4865-8E81-154FB3EE808B";
shapes = (
{
closed = 1;
nodes = (
(266,0,ls),
(484,0,o),
(600,138,o),
(600,330,cs),
(600,525,o),
(492,660,o),
(261,660,cs),
(80,660,l),
(80,0,l)
);
},
{
closed = 1;
nodes = (
(215,124,l),
(215,536,l),
(261,536,ls),
(405,536,o),
(465,466,o),
(465,330,cs),
(465,198,o),
(401,124,o),
(266,124,cs)
);
}
);
width = 648;
},
{
anchors = (
{
name = bottom;
pos = (327,0);
},
{
name = center;
pos = (166,330);
},
{
name = top;
pos = (327,660);
}
);
layerId = "9C2CFEA6-85BB-4338-BB26-B1BEA40B5780";
shapes = (
{
closed = 1;
nodes = (
(272,0,ls),
(495,0,o),
(606,145,o),
(606,330,cs),
(606,525,o),
(497,660,o),
(267,660,cs),
(80,660,l),
(80,0,l)
);
},
{
closed = 1;
nodes = (
(226,134,l),
(226,526,l),
(267,526,ls),
(403,525,o),
(460,461,o),
(460,330,cs),
(460,203,o),
(399,135,o),
(272,135,cs)
);
}
);
width = 654;
}
);
note = D;
unicode = 68;
},
{
glyphname = Eth;
kernLeft = Dcroat;
kernRight = D;
lastChange = "2025-02-14 16:17:50 +0000";
layers = (
{
anchors = (
{
name = bottom;
pos = (345,0);
},
{
name = top;
pos = (345,660);
}
);
layerId = m01;
shapes = (
{
closed = 1;
nodes = (
(305,0,ls),
(523,0,o),
(636,135,o),
(636,330,cs),
(636,533,o),
(526,660,o),
(300,660,cs),
(171,660,l),
(171,337,l),
(24,337,l),
(24,278,l),
(171,278,l),
(171,0,l)
);
},
{
closed = 1;
nodes = (
(237,60,l),
(237,278,l),
(369,278,l),
(369,337,l),
(237,337,l),
(237,600,l),
(300,600,ls),
(487,600,o),
(570,503,o),
(570,330,cs),
(570,161,o),
(481,60,o),
(305,60,cs)
);
}
);
width = 690;
},
{
anchors = (
{
name = bottom;
pos = (350,0);
},
{
name = top;
pos = (350,660);
}
);
layerId = "4DE8B86A-429B-4593-9BC8-49866BB1A430";
shapes = (
{
closed = 1;
nodes = (
(304,0,ls),
(519,0,o),
(634,128,o),
(634,330,cs),
(634,532,o),
(527,660,o),
(300,660,cs),
(186,660,l),
(186,316,l),
(4,316,l),
(4,300,l),
(186,300,l),
(186,0,l)
);
},
{
closed = 1;
nodes = (
(207,18,l),
(207,300,l),
(349,300,l),
(349,316,l),
(207,316,l),
(207,642,l),
(299,642,ls),
(515,642,o),
(614,527,o),
(614,330,cs),
(614,138,o),
(509,18,o),
(304,18,cs)
);
}
);
width = 703;
},
{
anchors = (
{
name = bottom;
pos = (345,0);
},
{
name = top;
pos = (345,660);
}
);
layerId = "0BE882A4-FC89-4865-8E81-154FB3EE808B";
shapes = (
{
closed = 1;
nodes = (
(313,0,ls),
(536,0,o),
(646,142,o),
(646,330,cs),
(646,524,o),
(538,660,o),
(309,660,cs),
(155,660,l),
(155,368,l),
(63,368,l),
(63,245,l),
(155,245,l),
(155,0,l)
);
},
{
closed = 1;
nodes = (
(290,124,l),
(290,245,l),
(406,245,l),
(406,368,l),
(290,368,l),
(290,536,l),
(308,536,ls),
(452,536,o),
(511,466,o),
(511,330,cs),
(511,198,o),
(448,124,o),
(313,124,cs)
);
}
);
width = 690;
},
{
anchors = (
{
name = bottom;
pos = (345,0);
},
{
name = top;
pos = (345,660);
}
);
layerId = "9C2CFEA6-85BB-4338-BB26-B1BEA40B5780";
shapes = (
{
closed = 1;
nodes = (
(315,0,ls),
(541,0,o),
(648,147,o),
(648,330,cs),
(648,542,o),
(523,660,o),
(311,660,cs),
(152,660,l),
(152,374,l),
(69,374,l),
(69,239,l),
(152,239,l),
(152,0,l)
);
},
{
closed = 1;
nodes = (
(298,134,l),
(298,239,l),
(412,239,l),
(412,374,l),
(298,374,l),
(298,526,l),
(310,526,ls),
(446,525,o),
(502,461,o),
(502,330,cs),
(502,203,o),
(443,135,o),
(315,135,cs)
);
}
);
width = 690;
}
);
note = Eth;
unicode = 208;
},
{
glyphname = E;
kernLeft = H;
kernRight = AE;
lastChange = "2025-02-14 16:17:50 +0000";
layers = (
{
anchors = (
{
name = bottom;
pos = (311,0);
},
{
name = ogonek;
pos = (438,0);
},
{
name = top;
pos = (311,660);
},
{
name = topleft;
pos = (25,660);
}
);
layerId = m01;
shapes = (
{
closed = 1;
nodes = (
(508,0,l),
(508,60,l),
(146,60,l),
(146,304,l),
(437,304,l),
(437,364,l),
(146,364,l),
(146,600,l),
(507,600,l),
(507,660,l),
(80,660,l),
(80,0,l)
);
}
);
width = 542;
},
{
anchors = (
{
name = bottom;
pos = (304,0);
},
{
name = ogonek;
pos = (447,0);
},
{
name = top;
pos = (304,660);
},
{
name = topleft;
pos = (34,660);
}
);
layerId = "4DE8B86A-429B-4593-9BC8-49866BB1A430";
shapes = (
{
closed = 1;
nodes = (
(496,0,l),
(496,21,l),
(110,21,l),
(110,324,l),
(420,324,l),
(420,345,l),
(110,345,l),
(110,639,l),
(495,639,l),
(495,660,l),
(87,660,l),
(87,0,l)
);
}
);
width = 525;
},
{
anchors = (
{
name = bottom;
pos = (333,0);
},
{
name = ogonek;
pos = (438,0);
},
{
name = top;
pos = (333,660);
},
{
name = topleft;
pos = (25,660);
}
);
layerId = "0BE882A4-FC89-4865-8E81-154FB3EE808B";
shapes = (
{
closed = 1;
nodes = (
(538,0,l),
(538,124,l),
(215,124,l),
(215,271,l),
(475,271,l),
(475,395,l),
(215,395,l),
(215,536,l),
(537,536,l),
(537,660,l),
(80,660,l),
(80,0,l)
);
}
);
width = 585;
},
{
anchors = (
{
name = bottom;
pos = (337,0);
},
{
name = ogonek;
pos = (438,0);
},
{
name = top;
pos = (337,660);
},
{
name = topleft;
pos = (25,660);
}
);
layerId = "9C2CFEA6-85BB-4338-BB26-B1BEA40B5780";
shapes = (
{
closed = 1;
nodes = (
(543,0,l),
(543,134,l),
(226,134,l),
(226,265,l),
(481,265,l),
(481,401,l),
(226,401,l),
(226,526,l),
(542,526,l),
(542,660,l),
(80,660,l),
(80,0,l)
);
}
);
width = 593;
}
);
note = E;
unicode = 69;
},
{
glyphname = Schwa;
kernLeft = O;
kernRight = O;
lastChange = "2025-02-14 16:17:50 +0000";
layers = (
{
anchors = (
{
name = bottom;
pos = (317,0);
},
{
name = top;
pos = (317,660);
}
);
layerId = m01;
shapes = (
{
closed = 1;
nodes = (
(573,351,l),
(22,351,l),
(-15,158,o),
(99,-6,o),
(307,-6,cs),
(505,-6,o),
(619,135,o),
(619,321,cs),
(619,511,o),
(496,669,o),
(293,669,cs),
(127,669,o),
(50,576,o),
(18,517,c),
(65,480,l),
(106,564,o),
(182,617,o),
(293,617,cs),
(467,617,o),
(559,462,o),
(559,321,cs),
(559,155,o),
(452,49,o),
(307,49,cs),
(147,49,o),
(58,173,o),
(78,305,c),
(57,300,l),
(573,300,l)
);
}
);
width = 634;
},
{
anchors = (
{
name = bottom;
pos = (315,0);
},
{
name = top;
pos = (315,660);
}
);
layerId = "4DE8B86A-429B-4593-9BC8-49866BB1A430";
shapes = (
{
closed = 1;
nodes = (
(587,336,l),
(30,336,l),
(-1,196,o),
(63,-6,o),
(302,-6,cs),
(495,-6,o),
(608,133,o),
(608,319,cs),
(608,523,o),
(485,668,o),
(291,668,cs),
(168,668,o),
(67,609,o),
(28,516,c),
(45,508,l),
(85,592,o),
(164,647,o),
(291,647,cs),
(471,647,o),
(584,508,o),
(584,319,cs),
(584,128,o),
(468,11,o),
(302,11,cs),
(139,11,o),
(26,126,o),
(46,321,c),
(40,315,l),
(587,315,l)
);
}
);
width = 629;
},
{
anchors = (
{
name = bottom;
pos = (333,0);
},
{
name = top;
pos = (333,660);
}
);
layerId = "0BE882A4-FC89-4865-8E81-154FB3EE808B";
shapes = (
{
closed = 1;
nodes = (
(565,362,l),
(23,362,l),
(-2,102,o),
(153,-6,o),
(327,-6,cs),
(532,-6,o),
(650,133,o),
(650,325,cs),
(650,532,o),
(517,670,o),
(308,670,cs),
(168,670,o),
(70,610,o),
(15,518,c),
(119,431,l),
(142,508,o),
(196,548,o),
(308,548,cs),
(445,548,o),
(524,461,o),
(525,325,cs),
(525,183,o),
(453,112,o),
(330,112,cs),
(200,112,o),
(135,176,o),
(135,308,c),
(74,276,l),
(565,276,l)
);
}
);
width = 665;
},
{
anchors = (
{
name = bottom;
pos = (335,0);
},
{
name = top;
pos = (335,660);
}
);
layerId = "9C2CFEA6-85BB-4338-BB26-B1BEA40B5780";
shapes = (
{
closed = 1;
nodes = (
(564,355,l),
(23,355,l),
(-18,82,o),
(155,-6,o),
(331,-6,cs),
(534,-6,o),
(655,129,o),
(655,325,cs),
(655,554,o),
(500,670,o),
(310,670,cs),
(170,670,o),
(73,614,o),
(15,518,c),
(113,424,l),
(133,504,o),
(189,552,o),
(310,552,cs),
(445,552,o),
(531,483,o),
(531,324,cs),
(531,171,o),
(467,99,o),
(337,99,cs),
(195,99,o),
(117,180,o),
(139,290,c),
(120,257,l),
(564,257,l)
);
}
);
width = 670;
}
);
note = uni018F;
unicode = 399;
},
{
glyphname = F;
kernLeft = H;
kernRight = F;
lastChange = "2025-02-14 16:17:50 +0000";
layers = (
{
anchors = (
{
name = bottom;
pos = (254,0);
},
{
name = top;
pos = (254,660);
}
);
layerId = m01;
shapes = (
{
closed = 1;
nodes = (
(146,0,l),
(146,304,l),
(418,304,l),
(418,364,l),
(146,364,l),
(146,601,l),
(489,601,l),
(489,661,l),
(80,661,l),
(80,0,l)
);
}
);
width = 508;
},
{
anchors = (
{
name = bottom;
pos = (247,0);
},
{
name = top;
pos = (247,660);
}
);
layerId = "4DE8B86A-429B-4593-9BC8-49866BB1A430";
shapes = (
{
closed = 1;
nodes = (
(110,0,l),
(110,324,l),
(400,324,l),
(400,344,l),
(110,344,l),
(110,639,l),
(476,639,l),
(476,660,l),
(87,660,l),
(87,0,l)
);
}
);
width = 490;
},
{
anchors = (
{
name = bottom;
pos = (276,0);
},
{
name = top;
pos = (276,660);
}
);
layerId = "0BE882A4-FC89-4865-8E81-154FB3EE808B";
shapes = (
{
closed = 1;
nodes = (
(215,0,l),
(215,272,l),
(458,272,l),
(458,396,l),
(215,396,l),
(215,537,l),
(521,537,l),
(521,661,l),
(80,661,l),
(80,0,l)
);
}
);
width = 552;
},
{
anchors = (
{
name = bottom;
pos = (280,0);
},
{
name = top;
pos = (280,660);
}
);
layerId = "9C2CFEA6-85BB-4338-BB26-B1BEA40B5780";
shapes = (
{
closed = 1;
nodes = (
(226,0,l),
(226,266,l),
(464,266,l),
(464,402,l),
(226,402,l),
(226,527,l),
(527,527,l),
(527,661,l),
(80,661,l),
(80,0,l)
);
}
);
width = 560;
}
);
note = F;
unicode = 70;
},
{
glyphname = G;
kernLeft = C;
kernRight = G;
lastChange = "2025-02-14 16:17:50 +0000";
layers = (
{
anchors = (
{
name = bottom;
pos = (380,0);
},
{
name = top;
pos = (380,660);
}
);
layerId = m01;
shapes = (
{
closed = 1;
nodes = (
(481,-6,o),
(583,44,o),
(646,128,c),
(646,331,l),
(401,331,l),
(401,271,l),
(579,271,l),
(579,147,l),
(528,88,o),
(453,55,o),
(378,55,cs),
(213,55,o),
(113,197,o),
(113,330,cs),
(113,507,o),
(254,605,o),
(378,605,cs),
(451,605,o),
(516,572,o),
(565,511,c),
(616,550,l),
(557,622,o),
(473,666,o),
(378,666,cs),
(167,666,o),
(47,487,o),
(47,330,cs),
(47,119,o),
(220,-6,o),
(378,-6,cs)
);
}
);
width = 680;
},
{
anchors = (
{
name = bottom;
pos = (381,0);
},
{
name = top;
pos = (381,660);
}
);
layerId = "4DE8B86A-429B-4593-9BC8-49866BB1A430";
shapes = (
{
closed = 1;
nodes = (
(481,-6,o),
(580,40,o),
(643,120,c),
(643,310,l),
(389,310,l),
(389,285,l),
(618,285,l),
(618,127,l),
(559,58,o),
(469,16,o),
(381,16,cs),
(188,16,o),
(76,185,o),
(76,330,cs),
(76,527,o),
(233,644,o),
(381,644,cs),
(460,644,o),
(533,610,o),
(585,553,c),
(604,568,l),
(540,633,o),
(468,666,o),
(381,666,cs),
(169,666,o),
(52,491,o),
(52,330,cs),
(52,116,o),
(228,-6,o),
(381,-6,cs)
);
}
);
width = 680;
},
{
anchors = (
{
name = bottom;
pos = (387,0);
},
{
name = top;
pos = (387,660);
}
);
layerId = "0BE882A4-FC89-4865-8E81-154FB3EE808B";
shapes = (
{
closed = 1;
nodes = (
(489,-6,o),
(596,49,o),
(659,141,c),
(659,366,l),
(363,366,l),
(363,242,l),
(522,242,l),
(522,180,l),
(485,141,o),
(433,119,o),
(381,119,cs),
(272,119,o),
(182,212,o),
(182,330,cs),
(182,448,o),
(271,541,o),
(381,541,cs),
(446,541,o),
(497,509,o),
(540,441,c),
(644,520,l),
(593,604,o),
(488,666,o),
(381,666,cs),
(169,666,o),
(47,489,o),
(47,330,cs),
(47,119,o),
(220,-6,o),
(381,-6,cs)
);
}
);
width = 693;
},
{
anchors = (
{
name = bottom;
pos = (388,0);
},
{
name = top;
pos = (388,660);
}
);
layerId = "9C2CFEA6-85BB-4338-BB26-B1BEA40B5780";
shapes = (
{
closed = 1;
nodes = (
(490,-6,o),
(598,50,o),
(661,143,c),
(661,372,l),
(357,372,l),
(357,237,l),
(513,237,l),
(513,186,l),
(477,149,o),
(430,129,o),
(382,129,cs),
(278,129,o),
(194,217,o),
(194,330,cs),
(194,443,o),
(277,531,o),
(382,531,cs),
(445,531,o),
(495,498,o),
(536,430,c),
(649,515,l),
(600,602,o),
(491,666,o),
(382,666,cs),
(170,666,o),
(47,489,o),
(47,330,cs),
(47,119,o),
(221,-6,o),
(382,-6,cs)
);
}
);
width = 695;
}
);
note = G;
unicode = 71;
},
{
glyphname = H;
kernLeft = H;
kernRight = H;
lastChange = "2025-02-14 16:17:50 +0000";
layers = (
{
anchors = (
{
name = bottom;
pos = (340,0);
},
{
name = center;
pos = (340,495);
},
{
name = top;
pos = (340,660);
},
{
name = topleft;
pos = (25,660);
}
);
layerId = m01;
shapes = (
{
closed = 1;
nodes = (
(146,0,l),
(146,304,l),
(532,304,l),
(532,0,l),
(598,0,l),
(598,660,l),
(532,660,l),
(532,364,l),
(146,364,l),
(146,660,l),
(80,660,l),
(80,0,l)
);
}
);
width = 679;
},
{
anchors = (
{
name = bottom;
pos = (340,0);
},
{
name = center;
pos = (340,495);
},
{
name = top;
pos = (340,660);
},
{
name = topleft;
pos = (34,660);
}
);
layerId = "4DE8B86A-429B-4593-9BC8-49866BB1A430";
shapes = (
{
closed = 1;
nodes = (
(110,0,l),
(110,324,l),
(568,324,l),
(568,0,l),
(591,0,l),
(591,660,l),
(568,660,l),
(568,345,l),
(110,345,l),
(110,660,l),
(87,660,l),
(87,0,l)
);
}
);
width = 679;
},
{
anchors = (
{
name = bottom;
pos = (350,0);
},
{
name = center;
pos = (350,495);
},
{
name = top;
pos = (350,660);
},
{
name = topleft;
pos = (25,660);
}
);
layerId = "0BE882A4-FC89-4865-8E81-154FB3EE808B";
shapes = (
{
closed = 1;
nodes = (
(215,0,l),
(215,271,l),
(484,271,l),
(484,0,l),
(619,0,l),
(619,660,l),
(484,660,l),
(484,395,l),
(215,395,l),
(215,660,l),
(80,660,l),
(80,0,l)
);
}
);
width = 700;
},
{
anchors = (
{
name = bottom;
pos = (352,0);
},
{
name = center;
pos = (352,495);
},
{
name = top;
pos = (352,660);
},
{
name = topleft;
pos = (25,660);
}
);
layerId = "9C2CFEA6-85BB-4338-BB26-B1BEA40B5780";
shapes = (
{
closed = 1;
nodes = (
(226,0,l),
(226,265,l),
(476,265,l),
(476,0,l),
(623,0,l),
(623,660,l),
(476,660,l),
(476,401,l),
(226,401,l),
(226,660,l),
(80,660,l),
(80,0,l)
);
}
);
width = 703;
}
);
note = H;
unicode = 72;
},
{
glyphname = Hbar;
kernLeft = H;
kernRight = H;
lastChange = "2025-02-14 16:17:50 +0000";
layers = (
{
layerId = m01;
shapes = (
{
closed = 1;
nodes = (
(156,0,l),
(156,304,l),
(542,304,l),
(542,0,l),
(608,0,l),
(608,660,l),
(542,660,l),
(542,364,l),
(156,364,l),
(156,660,l),
(90,660,l),
(90,0,l)
);
},
{
closed = 1;
nodes = (
(20,475,l),
(678,475,l),
(678,541,l),
(20,541,l)
);
}
);
width = 698;
},
{
layerId = "4DE8B86A-429B-4593-9BC8-49866BB1A430";
shapes = (
{
closed = 1;
nodes = (
(112,0,l),
(112,324,l),
(570,324,l),
(570,0,l),
(593,0,l),
(593,660,l),
(570,660,l),
(570,345,l),
(112,345,l),
(112,660,l),
(89,660,l),
(89,0,l)
);
},
{
closed = 1;
nodes = (
(26,495,l),
(656,495,l),
(656,518,l),
(26,518,l)
);
}
);
width = 682;
},
{
layerId = "0BE882A4-FC89-4865-8E81-154FB3EE808B";
shapes = (
{
closed = 1;
nodes = (
(238,0,l),
(238,271,l),
(507,271,l),
(507,0,l),
(642,0,l),
(642,660,l),
(507,660,l),
(507,395,l),
(238,395,l),
(238,660,l),
(103,660,l),
(103,0,l)
);
},
{
closed = 1;
nodes = (
(20,440,l),
(725,440,l),
(725,575,l),
(20,575,l)
);
}
);
width = 745;
},
{
layerId = "9C2CFEA6-85BB-4338-BB26-B1BEA40B5780";
shapes = (
{
closed = 1;
nodes = (
(262,0,l),
(262,265,l),
(512,265,l),
(512,0,l),
(659,0,l),
(659,660,l),
(512,660,l),
(512,401,l),
(262,401,l),
(262,660,l),
(116,660,l),
(116,0,l)
);
},
{
closed = 1;
nodes = (
(20,434,l),
(755,434,l),
(755,581,l),
(20,581,l)
);
}
);
width = 775;
}
);
note = Hbar;
unicode = 294;
},
{
glyphname = I;
kernLeft = H;
kernRight = H;
lastChange = "2025-02-14 16:17:50 +0000";
layers = (
{
anchors = (
{
name = bottom;
pos = (114,0);
},
{
name = ogonek;
pos = (80,0);
},
{
name = top;
pos = (114,660);
},
{
name = topleft;
pos = (25,660);
}
);
layerId = m01;
shapes = (
{
closed = 1;
nodes = (
(146,0,l),
(146,660,l),
(80,660,l),
(80,0,l)
);
}
);
width = 227;
},
{
anchors = (
{
name = bottom;
pos = (99,0);
},
{
name = ogonek;
pos = (87,0);
},
{
name = top;
pos = (99,660);
},
{
name = topleft;
pos = (34,660);
}
);
layerId = "4DE8B86A-429B-4593-9BC8-49866BB1A430";
shapes = (
{
closed = 1;
nodes = (
(110,0,l),
(110,660,l),
(87,660,l),
(87,0,l)
);
}
);
width = 198;
},
{
anchors = (
{
name = bottom;
pos = (148,0);
},
{
name = ogonek;
pos = (80,0);
},
{
name = top;
pos = (148,660);
},
{
name = topleft;
pos = (25,660);
}
);
layerId = "0BE882A4-FC89-4865-8E81-154FB3EE808B";
shapes = (
{
closed = 1;
nodes = (
(215,0,l),
(215,660,l),
(80,660,l),
(80,0,l)
);
}
);
width = 296;
},
{
anchors = (
{
name = bottom;
pos = (154,0);
},
{
name = ogonek;
pos = (80,0);
},
{
name = top;
pos = (154,660);
},
{
name = topleft;
pos = (25,660);
}
);
layerId = "9C2CFEA6-85BB-4338-BB26-B1BEA40B5780";
shapes = (
{
closed = 1;
nodes = (
(226,0,l),
(226,660,l),
(80,660,l),
(80,0,l)
);
}
);
width = 307;
}
);
note = I;
unicode = 73;
},
{
glyphname = J;
kernLeft = J;
kernRight = J;
lastChange = "2025-02-14 16:17:50 +0000";
layers = (
{
anchors = (
{
name = bottom;
pos = (224,0);
},
{
name = top;
pos = (343,660);
}
);
layerId = m01;
shapes = (
{
closed = 1;
nodes = (
(308,-2,o),
(377,62,o),
(377,169,cs),
(377,660,l),
(310,660,l),
(310,169,ls),
(310,93,o),
(267,58,o),
(207,58,cs),
(150,58,o),
(102,108,o),
(102,169,c),
(36,169,l),
(36,74,o),
(112,-2,o),
(207,-2,cs)
);
}
);
width = 447;
},
{
anchors = (
{
name = bottom;
pos = (210,0);
},
{
name = top;
pos = (336,660);
}
);
layerId = "4DE8B86A-429B-4593-9BC8-49866BB1A430";
shapes = (
{
closed = 1;
nodes = (
(289,-2,o),
(350,47,o),
(350,159,cs),
(351,660,l),
(326,660,l),
(326,152,ls),
(326,61,o),
(272,20,o),
(193,20,cs),
(123,20,o),
(67,71,o),
(53,137,c),
(31,137,l),
(45,57,o),
(114,-2,o),
(193,-2,cs)
);
}
);
width = 421;
},
{
anchors = (
{
name = bottom;
pos = (252,0);
},
{
name = top;
pos = (356,660);
}
);
layerId = "0BE882A4-FC89-4865-8E81-154FB3EE808B";
shapes = (
{
closed = 1;
nodes = (
(340,-2,o),
(425,82,o),
(425,186,cs),
(425,660,l),
(289,660,l),
(289,196,ls),
(289,144,o),
(267,123,o),
(235,123,cs),
(195,123,o),
(165,169,o),
(187,222,c),
(48,222,l),
(22,86,o),
(136,-2,o),
(235,-2,cs)
);
}
);
width = 504;
},
{
anchors = (
{
name = bottom;
pos = (257,0);
},
{
name = top;
pos = (360,660);
}
);
layerId = "9C2CFEA6-85BB-4338-BB26-B1BEA40B5780";
shapes = (
{
closed = 1;
nodes = (
(343,-2,o),
(433,84,o),
(433,189,cs),
(434,660,l),
(285,660,l),
(285,201,ls),
(285,153,o),
(267,133,o),
(240,133,cs),
(203,133,o),
(175,181,o),
(201,230,c),
(50,230,l),
(23,105,o),
(122,-2,o),
(240,-2,cs)
);
}
);
width = 513;
}
);
note = J;
unicode = 74;
},
{
glyphname = K;
kernLeft = H;
kernRight = K;
lastChange = "2025-02-14 16:17:50 +0000";
layers = (
{
anchors = (
{
name = bottom;
pos = (286,0);
},
{
name = top;
pos = (286,660);
}
);
layerId = m01;
shapes = (
{
closed = 1;
nodes = (
(146,0,l),
(146,296,l),
(135,267,l),
(218,344,l),
(203,348,l),
(468,0,l),
(552,0,l),
(254,388,l),
(251,374,l),
(558,660,l),
(463,660,l),
(132,352,l),
(146,334,l),
(146,660,l),
(80,660,l),
(80,0,l)
);
}
);
width = 572;
},
{
anchors = (
{
name = bottom;
pos = (259,0);
},
{
name = top;
pos = (259,660);
}
);
layerId = "4DE8B86A-429B-4593-9BC8-49866BB1A430";
shapes = (
{
closed = 1;
nodes = (
(110,0,l),
(110,313,l),
(97,288,l),
(191,375,l),
(172,377,l),
(458,0,l),
(491,0,l),
(195,388,l),
(180,364,l),
(499,660,l),
(467,660,l),
(108,328,l),
(110,321,l),
(110,660,l),
(87,660,l),
(87,0,l)
);
}
);
width = 513;
},
{
anchors = (
{
name = bottom;
pos = (339,0);
},
{
name = top;
pos = (339,660);
}
);
layerId = "0BE882A4-FC89-4865-8E81-154FB3EE808B";
shapes = (
{
closed = 1;
nodes = (
(215,0,l),
(215,266,l),
(198,226,l),
(277,299,l),
(255,307,l),
(491,0,l),
(658,0,l),
(355,392,l),
(356,372,l),
(663,660,l),
(472,660,l),
(184,389,l),
(215,389,l),
(215,660,l),
(80,660,l),
(80,0,l)
);
}
);
width = 677;
},
{
anchors = (
{
name = bottom;
pos = (347,0);
},
{
name = top;
pos = (347,660);
}
);
layerId = "9C2CFEA6-85BB-4338-BB26-B1BEA40B5780";
shapes = (
{
closed = 1;
nodes = (
(226,0,l),
(226,261,l),
(209,219,l),
(288,291,l),
(263,301,l),
(494,0,l),
(676,0,l),
(372,393,l),
(374,372,l),
(681,660,l),
(474,660,l),
(192,395,l),
(226,398,l),
(226,660,l),
(80,660,l),
(80,0,l)
);
}
);
width = 694;
}
);
note = K;
unicode = 75;
},
{
glyphname = L;
kernRight = L;
lastChange = "2025-02-14 16:17:50 +0000";
layers = (
{
anchors = (
{
name = bottom;
pos = (260,0);
},
{
name = center;
pos = (238,330);
},
{
name = top;
pos = (238,660);
},
{
name = topright;
pos = (451,660);
}
);
layerId = m01;
shapes = (
{
closed = 1;
nodes = (
(452,0,l),
(452,60,l),
(146,60,l),
(146,660,l),
(80,660,l),
(80,0,l)
);
}
);
width = 476;
},
{
anchors = (
{
name = bottom;
pos = (269,0);
},
{
name = center;
pos = (231,330);
},
{
name = top;
pos = (231,660);
},
{
name = topright;
pos = (428,660);
}
);
layerId = "4DE8B86A-429B-4593-9BC8-49866BB1A430";
shapes = (
{
closed = 1;
nodes = (
(431,0,l),
(431,21,l),
(110,21,l),
(110,660,l),
(87,660,l),
(87,0,l)
);
}
);
width = 459;
},
{
anchors = (
{
name = bottom;
pos = (270,0);
},
{
name = center;
pos = (260,330);
},
{
name = top;
pos = (260,660);
},
{
name = topright;
pos = (494,660);
}
);
layerId = "0BE882A4-FC89-4865-8E81-154FB3EE808B";
shapes = (
{
closed = 1;
nodes = (
(495,0,l),
(495,124,l),
(215,124,l),
(215,660,l),
(80,660,l),
(80,0,l)
);
}
);
width = 519;
},
{
anchors = (
{
name = bottom;
pos = (270,0);
},
{
name = center;
pos = (264,330);
},
{
name = top;
pos = (264,660);
},
{
name = topright;
pos = (502,660);
}
);
layerId = "9C2CFEA6-85BB-4338-BB26-B1BEA40B5780";
shapes = (
{
closed = 1;
nodes = (
(503,0,l),
(503,134,l),
(226,134,l),
(226,660,l),
(80,660,l),
(80,0,l)
);
}
);
width = 527;
}
);
note = L;
unicode = 76;
},
{
glyphname = Lslash;
kernLeft = Lslash;
kernRight = L;
lastChange = "2025-02-14 16:17:50 +0000";
layers = (
{
layerId = m01;
shapes = (
{
closed = 1;
nodes = (
(329,417,l),
(329,484,l),
(23,348,l),
(23,282,l)
);
},
{
closed = 1;
nodes = (
(452,0,l),
(452,60,l),
(146,60,l),
(146,660,l),
(80,660,l),
(80,0,l)
);
}
);
width = 471;
},
{
layerId = "4DE8B86A-429B-4593-9BC8-49866BB1A430";
shapes = (
{
closed = 1;
nodes = (
(311,438,l),
(311,458,l),
(34,334,l),
(34,316,l)
);
},
{
closed = 1;
nodes = (
(428,0,l),
(428,21,l),
(107,21,l),
(107,660,l),
(84,660,l),
(84,0,l)
);
}
);
width = 454;
},
{
layerId = "0BE882A4-FC89-4865-8E81-154FB3EE808B";
shapes = (
{
closed = 1;
nodes = (
(367,386,l),
(367,524,l),
(16,369,l),
(16,231,l)
);
},
{
closed = 1;
nodes = (
(495,0,l),
(495,124,l),
(215,124,l),
(215,660,l),
(80,660,l),
(80,0,l)
);
}
);
width = 514;
},
{
layerId = "9C2CFEA6-85BB-4338-BB26-B1BEA40B5780";
shapes = (
{
closed = 1;
nodes = (
(373,381,l),
(373,530,l),
(15,373,l),
(15,223,l)
);
},
{
closed = 1;
nodes = (
(503,0,l),
(503,134,l),
(226,134,l),
(226,660,l),
(80,660,l),
(80,0,l)
);
}
);
width = 522;
}
);
note = Lslash;
unicode = 321;
},
{
glyphname = M;
kernLeft = M;
kernRight = M;
lastChange = "2025-02-14 16:17:50 +0000";
layers = (
{
anchors = (
{
name = bottom;
pos = (406,0);
},
{
name = top;
pos = (406,660);
}
);
layerId = m01;
shapes = (
{
closed = 1;
nodes = (
(664,533,l),
(664,0,l),
(730,0,l),
(730,660,l),
(657,660,l),
(405,188,l),
(155,660,l),
(80,660,l),
(80,0,l),
(146,0,l),
(146,535,l),
(405,45,l)
);
}
);
width = 811;
},
{
anchors = (
{
name = bottom;
pos = (410,0);
},
{
name = top;
pos = (410,660);
}
);
layerId = "4DE8B86A-429B-4593-9BC8-49866BB1A430";
shapes = (
{
closed = 1;
nodes = (
(709,608,l),
(709,0,l),
(733,0,l),
(733,660,l),
(710,660,l),
(410,117,l),
(113,660,l),
(87,660,l),
(87,0,l),
(110,0,l),
(110,611,l),
(410,65,l)
);
}
);
width = 820;
},
{
anchors = (
{
name = bottom;
pos = (409,0);
},
{
name = top;
pos = (409,660);
}
);
layerId = "0BE882A4-FC89-4865-8E81-154FB3EE808B";
shapes = (
{
closed = 1;
nodes = (
(601,406,l),
(601,0,l),
(736,0,l),
(736,660,l),
(583,660,l),
(408,303,l),
(233,660,l),
(80,660,l),
(80,0,l),
(215,0,l),
(215,407,l),
(408,11,l)
);
}
);
width = 817;
},
{
anchors = (
{
name = bottom;
pos = (409,0);
},
{
name = top;
pos = (409,660);
}
);
layerId = "9C2CFEA6-85BB-4338-BB26-B1BEA40B5780";
shapes = (
{
closed = 1;
nodes = (
(590,385,l),
(590,0,l),
(737,0,l),
(737,660,l),
(571,660,l),
(409,322,l),
(246,660,l),
(80,660,l),
(80,0,l),
(226,0,l),
(226,385,l),
(409,5,l)
);
}
);
width = 818;
}
);
note = M;
unicode = 77;
},
{
glyphname = N;
kernLeft = H;
kernRight = H;
lastChange = "2025-02-14 16:17:50 +0000";
layers = (
{
anchors = (
{
name = bottom;
pos = (330,0);
},
{
name = top;
pos = (330,660);
}
);
layerId = m01;
shapes = (
{
closed = 1;
nodes = (
(146,0,l),
(146,553,l),
(140,552,l),
(518,0,l),
(579,0,l),
(579,660,l),
(512,660,l),
(512,97,l),
(523,107,l),
(143,660,l),
(80,660,l),
(80,0,l)
);
}
);
width = 660;
},
{
anchors = (
{
name = bottom;
pos = (323,0);
},
{
name = top;
pos = (323,660);
}
);
layerId = "4DE8B86A-429B-4593-9BC8-49866BB1A430";
shapes = (
{
closed = 1;
nodes = (
(110,0,l),
(110,637,l),
(103,632,l),
(535,0,l),
(558,0,l),
(558,660,l),
(533,660,l),
(533,19,l),
(544,33,l),
(114,660,l),
(87,660,l),
(87,0,l)
);
}
);
width = 646;
},
{
anchors = (
{
name = bottom;
pos = (351,0);
},
{
name = top;
pos = (351,660);
}
);
layerId = "0BE882A4-FC89-4865-8E81-154FB3EE808B";
shapes = (
{
closed = 1;
nodes = (
(215,0,l),
(215,430,l),
(203,430,l),
(499,0,l),
(621,0,l),
(621,660,l),
(487,660,l),
(487,207,l),
(505,220,l),
(201,660,l),
(80,660,l),
(80,0,l)
);
}
);
width = 702;
},
{
anchors = (
{
name = bottom;
pos = (355,0);
},
{
name = top;
pos = (355,660);
}
);
layerId = "9C2CFEA6-85BB-4338-BB26-B1BEA40B5780";
shapes = (
{
closed = 1;
nodes = (
(226,0,l),
(226,410,l),
(214,411,l),
(496,0,l),
(629,0,l),
(629,660,l),
(483,660,l),
(483,226,l),
(502,239,l),
(211,660,l),
(80,660,l),
(80,0,l)
);
}
);
width = 710;
}
);
note = N;
unicode = 78;
},
{
glyphname = Nhookleft;
kernLeft = Nhookleft;
kernRight = Nhookleft;
lastChange = "2025-02-14 16:17:50 +0000";
layers = (
{
anchors = (
{
name = bottom;
pos = (325,0);
},
{
name = top;
pos = (325,660);
}
);
layerId = m01;
shapes = (
{
closed = 1;
nodes = (
(146,0,l),
(80,0,l),
(80,-91,ls),
(80,-120,o),
(69,-132,o),
(52,-132,cs),
(28,-132,o),
(5,-122,o),
(-20,-102,c),
(-20,-159,l),
(-15,-163,ls),
(2,-179,o),
(29,-191,o),
(62,-191,cs),
(119,-191,o),
(146,-145,o),
(146,-80,cs)
);
},
{
closed = 1;
nodes = (
(146,0,l),
(146,553,l),
(140,552,l),
(518,0,l),
(579,0,l),
(579,660,l),
(512,660,l),
(512,97,l),
(523,107,l),
(143,660,l),
(80,660,l),
(80,0,l)
);
}
);
width = 650;
},
{
anchors = (
{
name = bottom;
pos = (315,0);
},
{
name = top;
pos = (315,660);
}
);
layerId = "4DE8B86A-429B-4593-9BC8-49866BB1A430";
shapes = (
{
closed = 1;
nodes = (
(104,0,l),
(84,0,l),
(84,-130,ls),
(84,-159,o),
(71,-173,o),
(54,-173,cs),
(29,-173,o),
(9,-164,o),
(-16,-141,c),
(-16,-159,l),
(-13,-163,ls),
(-2,-176,o),
(26,-191,o),
(54,-191,cs),
(98,-191,o),
(104,-154,o),
(104,-111,cs)
);
},
{
closed = 1;
nodes = (
(105,0,l),
(105,637,l),
(98,632,l),
(530,0,l),
(553,0,l),
(553,660,l),
(528,660,l),
(528,19,l),
(539,33,l),
(109,660,l),
(82,660,l),
(82,0,l)
);
}
);
width = 634;
},
{
anchors = (
{
name = bottom;
pos = (346,0);
},
{
name = top;
pos = (346,660);
}
);
layerId = "0BE882A4-FC89-4865-8E81-154FB3EE808B";
shapes = (
{
closed = 1;
nodes = (
(215,0,l),
(80,0,l),
(80,-33,ls),
(80,-62,o),
(72,-72,o),
(55,-72,cs),
(32,-72,o),
(4,-62,o),
(-20,-42,c),
(-20,-159,l),
(-13,-164,ls),
(15,-181,o),
(38,-191,o),
(79,-191,cs),
(162,-191,o),
(215,-144,o),
(215,-33,cs)
);
},
{
closed = 1;
nodes = (
(215,0,l),
(215,430,l),
(203,430,l),
(499,0,l),
(621,0,l),
(621,660,l),
(487,660,l),
(487,207,l),
(505,220,l),
(201,660,l),
(80,660,l),
(80,0,l)
);
}
);
width = 692;
},
{
anchors = (
{
name = bottom;
pos = (350,0);
},
{
name = top;
pos = (350,660);
}
);
layerId = "9C2CFEA6-85BB-4338-BB26-B1BEA40B5780";
shapes = (
{
closed = 1;
nodes = (
(226,0,l),
(80,0,l),
(80,-24,ls),
(80,-53,o),
(72,-61,o),
(56,-61,cs),
(33,-61,o),
(4,-51,o),
(-20,-32,c),
(-20,-159,l),
(-12,-164,ls),
(17,-181,o),
(38,-191,o),
(81,-191,cs),
(170,-191,o),
(227,-144,o),
(227,-25,cs)
);
},
{
closed = 1;
nodes = (
(226,0,l),
(226,410,l),
(214,411,l),
(496,0,l),
(629,0,l),
(629,660,l),
(483,660,l),
(483,226,l),
(502,239,l),
(211,660,l),
(80,660,l),
(80,0,l)
);
}
);
width = 700;
}
);
note = uni019D;
unicode = 413;
},
{
glyphname = Eng;
kernLeft = H;
kernRight = J;
lastChange = "2025-02-14 16:17:50 +0000";
layers = (
{
anchors = (
{
name = bottom;
pos = (325,-275);
},
{
name = top;
pos = (325,660);
}
);
layerId = m01;
shapes = (
{
closed = 1;
nodes = (
(579,0,l),
(518,0,l),
(518,-91,ls),
(518,-120,o),
(506,-132,o),
(490,-132,cs),
(465,-132,o),
(437,-122,o),
(413,-102,c),
(413,-159,l),
(417,-163,ls),
(434,-179,o),
(461,-191,o),
(494,-191,cs),
(553,-191,o),
(579,-145,o),
(579,-80,cs)
);
},
{
closed = 1;
nodes = (
(146,0,l),
(146,553,l),
(140,552,l),
(518,0,l),
(579,0,l),
(579,660,l),
(512,660,l),
(512,97,l),
(523,107,l),
(143,660,l),
(80,660,l),
(80,0,l)
);
}
);
width = 650;
},
{
anchors = (
{
name = bottom;
pos = (320,-275);
},
{
name = top;
pos = (320,660);
}
);
layerId = "4DE8B86A-429B-4593-9BC8-49866BB1A430";
shapes = (
{
closed = 1;
nodes = (
(560,0,l),
(539,0,l),
(539,-130,ls),
(539,-159,o),
(526,-173,o),
(509,-173,cs),
(484,-173,o),
(465,-164,o),
(440,-141,c),
(440,-159,l),
(442,-163,l),
(453,-176,o),
(481,-191,o),
(510,-191,cs),
(553,-191,o),
(560,-154,o),
(560,-111,cs)
);
},
{
closed = 1;
nodes = (
(110,0,l),
(110,637,l),
(103,632,l),
(535,0,l),
(558,0,l),
(558,660,l),
(533,660,l),
(533,19,l),
(544,33,l),
(114,660,l),
(87,660,l),
(87,0,l)
);
}
);
width = 639;
},
{
anchors = (
{
name = bottom;
pos = (346,-275);
},
{
name = top;
pos = (346,660);
}
);
layerId = "0BE882A4-FC89-4865-8E81-154FB3EE808B";
shapes = (
{
closed = 1;
nodes = (
(621,0,l),
(499,0,l),
(499,-33,ls),
(499,-62,o),
(490,-72,o),
(474,-72,cs),
(450,-72,o),
(410,-61,o),
(387,-42,c),
(387,-159,l),
(393,-163,ls),
(421,-182,o),
(444,-191,o),
(485,-191,cs),
(569,-191,o),
(622,-144,o),
(622,-33,cs)
);
},
{
closed = 1;
nodes = (
(215,0,l),
(215,430,l),
(203,430,l),
(499,0,l),
(621,0,l),
(621,660,l),
(487,660,l),
(487,207,l),
(505,220,l),
(201,660,l),
(80,660,l),
(80,0,l)
);
}
);
width = 692;
},
{
anchors = (
{
name = bottom;
pos = (350,-275);
},
{
name = top;
pos = (350,660);
}
);
layerId = "9C2CFEA6-85BB-4338-BB26-B1BEA40B5780";
shapes = (
{
closed = 1;
nodes = (
(629,0,l),
(496,0,l),
(496,-24,ls),
(496,-53,o),
(488,-61,o),
(471,-61,cs),
(447,-61,o),
(405,-51,o),
(382,-32,c),
(382,-159,l),
(388,-163,ls),
(420,-182,o),
(440,-191,o),
(483,-191,cs),
(572,-191,o),
(629,-144,o),
(629,-25,cs)
);
},
{
closed = 1;
nodes = (
(226,0,l),
(226,410,l),
(214,411,l),
(496,0,l),
(629,0,l),
(629,660,l),
(483,660,l),
(483,226,l),
(502,239,l),
(211,660,l),
(80,660,l),
(80,0,l)
);
}
);
width = 700;
}
);
note = Eng;
unicode = 330;
},
{
glyphname = O;
kernLeft = C;
kernRight = D;
lastChange = "2025-02-14 16:17:50 +0000";
layers = (
{
anchors = (
{
name = bottom;
pos = (379,0);
},
{
name = center;
pos = (379,330);
},
{
name = ogonek;
pos = (391,10);
},
{
name = top;
pos = (379,660);
},
{
name = topleft;
pos = (25,660);
},
{
name = topright;
pos = (429,660);
}
);
layerId = m01;
shapes = (
{
closed = 1;
nodes = (
(575,-6,o),
(710,152,o),
(710,330,cs),
(710,533,o),
(545,666,o),
(378,666,cs),
(167,666,o),
(47,487,o),
(47,330,cs),
(47,119,o),
(220,-6,o),
(378,-6,cs)
);
},
{
closed = 1;
nodes = (
(213,55,o),
(113,197,o),
(113,330,cs),
(113,507,o),
(254,605,o),
(378,605,cs),
(548,605,o),
(644,461,o),
(644,330,cs),
(644,142,o),
(494,55,o),
(378,55,cs)
);
}
);
width = 758;
},
{
anchors = (
{
name = bottom;
pos = (382,0);
},
{
name = center;
pos = (382,330);
},
{
name = ogonek;
pos = (398,10);
},
{
name = top;
pos = (382,660);
},
{
name = topleft;
pos = (32,660);
},
{
name = topright;
pos = (440,660);
}
);
layerId = "4DE8B86A-429B-4593-9BC8-49866BB1A430";
shapes = (
{
closed = 1;
nodes = (
(578,-6,o),
(712,154,o),
(712,330,cs),
(712,543,o),
(537,666,o),
(381,666,cs),
(169,666,o),
(52,483,o),
(52,330,cs),
(52,116,o),
(228,-6,o),
(381,-6,cs)
);
},
{
closed = 1;
nodes = (
(188,16,o),
(76,185,o),
(76,330,cs),
(76,527,o),
(233,644,o),
(381,644,cs),
(575,644,o),
(688,482,o),
(688,330,cs),
(688,115,o),
(514,16,o),
(381,16,cs)
);
}
);
width = 764;
},
{
anchors = (
{
name = bottom;
pos = (382,0);
},
{
name = center;
pos = (382,330);
},
{
name = ogonek;
pos = (391,10);
},
{
name = top;
pos = (382,660);
},
{
name = topleft;
pos = (25,660);
},
{
name = topright;
pos = (422,660);
}
);
layerId = "0BE882A4-FC89-4865-8E81-154FB3EE808B";
shapes = (
{
closed = 1;
nodes = (
(544,-6,o),
(715,119,o),
(715,330,cs),
(715,547,o),
(536,666,o),
(381,666,cs),
(169,666,o),
(47,489,o),
(47,330,cs),
(47,119,o),
(220,-6,o),
(381,-6,cs)
);
},
{
closed = 1;
nodes = (
(271,119,o),
(182,211,o),
(182,330,cs),
(182,448,o),
(271,541,o),
(381,541,cs),
(495,541,o),
(580,446,o),
(580,330,cs),
(580,190,o),
(470,119,o),
(381,119,cs)
);
}
);
width = 763;
},
{
anchors = (
{
name = bottom;
pos = (382,0);
},
{
name = center;
pos = (382,330);
},
{
name = ogonek;
pos = (391,10);
},
{
name = top;
pos = (382,660);
},
{
name = topleft;
pos = (25,660);
},
{
name = topright;
pos = (423,660);
}
);
layerId = "9C2CFEA6-85BB-4338-BB26-B1BEA40B5780";
shapes = (
{
closed = 1;
nodes = (
(545,-6,o),
(716,119,o),
(716,330,cs),
(716,533,o),
(551,666,o),
(382,666,cs),
(170,666,o),
(47,491,o),
(47,330,cs),
(47,119,o),
(221,-6,o),
(382,-6,cs)
);
},
{
closed = 1;
nodes = (
(275,129,o),
(194,221,o),
(194,330,cs),
(194,449,o),
(283,531,o),
(382,531,cs),
(489,531,o),
(570,440,o),
(570,330,cs),
(570,203,o),
(471,129,o),
(382,129,cs)
);
}
);
width = 764;
}
);
note = O;
unicode = 79;
},
{
glyphname = Oslash;
kernLeft = C;
kernRight = D;
lastChange = "2025-02-14 16:17:50 +0000";
layers = (
{
anchors = (
{
name = bottom;
pos = (365,0);
},
{
name = top;
pos = (365,660);
}
);
layerId = m01;
shapes = (
{
closed = 1;
nodes = (
(515,722,l),
(457,740,l),
(217,-56,l),
(275,-73,l)
);
},
{
alignment = -1;
ref = O;
}
);
width = 735;
},
{
anchors = (
{
name = bottom;
pos = (360,0);
},
{
name = top;
pos = (360,660);
}
);
layerId = "4DE8B86A-429B-4593-9BC8-49866BB1A430";
shapes = (
{
closed = 1;
nodes = (
(503,732,l),
(477,739,l),
(233,-65,l),
(259,-72,l)
);
},
{
alignment = -1;
pos = (2,0);
ref = O;
}
);
width = 728;
},
{
anchors = (
{
name = bottom;
pos = (377,0);
},
{
name = top;
pos = (377,660);
}
);
layerId = "0BE882A4-FC89-4865-8E81-154FB3EE808B";
shapes = (
{
closed = 1;
nodes = (
(536,707,l),
(431,741,l),
(196,-42,l),
(301,-74,l)
);
},
{
alignment = -1;
ref = O;
}
);
width = 758;
},
{
anchors = (
{
name = bottom;
pos = (378,0);
},
{
name = top;
pos = (378,660);
}
);
layerId = "9C2CFEA6-85BB-4338-BB26-B1BEA40B5780";
shapes = (
{
closed = 1;
nodes = (
(540,704,l),
(426,741,l),
(192,-39,l),
(306,-74,l)
);
},
{
alignment = -1;
ref = O;
}
);
width = 761;
}
);
note = Oslash;
unicode = 216;
},
{
glyphname = OE;
kernLeft = C;
kernRight = AE;
lastChange = "2025-02-14 16:17:50 +0000";
layers = (
{
anchors = (
{
name = bottom;
pos = (507,0);
},
{
name = top;
pos = (507,660);
}
);
layerId = m01;
shapes = (
{
closed = 1;
nodes = (
(434,0,o),
(497,19,o),
(553,55,c),
(553,0,l),
(980,0,l),
(980,60,l),
(619,60,l),
(619,304,l),
(909,304,l),
(909,364,l),
(619,364,l),
(619,600,l),
(979,600,l),
(979,660,l),
(553,660,l),
(553,607,l),
(498,644,o),
(437,662,o),
(370,662,cs),
(159,662,o),
(39,484,o),
(39,331,cs),
(39,123,o),
(214,0,o),
(370,0,cs)
);
},
{
closed = 1;
nodes = (
(197,60,o),
(105,212,o),
(105,331,cs),
(105,500,o),
(242,602,o),
(370,602,cs),
(439,602,o),
(504,575,o),
(553,527,c),
(553,134,l),
(502,86,o),
(435,60,o),
(370,60,cs)
);
}
);
width = 1014;
},
{
anchors = (
{
name = bottom;
pos = (521,0);
},
{
name = top;
pos = (521,660);
}
);
layerId = "4DE8B86A-429B-4593-9BC8-49866BB1A430";
shapes = (
{
closed = 1;
nodes = (
(456,0,o),
(534,27,o),
(601,76,c),
(601,0,l),
(1009,0,l),
(1009,18,l),
(621,18,l),
(621,326,l),
(932,326,l),
(932,343,l),
(621,343,l),
(621,642,l),
(1008,642,l),
(1008,660,l),
(601,660,l),
(601,585,l),
(534,636,o),
(466,662,o),
(395,662,cs),
(173,662,o),
(46,484,o),
(46,331,cs),
(46,121,o),
(198,0,o),
(377,0,cs)
);
},
{
closed = 1;
nodes = (
(216,18,o),
(70,116,o),
(70,331,cs),
(70,525,o),
(236,644,o),
(395,644,cs),
(478,644,o),
(542,620,o),
(601,564,c),
(601,97,l),
(542,41,o),
(456,18,o),
(377,18,cs)
);
}
);
width = 1040;
},
{
anchors = (
{
name = bottom;
pos = (498,0);
},
{
name = top;
pos = (498,660);
}
);
layerId = "0BE882A4-FC89-4865-8E81-154FB3EE808B";
shapes = (
{
closed = 1;
nodes = (
(412,0,o),
(452,7,o),
(491,23,c),
(491,0,l),
(948,0,l),
(948,124,l),
(626,124,l),
(626,271,l),
(884,271,l),
(884,395,l),
(626,395,l),
(626,536,l),
(947,536,l),
(947,660,l),
(491,660,l),
(491,640,l),
(452,655,o),
(403,662,o),
(342,662,cs),
(145,662,o),
(39,480,o),
(39,331,cs),
(39,123,o),
(214,0,o),
(370,0,cs)
);
},
{
closed = 1;
nodes = (
(255,137,o),
(169,224,o),
(169,331,cs),
(169,438,o),
(254,526,o),
(360,526,cs),
(408,526,o),
(456,507,o),
(491,472,c),
(491,189,l),
(454,154,o),
(407,137,o),
(360,137,cs)
);
}
);
width = 995;
},
{
anchors = (
{
name = bottom;
pos = (496,0);
},
{
name = top;
pos = (496,660);
}
);
layerId = "9C2CFEA6-85BB-4338-BB26-B1BEA40B5780";
shapes = (
{
closed = 1;
nodes = (
(412,0,o),
(445,6,o),
(480,17,c),
(480,0,l),
(942,0,l),
(942,134,l),
(627,134,l),
(627,265,l),
(881,265,l),
(881,401,l),
(627,401,l),
(627,526,l),
(941,526,l),
(941,660,l),
(480,660,l),
(480,646,l),
(444,657,o),
(407,662,o),
(370,662,cs),
(159,662,o),
(39,484,o),
(39,331,cs),
(39,127,o),
(215,0,o),
(357,0,cs)
);
},
{
closed = 1;
nodes = (
(258,150,o),
(179,232,o),
(179,331,cs),
(179,431,o),
(261,514,o),
(358,514,cs),
(403,514,o),
(448,495,o),
(480,463,c),
(480,198,l),
(446,167,o),
(402,150,o),
(358,150,cs)
);
}
);
width = 992;
}
);
note = OE;
unicode = 338;
},
{
glyphname = P;
kernLeft = H;
kernRight = P;
lastChange = "2025-02-14 16:17:50 +0000";
layers = (
{
anchors = (
{
name = bottom;
pos = (272,0);
},
{
name = top;
pos = (272,660);
}
);
layerId = m01;
shapes = (
{
closed = 1;
nodes = (
(146,0,l),
(146,297,l),
(323,297,ls),
(419,297,o),
(505,374,o),
(505,478,cs),
(505,577,o),
(422,660,o),
(323,660,cs),
(80,660,l),
(80,0,l)
);
},
{
closed = 1;
nodes = (
(146,357,l),
(146,599,l),
(323,599,ls),
(387,599,o),
(439,544,o),
(439,478,cs),
(439,412,o),
(388,357,o),
(323,357,cs)
);
}
);
width = 543;
},
{
anchors = (
{
name = bottom;
pos = (271,0);
},
{
name = top;
pos = (271,660);
}
);
layerId = "4DE8B86A-429B-4593-9BC8-49866BB1A430";
shapes = (
{
closed = 1;
nodes = (
(110,0,l),
(110,316,l),
(323,316,ls),
(410,314,o),
(493,388,o),
(493,486,cs),
(493,579,o),
(415,660,o),
(322,660,cs),
(87,660,l),
(87,0,l)
);
},
{
closed = 1;
nodes = (
(110,336,l),
(110,637,l),
(323,637,ls),
(398,639,o),
(468,572,o),
(468,486,cs),
(468,402,o),
(403,336,o),
(322,336,cs)
);
}
);
width = 540;
},
{
anchors = (
{
name = bottom;
pos = (284,0);
},
{
name = top;
pos = (284,660);
}
);
layerId = "0BE882A4-FC89-4865-8E81-154FB3EE808B";
shapes = (
{
closed = 1;
nodes = (
(215,0,l),
(215,266,l),
(334,266,ls),
(446,266,o),
(535,354,o),
(535,463,cs),
(535,571,o),
(445,660,o),
(334,660,cs),
(80,660,l),
(80,0,l)
);
},
{
closed = 1;
nodes = (
(215,390,l),
(215,535,l),
(334,535,ls),
(375,535,o),
(400,504,o),
(400,463,cs),
(400,422,o),
(370,390,o),
(334,390,cs)
);
}
);
width = 567;
},
{
anchors = (
{
name = bottom;
pos = (286,0);
},
{
name = top;
pos = (286,660);
}
);
layerId = "9C2CFEA6-85BB-4338-BB26-B1BEA40B5780";
shapes = (
{
closed = 1;
nodes = (
(226,0,l),
(226,260,l),
(336,260,ls),
(448,260,o),
(540,354,o),
(540,467,cs),
(540,576,o),
(449,660,o),
(336,660,cs),
(80,660,l),
(80,0,l)
);
},
{
closed = 1;
nodes = (
(226,396,l),
(226,525,l),
(336,525,ls),
(372,525,o),
(394,496,o),
(394,460,cs),
(394,422,o),
(368,396,o),
(336,396,cs)
);
}
);
width = 571;
}
);
note = P;
unicode = 80;
},
{
glyphname = Thorn;
kernLeft = H;
kernRight = Thorn;
lastChange = "2025-02-14 16:17:50 +0000";
layers = (
{
anchors = (
{
name = bottom;
pos = (288,0);
},
{
name = top;
pos = (288,660);
}
);
layerId = m01;
shapes = (
{
closed = 1;
nodes = (
(140,0,l),
(140,155,l),
(316,155,ls),
(430,155,o),
(523,247,o),
(523,359,cs),
(523,412,o),
(499,467,o),
(462,504,cs),
(426,539,o),
(371,563,o),
(316,563,cs),
(140,563,l),
(140,654,l),
(74,654,l),
(74,0,l)
);
},
{
closed = 1;
nodes = (
(140,215,l),
(140,503,l),
(316,503,ls),
(355,503,o),
(388,488,o),
(415,460,cs),
(442,436,o),
(457,399,o),
(457,359,cs),
(457,278,o),
(394,215,o),
(316,215,cs)
);
}
);
width = 576;
},
{
anchors = (
{
name = bottom;
pos = (297,0);
},
{
name = top;
pos = (297,660);
}
);
layerId = "4DE8B86A-429B-4593-9BC8-49866BB1A430";
shapes = (
{
closed = 1;
nodes = (
(112,0,l),
(112,166,l),
(326,166,ls),
(429,166,o),
(522,248,o),
(522,362,cs),
(522,414,o),
(501,464,o),
(465,500,cs),
(428,535,o),
(378,556,o),
(326,556,cs),
(112,556,l),
(112,654,l),
(92,654,l),
(92,0,l)
);
},
{
closed = 1;
nodes = (
(112,183,l),
(112,540,l),
(326,540,ls),
(375,539,o),
(418,519,o),
(450,486,cs),
(482,455,o),
(502,409,o),
(502,362,cs),
(502,257,o),
(419,183,o),
(326,183,cs)
);
}
);
width = 593;
},
{
anchors = (
{
name = bottom;
pos = (288,0);
},
{
name = top;
pos = (288,660);
}
);
layerId = "0BE882A4-FC89-4865-8E81-154FB3EE808B";
shapes = (
{
closed = 1;
nodes = (
(195,0,l),
(195,138,l),
(314,138,ls),
(437,138,o),
(537,236,o),
(537,356,cs),
(537,409,o),
(511,470,o),
(472,509,cs),
(436,545,o),
(371,573,o),
(314,573,cs),
(195,573,l),
(195,654,l),
(60,654,l),
(60,0,l)
);
},
{
closed = 1;
nodes = (
(195,263,l),
(195,448,l),
(314,448,ls),
(337,448,o),
(357,439,o),
(377,422,c),
(392,405,o),
(402,381,o),
(402,356,cs),
(402,302,o),
(362,263,o),
(314,263,cs)
);
}
);
width = 576;
},
{
anchors = (
{
name = bottom;
pos = (288,0);
},
{
name = top;
pos = (288,660);
}
);
layerId = "9C2CFEA6-85BB-4338-BB26-B1BEA40B5780";
shapes = (
{
closed = 1;
nodes = (
(204,0,l),
(204,135,l),
(314,135,ls),
(438,135,o),
(540,235,o),
(540,355,cs),
(540,410,o),
(513,471,o),
(474,510,cs),
(438,546,o),
(371,575,o),
(314,575,cs),
(204,575,l),
(204,654,l),
(58,654,l),
(58,0,l)
);
},
{
closed = 1;
nodes = (
(204,272,l),
(204,439,l),
(314,439,ls),
(335,438,o),
(354,431,o),
(370,415,cs),
(383,400,o),
(393,379,o),
(393,355,cs),
(393,306,o),
(359,272,o),
(314,272,cs)
);
}
);
width = 576;
}
);
note = Thorn;
unicode = 222;
},
{
glyphname = Q;
kernLeft = C;
kernRight = Q;
lastChange = "2025-02-14 16:17:50 +0000";
layers = (
{
anchors = (
{
name = bottom;
pos = (374,0);
},
{
name = top;
pos = (374,660);
}
);
layerId = m01;
shapes = (
{
closed = 1;
nodes = (
(716,0,l),
(419,274,l),
(324,274,l),
(621,0,l)
);
},
{
ref = O;
}
);
width = 753;
},
{
anchors = (
{
name = bottom;
pos = (372,0);
},
{
name = top;
pos = (372,660);
}
);
layerId = "4DE8B86A-429B-4593-9BC8-49866BB1A430";
shapes = (
{
closed = 1;
nodes = (
(686,0,l),
(386,275,l),
(350,275,l),
(649,0,l)
);
},
{
pos = (2,0);
ref = O;
}
);
width = 754;
},
{
anchors = (
{
name = bottom;
pos = (377,0);
},
{
name = top;
pos = (377,660);
}
);
layerId = "0BE882A4-FC89-4865-8E81-154FB3EE808B";
shapes = (
{
closed = 1;
nodes = (
(766,0,l),
(469,275,l),
(277,275,l),
(574,0,l)
);
},
{
ref = O;
}
);
width = 758;
},
{
anchors = (
{
name = bottom;
pos = (377,0);
},
{
name = top;
pos = (377,660);
}
);
layerId = "9C2CFEA6-85BB-4338-BB26-B1BEA40B5780";
shapes = (
{
closed = 1;
nodes = (
(774,0,l),
(477,275,l),
(269,275,l),
(566,0,l)
);
},
{
ref = O;
}
);
width = 758;
}
);
note = Q;
unicode = 81;
},
{
glyphname = R;
kernLeft = H;
kernRight = R;
lastChange = "2025-02-14 16:17:50 +0000";
layers = (
{
anchors = (
{
name = bottom;
pos = (307,0);
},
{
name = top;
pos = (307,660);
}
);
layerId = m01;
shapes = (
{
closed = 1;
nodes = (
(291,350,l),
(516,0,l),
(594,0,l),
(367,351,l)
);
},
{
closed = 1;
nodes = (
(146,396,l),
(146,600,l),
(342,600,ls),
(415,600,o),
(457,558,o),
(457,498,cs),
(457,437,o),
(419,396,o),
(347,396,cs)
);
},
{
closed = 1;
nodes = (
(352,336,ls),
(453,336,o),
(523,402,o),
(523,498,cs),
(523,591,o),
(453,660,o),
(342,660,cs),
(80,660,l),
(80,0,l),
(146,0,l),
(146,336,l)
);
}
);
width = 614;
},
{
anchors = (
{
name = bottom;
pos = (299,0);
},
{
name = top;
pos = (299,660);
}
);
layerId = "4DE8B86A-429B-4593-9BC8-49866BB1A430";
shapes = (
{
closed = 1;
nodes = (
(305,367,l),
(541,0,l),
(572,0,l),
(332,369,l)
);
},
{
closed = 1;
nodes = (
(110,378,l),
(110,639,l),
(338,639,ls),
(435,638,o),
(486,584,o),
(486,508,cs),
(486,432,o),
(437,378,o),
(346,378,cs)
);
},
{
closed = 1;
nodes = (
(343,357,ls),
(451,357,o),
(512,419,o),
(512,509,cs),
(512,593,o),
(453,660,o),
(339,660,cs),
(87,660,l),
(87,0,l),
(110,0,l),
(110,357,l)
);
}
);
width = 594;
},
{
anchors = (
{
name = bottom;
pos = (331,0);
},
{
name = top;
pos = (331,660);
}
);
layerId = "0BE882A4-FC89-4865-8E81-154FB3EE808B";
shapes = (
{
closed = 1;
nodes = (
(276,327,l),
(485,0,l),
(641,0,l),
(432,327,l)
);
},
{
closed = 1;
nodes = (
(215,425,l),
(215,536,l),
(359,536,ls),
(392,536,o),
(419,514,o),
(419,481,cs),
(419,445,o),
(400,425,o),
(361,425,cs)
);
},
{
closed = 1;
nodes = (
(377,300,ls),
(472,300,o),
(551,384,o),
(551,480,cs),
(551,581,o),
(474,660,o),
(356,660,cs),
(80,660,l),
(80,0,l),
(215,0,l),
(215,300,l)
);
}
);
width = 661;
},
{
anchors = (
{
name = bottom;
pos = (335,0);
},
{
name = top;
pos = (335,660);
}
);
layerId = "9C2CFEA6-85BB-4338-BB26-B1BEA40B5780";
shapes = (
{
closed = 1;
nodes = (
(273,324,l),
(480,0,l),
(649,0,l),
(443,324,l)
);
},
{
closed = 1;
nodes = (
(226,430,l),
(226,526,l),
(362,526,ls),
(389,525,o),
(412,507,o),
(412,478,cs),
(412,446,o),
(397,430,o),
(362,430,cs)
);
},
{
closed = 1;
nodes = (
(380,295,ls),
(475,293,o),
(556,381,o),
(556,477,cs),
(556,581,o),
(475,660,o),
(359,660,cs),
(80,660,l),
(80,0,l),
(226,0,l),
(226,295,l)
);
}
);
width = 669;
}
);
note = R;
unicode = 82;
},
{
glyphname = S;
kernLeft = S;
kernRight = S;
lastChange = "2025-02-14 16:17:50 +0000";
layers = (
{
anchors = (
{
name = bottom;
pos = (248,0);
},
{
name = top;
pos = (248,660);
}
);
layerId = m01;
shapes = (
{
closed = 1;
nodes = (
(363,-6,o),
(457,60,o),
(457,170,cs),
(457,254,o),
(418,304,o),
(368,332,cs),
(343,346,o),
(307,363,o),
(260,382,cs),
(176,415,o),
(137,446,o),
(137,503,cs),
(137,563,o),
(185,605,o),
(246,605,cs),
(305,605,o),
(336,584,o),
(372,551,c),
(418,593,l),
(377,637,o),
(327,666,o),
(246,666,cs),
(148,666,o),
(71,592,o),
(71,503,cs),
(71,411,o),
(137,364,o),
(233,324,cs),
(259,314,ls),
(360,274,o),
(391,239,o),
(391,170,cs),
(391,96,o),
(326,55,o),
(240,55,cs),
(175,55,o),
(123,83,o),
(87,124,c),
(38,83,l),
(81,35,o),
(154,-6,o),
(240,-6,cs)
);
}
);
width = 495;
},
{
anchors = (
{
name = bottom;
pos = (240,0);
},
{
name = top;
pos = (240,660);
}
);
layerId = "4DE8B86A-429B-4593-9BC8-49866BB1A430";
shapes = (
{
closed = 1;
nodes = (
(348,-6,o),
(435,55,o),
(437,159,cs),
(437,240,o),
(401,288,o),
(354,313,cs),
(331,325,o),
(293,342,o),
(241,364,cs),
(148,401,o),
(96,442,o),
(96,514,cs),
(96,590,o),
(157,644,o),
(236,644,cs),
(299,644,o),
(334,623,o),
(369,596,c),
(387,612,l),
(346,645,o),
(307,666,o),
(236,666,cs),
(152,666,o),
(72,605,o),
(72,514,cs),
(72,427,o),
(134,380,o),
(230,340,cs),
(257,329,ls),
(378,282,o),
(412,243,o),
(412,159,cs),
(412,51,o),
(302,18,o),
(229,18,cs),
(158,18,o),
(100,43,o),
(61,79,c),
(42,62,l),
(100,14,o),
(156,-6,o),
(229,-6,cs)
);
}
);
width = 480;
},
{
anchors = (
{
name = bottom;
pos = (268,0);
},
{
name = top;
pos = (268,660);
}
);
layerId = "0BE882A4-FC89-4865-8E81-154FB3EE808B";
shapes = (
{
closed = 1;
nodes = (
(394,-6,o),
(496,68,o),
(496,189,cs),
(496,276,o),
(454,331,o),
(400,363,cs),
(373,379,o),
(338,395,o),
(297,412,cs),
(245,432,o),
(212,450,o),
(212,485,cs),
(212,520,o),
(237,541,o),
(281,541,cs),
(324,541,o),
(346,522,o),
(383,477,c),
(476,562,l),
(429,625,o),
(368,666,o),
(271,666,cs),
(164,666,o),
(77,585,o),
(77,485,cs),
(77,385,o),
(149,336,o),
(246,297,cs),
(269,287,ls),
(333,260,o),
(362,237,o),
(362,189,cs),
(362,143,o),
(329,116,o),
(265,116,cs),
(205,116,o),
(167,149,o),
(136,197,c),
(38,117,l),
(70,57,o),
(149,-6,o),
(265,-6,cs)
);
}
);
width = 535;
},
{
anchors = (
{
name = bottom;
pos = (271,0);
},
{
name = top;
pos = (271,660);
}
);
layerId = "9C2CFEA6-85BB-4338-BB26-B1BEA40B5780";
shapes = (
{
closed = 1;
nodes = (
(400,-6,o),
(503,70,o),
(503,191,cs),
(503,279,o),
(460,336,o),
(405,368,cs),
(378,384,o),
(344,400,o),
(304,417,cs),
(263,434,o),
(224,449,o),
(224,482,cs),
(224,511,o),
(246,531,o),
(281,531,cs),
(322,531,o),
(350,508,o),
(385,465,c),
(485,557,l),
(438,624,o),
(375,666,o),
(275,666,cs),
(166,666,o),
(78,584,o),
(78,482,cs),
(78,381,o),
(151,333,o),
(248,292,cs),
(270,283,ls),
(331,256,o),
(358,235,o),
(358,191,cs),
(358,151,o),
(327,126,o),
(270,126,cs),
(210,126,o),
(174,160,o),
(145,209,c),
(38,123,l),
(57,54,o),
(151,-6,o),
(270,-6,cs)
);
}
);
width = 541;
}
);
note = S;
unicode = 83;
},
{
glyphname = Germandbls;
kernLeft = Germandbls;
kernRight = Germandbls;
lastChange = "2025-02-14 16:17:50 +0000";
layers = (
{
anchors = (
{
name = bottom;
pos = (302,0);
},
{
name = top;
pos = (302,660);
}
);
layerId = m01;
shapes = (
{
closed = 1;
nodes = (
(118,0,l),
(118,660,l),
(52,660,l),
(52,0,l)
);
},
{
closed = 1;
nodes = (
(495,-3,o),
(585,81,o),
(585,196,cs),
(585,317,o),
(503,384,o),
(350,384,c),
(350,367,l),
(579,660,l),
(465,594,l),
(301,392,l),
(301,338,l),
(360,338,ls),
(467,338,o),
(519,280,o),
(519,196,cs),
(519,117,o),
(462,61,o),
(378,61,cs),
(318,61,o),
(277,89,o),
(246,150,c),
(187,123,l),
(220,43,o),
(297,-3,o),
(378,-3,cs)
);
},
{
closed = 1;
nodes = (
(52,594,l),
(465,594,l),
(579,660,l),
(52,660,l)
);
}
);
width = 604;
},
{
anchors = (
{
name = bottom;
pos = (277,0);
},
{
name = top;
pos = (277,660);
}
);
layerId = "4DE8B86A-429B-4593-9BC8-49866BB1A430";
shapes = (
{
closed = 1;
nodes = (
(79,0,l),
(79,660,l),
(59,660,l),
(59,0,l)
);
},
{
closed = 1;
nodes = (
(459,-3,o),
(541,80,o),
(541,187,cs),
(541,310,o),
(463,377,o),
(308,377,c),
(309,368,l),
(541,660,l),
(503,640,l),
(288,371,l),
(288,360,l),
(317,360,ls),
(457,359,o),
(520,290,o),
(520,187,cs),
(520,90,o),
(449,21,o),
(345,21,cs),
(277,21,o),
(229,42,o),
(186,111,c),
(169,101,l),
(209,24,o),
(277,-3,o),
(345,-3,cs)
);
},
{
closed = 1;
nodes = (
(59,640,l),
(503,640,l),
(541,660,l),
(59,660,l)
);
}
);
width = 551;
},
{
anchors = (
{
name = bottom;
pos = (351,0);
},
{
name = top;
pos = (351,660);
}
);
layerId = "0BE882A4-FC89-4865-8E81-154FB3EE808B";
shapes = (
{
closed = 1;
nodes = (
(187,0,l),
(187,660,l),
(52,660,l),
(52,0,l)
);
},
{
closed = 1;
nodes = (
(568,-3,o),
(661,92,o),
(661,210,cs),
(661,329,o),
(575,394,o),
(424,394,c),
(423,366,l),
(647,660,l),
(418,525,l),
(330,423,l),
(330,305,l),
(435,305,ls),
(492,305,o),
(527,263,o),
(527,210,cs),
(527,158,o),
(493,123,o),
(440,123,cs),
(383,123,o),
(355,161,o),
(347,208,c),
(225,156,l),
(243,63,o),
(349,-3,o),
(440,-3,cs)
);
},
{
closed = 1;
nodes = (
(52,525,l),
(418,525,l),
(647,660,l),
(52,660,l)
);
}
);
width = 701;
},
{
anchors = (
{
name = bottom;
pos = (359,0);
},
{
name = top;
pos = (359,660);
}
);
layerId = "9C2CFEA6-85BB-4338-BB26-B1BEA40B5780";
shapes = (
{
closed = 1;
nodes = (
(198,0,l),
(198,660,l),
(52,660,l),
(52,0,l)
);
},
{
closed = 1;
nodes = (
(583,-3,o),
(675,95,o),
(675,213,cs),
(675,330,o),
(587,396,o),
(436,396,c),
(435,366,l),
(658,660,l),
(410,514,l),
(335,429,l),
(335,299,l),
(448,299,ls),
(496,299,o),
(529,261,o),
(529,213,cs),
(529,165,o),
(498,133,o),
(450,133,cs),
(394,133,o),
(368,174,o),
(364,218,c),
(231,162,l),
(247,68,o),
(354,-3,o),
(450,-3,cs)
);
},
{
closed = 1;
nodes = (
(52,514,l),
(410,514,l),
(658,660,l),
(52,660,l)
);
}
);
width = 717;
}
);
note = uni1E9E;
unicode = 7838;
},
{
glyphname = T;
kernLeft = T;
kernRight = T;
lastChange = "2025-02-14 16:17:50 +0000";
layers = (
{
anchors = (
{
name = bottom;
pos = (304,0);
},
{
name = center;
pos = (304,330);
},
{
name = top;
pos = (304,660);
}
);
layerId = m01;
shapes = (
{
closed = 1;
nodes = (
(337,0,l),
(337,600,l),
(579,600,l),
(579,660,l),
(29,660,l),
(29,600,l),
(271,600,l),
(271,0,l)
);
}
);
width = 608;
},
{
anchors = (
{
name = bottom;
pos = (300,0);
},
{
name = center;
pos = (300,330);
},
{
name = top;
pos = (300,660);
}
);
layerId = "4DE8B86A-429B-4593-9BC8-49866BB1A430";
shapes = (
{
closed = 1;
nodes = (
(312,0,l),
(312,639,l),
(568,639,l),
(568,660,l),
(33,660,l),
(33,639,l),
(287,639,l),
(287,0,l)
);
}
);
width = 600;
},
{
anchors = (
{
name = bottom;
pos = (317,0);
},
{
name = center;
pos = (317,330);
},
{
name = top;
pos = (317,660);
}
);
layerId = "0BE882A4-FC89-4865-8E81-154FB3EE808B";
shapes = (
{
closed = 1;
nodes = (
(384,0,l),
(384,536,l),
(604,536,l),
(604,660,l),
(29,660,l),
(29,536,l),
(249,536,l),
(249,0,l)
);
}
);
width = 633;
},
{
anchors = (
{
name = bottom;
pos = (319,0);
},
{
name = center;
pos = (319,330);
},
{
name = top;
pos = (319,660);
}
);
layerId = "9C2CFEA6-85BB-4338-BB26-B1BEA40B5780";
shapes = (
{
closed = 1;
nodes = (
(392,0,l),
(392,526,l),
(607,526,l),
(607,660,l),
(29,660,l),
(29,526,l),
(246,526,l),
(246,0,l)
);
}
);
width = 637;
}
);
note = T;
unicode = 84;
},
{
glyphname = U;
kernLeft = U;
kernRight = U;
lastChange = "2025-02-14 16:17:50 +0000";
layers = (
{
anchors = (
{
name = bottom;
pos = (339,0);
},
{
name = ogonek;
pos = (384,10);
},
{
name = top;
pos = (339,660);
},
{
name = topright;
pos = (596,660);
}
);
layerId = m01;
shapes = (
{
closed = 1;
nodes = (
(435,-6,o),
(515,28,o),
(562,105,cs),
(585,143,o),
(597,191,o),
(597,250,cs),
(597,660,l),
(531,660,l),
(531,250,ls),
(531,123,o),
(454,55,o),
(339,55,cs),
(224,55,o),
(146,123,o),
(146,250,cs),
(146,660,l),
(80,660,l),
(80,250,ls),
(80,133,o),
(131,56,o),
(209,21,cs),
(248,3,o),
(291,-6,o),
(339,-6,cs)
);
}
);
width = 678;
},
{
anchors = (
{
name = bottom;
pos = (340,0);
},
{
name = ogonek;
pos = (393,10);
},
{
name = top;
pos = (340,660);
},
{
name = topright;
pos = (590,660);
}
);
layerId = "4DE8B86A-429B-4593-9BC8-49866BB1A430";
shapes = (
{
closed = 1;
nodes = (
(431,-6,o),
(512,29,o),
(558,106,cs),
(581,144,o),
(592,192,o),
(592,250,cs),
(592,660,l),
(566,660,l),
(566,254,ls),
(566,101,o),
(472,18,o),
(339,18,cs),
(206,18,o),
(113,101,o),
(113,254,cs),
(112,660,l),
(87,660,l),
(87,251,ls),
(87,134,o),
(137,57,o),
(213,21,cs),
(251,3,o),
(293,-6,o),
(339,-6,cs)
);
}
);
width = 679;
},
{
anchors = (
{
name = bottom;
pos = (349,0);
},
{
name = ogonek;
pos = (383,10);
},
{
name = top;
pos = (349,660);
},
{
name = topright;
pos = (614,660);
}
);
layerId = "0BE882A4-FC89-4865-8E81-154FB3EE808B";
shapes = (
{
closed = 1;
nodes = (
(451,-6,o),
(533,28,o),
(581,105,cs),
(604,143,o),
(616,191,o),
(616,250,cs),
(616,660,l),
(484,660,l),
(484,244,ls),
(484,160,o),
(432,116,o),
(348,116,cs),
(264,116,o),
(212,160,o),
(212,244,cs),
(212,660,l),
(80,660,l),
(80,250,ls),
(80,133,o),
(131,56,o),
(212,21,cs),
(252,3,o),
(297,-6,o),
(348,-6,cs)
);
}
);
width = 697;
},
{
anchors = (
{
name = bottom;
pos = (350,0);
},
{
name = ogonek;
pos = (374,10);
},
{
name = top;
pos = (350,660);
},
{
name = topright;
pos = (618,660);
}
);
layerId = "9C2CFEA6-85BB-4338-BB26-B1BEA40B5780";
shapes = (
{
closed = 1;
nodes = (
(453,-6,o),
(536,28,o),
(584,105,cs),
(607,143,o),
(619,191,o),
(619,250,cs),
(619,660,l),
(476,660,l),
(476,243,ls),
(476,166,o),
(429,126,o),
(350,126,cs),
(271,126,o),
(224,166,o),
(224,243,cs),
(223,660,l),
(80,660,l),
(80,250,ls),
(80,133,o),
(131,56,o),
(212,21,cs),
(253,3,o),
(299,-6,o),
(350,-6,cs)
);
}
);
width = 700;
}
);
note = U;
unicode = 85;
},
{
glyphname = V;
kernLeft = V;
kernRight = V;
lastChange = "2025-02-14 16:17:50 +0000";
layers = (
{
anchors = (
{
name = bottom;
pos = (311,0);
},
{
name = top;
pos = (311,660);
}
);
layerId = m01;
shapes = (
{
closed = 1;
nodes = (
(342,0,l),
(597,660,l),
(527,660,l),
(302,77,l),
(320,77,l),
(94,660,l),
(24,660,l),
(280,0,l)
);
}
);
width = 621;
},
{
anchors = (
{
name = bottom;
pos = (289,0);
},
{
name = top;
pos = (289,660);
}
);
layerId = "4DE8B86A-429B-4593-9BC8-49866BB1A430";
shapes = (
{
closed = 1;
nodes = (
(295,0,l),
(550,660,l),
(525,660,l),
(282,29,l),
(297,29,l),
(52,660,l),
(27,660,l),
(284,0,l)
);
}
);
width = 577;
},
{
anchors = (
{
name = bottom;
pos = (350,0);
},
{
name = top;
pos = (350,660);
}
);
layerId = "0BE882A4-FC89-4865-8E81-154FB3EE808B";
shapes = (
{
closed = 1;
nodes = (
(421,0,l),
(676,660,l),
(533,660,l),
(335,149,l),
(365,149,l),
(168,660,l),
(24,660,l),
(279,0,l)
);
}
);
width = 700;
},
{
anchors = (
{
name = bottom;
pos = (357,0);
},
{
name = top;
pos = (357,660);
}
);
layerId = "9C2CFEA6-85BB-4338-BB26-B1BEA40B5780";
shapes = (
{
closed = 1;
nodes = (
(434,0,l),
(689,660,l),
(534,660,l),
(341,161,l),
(373,161,l),
(180,660,l),
(24,660,l),
(279,0,l)
);
}
);
width = 713;
}
);
note = V;
unicode = 86;
},
{
glyphname = W;
kernLeft = W;
kernRight = W;
lastChange = "2025-02-14 16:17:50 +0000";
layers = (
{
anchors = (
{
name = bottom;
pos = (456,0);
},
{
name = top;
pos = (456,660);
}
);
layerId = m01;
shapes = (
{
closed = 1;
nodes = (
(256,0,l),
(456,563,l),
(656,0,l),
(725,0,l),
(889,660,l),
(821,660,l),
(685,113,l),
(491,660,l),
(421,660,l),
(227,114,l),
(92,660,l),
(24,660,l),
(188,0,l)
);
}
);
width = 912;
},
{
anchors = (
{
name = bottom;
pos = (459,0);
},
{
name = top;
pos = (459,660);
}
);
layerId = "4DE8B86A-429B-4593-9BC8-49866BB1A430";
shapes = (
{
closed = 1;
nodes = (
(229,0,l),
(458,647,l),
(688,0,l),
(726,0,l),
(890,660,l),
(866,660,l),
(706,19,l),
(479,660,l),
(437,660,l),
(210,20,l),
(52,660,l),
(27,660,l),
(191,0,l)
);
}
);
width = 917;
},
{
anchors = (
{
name = bottom;
pos = (458,0);
},
{
name = top;
pos = (458,660);
}
);
layerId = "0BE882A4-FC89-4865-8E81-154FB3EE808B";
shapes = (
{
closed = 1;
nodes = (
(306,0,l),
(458,426,l),
(609,0,l),
(728,0,l),
(892,660,l),
(753,660,l),
(656,268,l),
(516,660,l),
(399,660,l),
(260,268,l),
(163,660,l),
(24,660,l),
(188,0,l)
);
}
);
width = 915;
},
{
anchors = (
{
name = bottom;
pos = (458,0);
},
{
name = top;
pos = (458,660);
}
);
layerId = "9C2CFEA6-85BB-4338-BB26-B1BEA40B5780";
shapes = (
{
closed = 1;
nodes = (
(314,0,l),
(458,404,l),
(601,0,l),
(729,0,l),
(893,660,l),
(742,660,l),
(651,293,l),
(521,660,l),
(396,660,l),
(266,293,l),
(175,660,l),
(24,660,l),
(188,0,l)
);
}
);
width = 915;
}
);
note = W;
unicode = 87;
},
{
glyphname = X;
kernLeft = X;
kernRight = X;
lastChange = "2025-02-14 16:17:50 +0000";
layers = (
{
anchors = (
{
name = bottom;
pos = (345,0);
},
{
name = top;
pos = (345,660);
}
);
layerId = m01;
shapes = (
{
closed = 1;
nodes = (
(311,361,l),
(19,0,l),
(101,0,l),
(353,311,l)
);
},
{
closed = 1;
nodes = (
(589,0,l),
(671,0,l),
(134,660,l),
(52,660,l)
);
},
{
closed = 1;
nodes = (
(380,339,l),
(642,660,l),
(559,660,l),
(339,390,l)
);
}
);
width = 690;
},
{
anchors = (
{
name = bottom;
pos = (324,0);
},
{
name = top;
pos = (324,660);
}
);
layerId = "4DE8B86A-429B-4593-9BC8-49866BB1A430";
shapes = (
{
closed = 1;
nodes = (
(314,366,l),
(21,0,l),
(50,0,l),
(330,349,l)
);
},
{
closed = 1;
nodes = (
(596,0,l),
(626,0,l),
(89,660,l),
(60,660,l)
);
},
{
closed = 1;
nodes = (
(331,344,l),
(591,660,l),
(561,660,l),
(317,364,l)
);
}
);
width = 647;
},
{
anchors = (
{
name = bottom;
pos = (384,0);
},
{
name = top;
pos = (384,660);
}
);
layerId = "0BE882A4-FC89-4865-8E81-154FB3EE808B";
shapes = (
{
closed = 1;
nodes = (
(313,358,l),
(19,0,l),
(187,0,l),
(398,254,l)
);
},
{
closed = 1;
nodes = (
(581,0,l),
(748,0,l),
(211,660,l),
(43,660,l)
);
},
{
closed = 1;
nodes = (
(459,326,l),
(729,660,l),
(559,660,l),
(374,429,l)
);
}
);
width = 767;
},
{
anchors = (
{
name = bottom;
pos = (390,0);
},
{
name = top;
pos = (390,660);
}
);
layerId = "9C2CFEA6-85BB-4338-BB26-B1BEA40B5780";
shapes = (
{
closed = 1;
nodes = (
(313,358,l),
(19,0,l),
(201,0,l),
(406,245,l)
);
},
{
closed = 1;
nodes = (
(580,0,l),
(762,0,l),
(225,660,l),
(41,660,l)
);
},
{
closed = 1;
nodes = (
(472,324,l),
(743,660,l),
(559,660,l),
(380,435,l)
);
}
);
width = 780;
}
);
note = X;
unicode = 88;
},
{
glyphname = Y;
kernLeft = Y;
kernRight = Y;
lastChange = "2025-02-14 16:17:50 +0000";
layers = (
{
anchors = (
{
name = bottom;
pos = (316,0);
},
{
name = top;
pos = (316,660);
},
{
name = topleft;
pos = (25,660);
}
);
layerId = m01;
shapes = (
{
closed = 1;
nodes = (
(349,0,l),
(349,320,l),
(613,660,l),
(532,660,l),
(316,382,l),
(100,660,l),
(19,660,l),
(283,320,l),
(283,0,l)
);
}
);
width = 632;
},
{
anchors = (
{
name = bottom;
pos = (292,0);
},
{
name = top;
pos = (292,660);
},
{
name = topleft;
pos = (31,660);
}
);
layerId = "4DE8B86A-429B-4593-9BC8-49866BB1A430";
shapes = (
{
closed = 1;
nodes = (
(304,0,l),
(304,326,l),
(563,660,l),
(534,660,l),
(292,348,l),
(50,660,l),
(21,660,l),
(280,326,l),
(280,0,l)
);
}
);
width = 584;
},
{
anchors = (
{
name = bottom;
pos = (359,0);
},
{
name = top;
pos = (359,660);
},
{
name = topleft;
pos = (25,660);
}
);
layerId = "0BE882A4-FC89-4865-8E81-154FB3EE808B";
shapes = (
{
closed = 1;
nodes = (
(425,0,l),
(425,310,l),
(698,660,l),
(532,660,l),
(358,437,l),
(185,660,l),
(19,660,l),
(291,310,l),
(291,0,l)
);
}
);
width = 717;
},
{
anchors = (
{
name = bottom;
pos = (366,0);
},
{
name = top;
pos = (366,660);
},
{
name = topleft;
pos = (25,660);
}
);
layerId = "9C2CFEA6-85BB-4338-BB26-B1BEA40B5780";
shapes = (
{
closed = 1;
nodes = (
(439,0,l),
(439,308,l),
(712,660,l),
(532,660,l),
(366,446,l),
(199,660,l),
(19,660,l),
(293,308,l),
(293,0,l)
);
}
);
width = 731;
}
);
note = Y;
unicode = 89;
},
{
glyphname = Z;
kernLeft = Z;
kernRight = Z;
lastChange = "2025-02-14 16:17:50 +0000";
layers = (
{
anchors = (
{
name = bottom;
pos = (294,0);
},
{
name = center;
pos = (294,330);
},
{
name = top;
pos = (294,660);
}
);
layerId = m01;
shapes = (
{
closed = 1;
nodes = (
(565,0,l),
(565,60,l),
(138,60,l),
(573,660,l),
(74,660,l),
(74,600,l),
(450,600,l),
(14,0,l)
);
}
);
width = 587;
},
{
anchors = (
{
name = bottom;
pos = (267,0);
},
{
name = center;
pos = (267,330);
},
{
name = top;
pos = (267,660);
}
);
layerId = "4DE8B86A-429B-4593-9BC8-49866BB1A430";
shapes = (
{
closed = 1;
nodes = (
(511,0,l),
(511,21,l),
(61,21,l),
(524,660,l),
(91,660,l),
(91,639,l),
(479,639,l),
(15,0,l)
);
}
);
width = 533;
},
{
anchors = (
{
name = bottom;
pos = (339,0);
},
{
name = center;
pos = (339,330);
},
{
name = top;
pos = (339,660);
}
);
layerId = "0BE882A4-FC89-4865-8E81-154FB3EE808B";
shapes = (
{
closed = 1;
nodes = (
(653,0,l),
(653,124,l),
(267,124,l),
(655,660,l),
(53,660,l),
(53,536,l),
(403,536,l),
(14,0,l)
);
}
);
width = 678;
},
{
anchors = (
{
name = bottom;
pos = (347,0);
},
{
name = center;
pos = (347,330);
},
{
name = top;
pos = (347,660);
}
);
layerId = "9C2CFEA6-85BB-4338-BB26-B1BEA40B5780";
shapes = (
{
closed = 1;
nodes = (
(668,0,l),
(668,134,l),
(289,134,l),
(669,660,l),
(49,660,l),
(49,526,l),
(395,526,l),
(14,0,l)
);
}
);
width = 694;
}
);
note = Z;
unicode = 90;
},
{
glyphname = Saltillo;
kernLeft = Saltillo;
kernRight = Saltillo;
lastChange = "2025-02-14 16:17:50 +0000";
layers = (
{
layerId = m01;
shapes = (
{
closed = 1;
nodes = (
(292,376,l),
(345,376,l),
(351,777,l),
(285,777,l)
);
}
);
width = 610;
},
{
layerId = "4DE8B86A-429B-4593-9BC8-49866BB1A430";
shapes = (
{
closed = 1;
nodes = (
(339,376,l),
(355,376,l),
(356,778,l),
(336,778,l)
);
}
);
width = 650;
},
{
layerId = "0BE882A4-FC89-4865-8E81-154FB3EE808B";
shapes = (
{
closed = 1;
nodes = (
(262,376,l),
(370,376,l),
(383,777,l),
(248,777,l)
);
}
);
width = 610;
},
{
layerId = "9C2CFEA6-85BB-4338-BB26-B1BEA40B5780";
shapes = (
{
closed = 1;
nodes = (
(263,376,l),
(380,376,l),
(394,778,l),
(248,778,l)
);
}
);
width = 610;
}
);
note = uniA78B;
unicode = 42891;
},
{
glyphname = a;
kernLeft = a;
kernRight = a;
lastChange = "2025-02-14 16:17:50 +0000";
layers = (
{
anchors = (
{
name = bottom;
pos = (215,0);
},
{
name = ogonek;
pos = (348,0);
},
{
name = top;
pos = (245,472);
}
);
layerId = m01;
shapes = (
{
closed = 1;
nodes = (
(292,-6,o),
(351,56,o),
(351,126,c),
(348,144,l),
(348,0,l),
(414,0,l),
(414,317,ls),
(414,419,o),
(341,477,o),
(230,477,cs),
(149,477,o),
(94,442,o),
(54,391,c),
(99,352,l),
(135,395,o),
(174,417,o),
(230,417,cs),
(306,417,o),
(348,385,o),
(348,317,cs),
(348,231,l),
(373,267,l),
(340,278,o),
(293,284,o),
(253,284,cs),
(128,284,o),
(43,243,o),
(43,130,cs),
(43,40,o),
(117,-6,o),
(201,-6,cs)
);
},
{
closed = 1;
nodes = (
(142,57,o),
(109,94,o),
(109,137,cs),
(109,204,o),
(163,233,o),
(266,233,cs),
(295,233,o),
(322,230,o),
(348,223,c),
(348,118,o),
(293,57,o),
(201,57,cs)
);
}
);
width = 490;
},
{
anchors = (
{
name = bottom;
pos = (226,0);
},
{
name = ogonek;
pos = (380,0);
},
{
name = top;
pos = (253,472);
}
);
layerId = "4DE8B86A-429B-4593-9BC8-49866BB1A430";
shapes = (
{
closed = 1;
nodes = (
(324,-7,o),
(382,86,o),
(382,160,c),
(380,178,l),
(380,0,l),
(403,0,l),
(403,329,ls),
(405,431,o),
(334,477,o),
(237,477,cs),
(157,477,o),
(111,445,o),
(71,397,c),
(87,384,l),
(130,431,o),
(170,455,o),
(237,455,cs),
(328,455,o),
(380,416,o),
(380,325,cs),
(380,252,l),
(389,259,l),
(353,266,o),
(311,271,o),
(274,271,cs),
(141,271,o),
(57,235,o),
(57,119,cs),
(57,38,o),
(129,-7,o),
(205,-7,cs)
);
},
{
closed = 1;
nodes = (
(125,18,o),
(81,70,o),
(81,126,cs),
(81,214,o),
(150,250,o),
(281,250,cs),
(315,250,o),
(348,247,o),
(380,240,c),
(380,96,o),
(313,18,o),
(200,18,cs)
);
}
);
width = 509;
},
{
anchors = (
{
name = bottom;
pos = (235,0);
},
{
name = ogonek;
pos = (308,0);
},
{
name = top;
pos = (244,472);
}
);
layerId = "0BE882A4-FC89-4865-8E81-154FB3EE808B";
shapes = (
{
closed = 1;
nodes = (
(274,-5,o),
(313,31,o),
(315,74,c),
(310,93,l),
(310,0,l),
(439,0,l),
(439,298,ls),
(441,409,o),
(352,477,o),
(230,477,cs),
(145,477,o),
(78,438,o),
(39,383,c),
(126,304,l),
(154,343,o),
(187,360,o),
(230,360,cs),
(285,360,o),
(311,339,o),
(311,304,cs),
(310,251,l),
(329,288,l),
(309,296,o),
(267,304,o),
(230,304,cs),
(118,304,o),
(30,252,o),
(30,144,cs),
(30,60,o),
(91,-5,o),
(206,-5,cs)
);
},
{
closed = 1;
nodes = (
(177,114,o),
(160,131,o),
(160,152,cs),
(160,191,o),
(193,207,o),
(253,207,cs),
(274,207,o),
(294,204,o),
(311,199,c),
(310,147,o),
(272,114,o),
(212,114,cs)
);
}
);
width = 487;
},
{
anchors = (
{
name = bottom;
pos = (232,0);
},
{
name = ogonek;
pos = (304,0);
},
{
name = top;
pos = (244,472);
}
);
layerId = "9C2CFEA6-85BB-4338-BB26-B1BEA40B5780";
shapes = (
{
closed = 1;
nodes = (
(271,-5,o),
(307,25,o),
(309,66,c),
(304,85,l),
(304,0,l),
(444,0,l),
(444,295,ls),
(444,408,o),
(357,477,o),
(230,477,cs),
(145,477,o),
(76,437,o),
(36,382,c),
(131,296,l),
(158,333,o),
(190,351,o),
(230,351,cs),
(281,351,o),
(304,331,o),
(304,302,cs),
(304,255,l),
(320,292,l),
(299,300,o),
(262,307,o),
(227,307,cs),
(116,307,o),
(29,254,o),
(29,147,cs),
(29,61,o),
(88,-5,o),
(207,-5,cs)
);
},
{
closed = 1;
nodes = (
(185,124,o),
(168,138,o),
(168,155,cs),
(168,188,o),
(198,204,o),
(251,204,cs),
(270,204,o),
(288,201,o),
(304,195,c),
(304,154,o),
(269,124,o),
(214,124,cs)
);
}
);
width = 487;
}
);
note = a;
unicode = 97;
},
{
glyphname = b;
kernLeft = b;
kernRight = b;
lastChange = "2025-02-14 16:17:50 +0000";
layers = (
{
anchors = (
{
name = bottom;
pos = (277,0);
},
{
name = center;
pos = (141,744);
},
{
name = top;
pos = (277,472);
}
);
layerId = m01;
shapes = (
{
closed = 1;
nodes = (
(62,1,l),
(128,1,l),
(128,67,l),
(161,19,o),
(210,-5,o),
(275,-5,cs),
(428,-5,o),
(515,121,o),
(515,236,cs),
(515,373,o),
(413,478,o),
(280,478,cs),
(213,478,o),
(163,456,o),
(128,405,c),
(128,661,l),
(62,661,l)
);
},
{
closed = 1;
nodes = (
(380,417,o),
(449,337,o),
(449,236,cs),
(449,136,o),
(374,55,o),
(275,55,cs),
(199,55,o),
(147,96,o),
(128,147,c),
(128,324,l),
(149,376,o),
(205,417,o),
(280,417,cs)
);
}
);
width = 553;
},
{
anchors = (
{
name = bottom;
pos = (275,0);
},
{
name = center;
pos = (144,744);
},
{
name = top;
pos = (275,472);
}
);
layerId = "4DE8B86A-429B-4593-9BC8-49866BB1A430";
shapes = (
{
closed = 1;
nodes = (
(70,1,l),
(94,1,l),
(94,93,l),
(135,28,o),
(194,-5,o),
(271,-5,cs),
(404,-5,o),
(504,104,o),
(504,236,cs),
(504,374,o),
(404,478,o),
(278,478,cs),
(198,478,o),
(136,448,o),
(93,377,c),
(94,661,l),
(70,661,l)
);
},
{
closed = 1;
nodes = (
(393,457,o),
(481,363,o),
(481,236,cs),
(481,115,o),
(389,16,o),
(271,16,cs),
(182,16,o),
(117,70,o),
(93,133,c),
(94,338,l),
(118,405,o),
(190,457,o),
(278,457,cs)
);
}
);
width = 549;
},
{
anchors = (
{
name = bottom;
pos = (291,0);
},
{
name = center;
pos = (148,744);
},
{
name = top;
pos = (291,472);
}
);
layerId = "0BE882A4-FC89-4865-8E81-154FB3EE808B";
shapes = (
{
closed = 1;
nodes = (
(62,1,l),
(192,1,l),
(192,27,l),
(212,6,o),
(245,-5,o),
(292,-5,cs),
(430,-5,o),
(543,94,o),
(543,236,cs),
(543,371,o),
(443,478,o),
(296,478,cs),
(249,478,o),
(217,468,o),
(192,447,c),
(192,661,l),
(62,661,l)
);
},
{
closed = 1;
nodes = (
(365,358,o),
(414,306,o),
(414,236,cs),
(414,164,o),
(361,115,o),
(292,115,cs),
(236,115,o),
(204,137,o),
(192,166,c),
(192,302,l),
(207,334,o),
(243,358,o),
(296,358,cs)
);
}
);
width = 581;
},
{
anchors = (
{
name = bottom;
pos = (293,0);
},
{
name = center;
pos = (149,744);
},
{
name = top;
pos = (293,472);
}
);
layerId = "9C2CFEA6-85BB-4338-BB26-B1BEA40B5780";
shapes = (
{
closed = 1;
nodes = (
(62,1,l),
(202,1,l),
(202,21,l),
(221,4,o),
(252,-5,o),
(295,-5,cs),
(433,-5,o),
(548,95,o),
(548,236,cs),
(548,378,o),
(439,478,o),
(299,478,cs),
(255,478,o),
(226,470,o),
(202,454,c),
(202,661,l),
(62,661,l)
);
},
{
closed = 1;
nodes = (
(364,348,o),
(409,299,o),
(409,236,cs),
(409,169,o),
(360,124,o),
(295,124,cs),
(243,124,o),
(214,142,o),
(202,169,c),
(202,299,l),
(215,327,o),
(248,348,o),
(299,348,cs)
);
}
);
width = 586;
}
);
note = b;
unicode = 98;
},
{
glyphname = c;
kernLeft = c;
kernRight = c;
lastChange = "2025-02-14 16:17:50 +0000";
layers = (
{
anchors = (
{
name = bottom;
pos = (285,0);
},
{
name = top;
pos = (285,472);
}
);
layerId = m01;
shapes = (
{
closed = 1;
nodes = (
(374,-6,o),
(438,32,o),
(477,88,c),
(427,128,l),
(399,83,o),
(357,55,o),
(286,55,cs),
(179,55,o),
(104,126,o),
(104,237,cs),
(104,342,o),
(178,417,o),
(286,417,cs),
(347,417,o),
(401,387,o),
(422,340,c),
(471,383,l),
(439,443,o),
(362,477,o),
(286,477,cs),
(144,477,o),
(38,378,o),
(38,237,cs),
(38,91,o),
(145,-6,o),
(286,-6,cs)
);
}
);
width = 511;
},
{
anchors = (
{
name = bottom;
pos = (285,0);
},
{
name = top;
pos = (285,472);
}
);
layerId = "4DE8B86A-429B-4593-9BC8-49866BB1A430";
shapes = (
{
closed = 1;
nodes = (
(366,-6,o),
(424,27,o),
(461,76,c),
(442,91,l),
(406,46,o),
(369,16,o),
(286,16,cs),
(155,16,o),
(69,109,o),
(69,238,cs),
(69,370,o),
(162,456,o),
(286,456,cs),
(359,456,o),
(416,420,o),
(435,371,c),
(457,384,l),
(429,449,o),
(355,477,o),
(286,477,cs),
(155,477,o),
(45,387,o),
(45,238,cs),
(45,83,o),
(154,-6,o),
(286,-6,cs)
);
}
);
width = 501;
},
{
anchors = (
{
name = bottom;
pos = (295,0);
},
{
name = top;
pos = (295,472);
}
);
layerId = "0BE882A4-FC89-4865-8E81-154FB3EE808B";
shapes = (
{
closed = 1;
nodes = (
(396,-6,o),
(472,38,o),
(512,105,c),
(416,183,l),
(393,136,o),
(352,113,o),
(296,113,cs),
(219,113,o),
(167,163,o),
(167,236,cs),
(167,305,o),
(219,357,o),
(296,357,cs),
(341,357,o),
(390,336,o),
(411,295,c),
(502,381,l),
(463,437,o),
(383,477,o),
(296,477,cs),
(146,477,o),
(38,372,o),
(38,236,cs),
(38,95,o),
(149,-6,o),
(296,-6,cs)
);
}
);
width = 546;
},
{
anchors = (
{
name = bottom;
pos = (297,0);
},
{
name = top;
pos = (297,472);
}
);
layerId = "9C2CFEA6-85BB-4338-BB26-B1BEA40B5780";
shapes = (
{
closed = 1;
nodes = (
(399,-6,o),
(478,40,o),
(518,108,c),
(414,192,l),
(391,144,o),
(351,123,o),
(298,123,cs),
(225,123,o),
(178,167,o),
(178,236,cs),
(178,301,o),
(228,348,o),
(298,348,cs),
(341,348,o),
(387,328,o),
(410,288,c),
(508,381,l),
(467,436,o),
(386,477,o),
(298,477,cs),
(151,477,o),
(38,375,o),
(38,236,cs),
(38,101,o),
(143,-6,o),
(298,-6,cs)
);
}
);
width = 552;
}
);
note = c;
unicode = 99;
},
{
glyphname = d;
kernLeft = d;
kernRight = l;
lastChange = "2025-02-14 16:17:50 +0000";
layers = (
{
anchors = (
{
name = bottom;
pos = (277,0);
},
{
name = center;
pos = (412,744);
},
{
name = top;
pos = (277,472);
},
{
name = topright;
pos = (528,930);
}
);
layerId = m01;
shapes = (
{
closed = 1;
nodes = (
(426,660,l),
(426,405,l),
(390,456,o),
(340,477,o),
(273,477,cs),
(139,477,o),
(38,374,o),
(38,236,cs),
(38,93,o),
(153,-6,o),
(278,-6,cs),
(343,-6,o),
(393,18,o),
(426,67,c),
(426,0,l),
(492,0,l),
(492,660,l)
);
},
{
closed = 1;
nodes = (
(348,417,o),
(403,376,o),
(426,323,c),
(426,146,l),
(406,95,o),
(354,55,o),
(278,55,cs),
(183,55,o),
(104,130,o),
(104,236,cs),
(104,337,o),
(173,417,o),
(273,417,cs)
);
}
);
width = 553;
},
{
anchors = (
{
name = bottom;
pos = (274,0);
},
{
name = center;
pos = (405,744);
},
{
name = top;
pos = (274,472);
},
{
name = topright;
pos = (516,930);
}
);
layerId = "4DE8B86A-429B-4593-9BC8-49866BB1A430";
shapes = (
{
closed = 1;
nodes = (
(457,660,l),
(457,377,l),
(413,448,o),
(351,477,o),
(271,477,cs),
(146,477,o),
(45,373,o),
(45,236,cs),
(45,101,o),
(151,-6,o),
(278,-6,cs),
(355,-6,o),
(415,27,o),
(456,93,c),
(457,0,l),
(480,0,l),
(480,660,l)
);
},
{
closed = 1;
nodes = (
(360,456,o),
(431,403,o),
(456,338,c),
(457,133,l),
(432,69,o),
(367,15,o),
(278,15,cs),
(147,15,o),
(69,131,o),
(69,236,cs),
(69,363,o),
(157,456,o),
(271,456,cs)
);
}
);
width = 549;
},
{
anchors = (
{
name = bottom;
pos = (291,0);
},
{
name = center;
pos = (433,744);
},
{
name = top;
pos = (291,472);
},
{
name = topright;
pos = (556,930);
}
);
layerId = "0BE882A4-FC89-4865-8E81-154FB3EE808B";
shapes = (
{
closed = 1;
nodes = (
(390,660,l),
(390,447,l),
(365,468,o),
(332,477,o),
(285,477,cs),
(146,477,o),
(38,377,o),
(38,236,cs),
(38,99,o),
(146,-6,o),
(290,-6,cs),
(337,-6,o),
(370,5,o),
(390,27,c),
(390,0,l),
(520,0,l),
(520,660,l)
);
},
{
closed = 1;
nodes = (
(340,357,o),
(375,334,o),
(390,302,c),
(390,166,l),
(377,135,o),
(345,114,o),
(290,114,cs),
(219,114,o),
(167,166,o),
(167,236,cs),
(167,305,o),
(215,357,o),
(285,357,cs)
);
}
);
width = 581;
},
{
anchors = (
{
name = bottom;
pos = (293,0);
},
{
name = center;
pos = (437,744);
},
{
name = top;
pos = (293,472);
},
{
name = topright;
pos = (561,930);
}
);
layerId = "9C2CFEA6-85BB-4338-BB26-B1BEA40B5780";
shapes = (
{
closed = 1;
nodes = (
(385,660,l),
(385,454,l),
(360,470,o),
(331,477,o),
(287,477,cs),
(141,477,o),
(38,371,o),
(38,236,cs),
(38,99,o),
(147,-6,o),
(292,-6,cs),
(335,-6,o),
(365,3,o),
(384,21,c),
(385,0,l),
(525,0,l),
(525,660,l)
);
},
{
closed = 1;
nodes = (
(338,347,o),
(371,326,o),
(384,298,c),
(385,169,l),
(372,141,o),
(344,124,o),
(292,124,cs),
(225,124,o),
(178,169,o),
(178,236,cs),
(178,300,o),
(221,347,o),
(287,347,cs)
);
}
);
width = 586;
}
);
note = d;
unicode = 100;
},
{
glyphname = dcroat;
kernLeft = d;
kernRight = l;
lastChange = "2025-02-14 16:17:50 +0000";
layers = (
{
layerId = m01;
shapes = (
{
closed = 1;
nodes = (
(426,660,l),
(426,405,l),
(390,456,o),
(340,477,o),
(273,477,cs),
(139,477,o),
(38,374,o),
(38,236,cs),
(38,93,o),
(153,-6,o),
(278,-6,cs),
(343,-6,o),
(393,18,o),
(426,67,c),
(426,0,l),
(492,0,l),
(492,660,l)
);
},
{
closed = 1;
nodes = (
(348,417,o),
(403,376,o),
(426,323,c),
(426,146,l),
(406,95,o),
(354,55,o),
(278,55,cs),
(183,55,o),
(104,130,o),
(104,236,cs),
(104,337,o),
(173,417,o),
(273,417,cs)
);
},
{
closed = 1;
nodes = (
(283,531,l),
(565,531,l),
(565,597,l),
(283,597,l)
);
}
);
width = 553;
},
{
layerId = "4DE8B86A-429B-4593-9BC8-49866BB1A430";
shapes = (
{
closed = 1;
nodes = (
(457,660,l),
(457,377,l),
(413,448,o),
(351,477,o),
(271,477,cs),
(146,477,o),
(45,373,o),
(45,236,cs),
(45,101,o),
(151,-6,o),
(278,-6,cs),
(355,-6,o),
(415,27,o),
(456,93,c),
(457,0,l),
(480,0,l),
(480,660,l)
);
},
{
closed = 1;
nodes = (
(360,456,o),
(431,403,o),
(456,338,c),
(457,133,l),
(432,69,o),
(367,15,o),
(278,15,cs),
(147,15,o),
(69,131,o),
(69,236,cs),
(69,363,o),
(157,456,o),
(271,456,cs)
);
},
{
closed = 1;
nodes = (
(332,551,l),
(554,551,l),
(554,574,l),
(332,574,l)
);
}
);
width = 545;
},
{
layerId = "0BE882A4-FC89-4865-8E81-154FB3EE808B";
shapes = (
{
closed = 1;
nodes = (
(390,660,l),
(390,447,l),
(365,468,o),
(332,477,o),
(285,477,cs),
(146,477,o),
(38,377,o),
(38,236,cs),
(38,99,o),
(146,-6,o),
(290,-6,cs),
(337,-6,o),
(370,5,o),
(390,27,c),
(390,0,l),
(520,0,l),
(520,660,l)
);
},
{
closed = 1;
nodes = (
(340,357,o),
(375,334,o),
(390,302,c),
(390,166,l),
(377,135,o),
(345,114,o),
(290,114,cs),
(219,114,o),
(167,166,o),
(167,236,cs),
(167,305,o),
(215,357,o),
(285,357,cs)
);
},
{
closed = 1;
nodes = (
(222,496,l),
(593,496,l),
(593,631,l),
(222,631,l)
);
}
);
width = 581;
},
{
layerId = "9C2CFEA6-85BB-4338-BB26-B1BEA40B5780";
shapes = (
{
closed = 1;
nodes = (
(385,660,l),
(385,454,l),
(360,470,o),
(331,477,o),
(287,477,cs),
(141,477,o),
(38,371,o),
(38,236,cs),
(38,99,o),
(147,-6,o),
(292,-6,cs),
(335,-6,o),
(365,3,o),
(384,21,c),
(385,0,l),
(525,0,l),
(525,660,l)
);
},
{
closed = 1;
nodes = (
(338,347,o),
(371,326,o),
(384,298,c),
(385,169,l),
(372,141,o),
(344,124,o),
(292,124,cs),
(225,124,o),
(178,169,o),
(178,236,cs),
(178,300,o),
(221,347,o),
(287,347,cs)
);
},
{
closed = 1;
nodes = (
(204,490,l),
(601,490,l),
(601,637,l),
(204,637,l)
);
}
);
width = 586;
}
);
note = dcroat;
unicode = 273;
},
{
glyphname = eth;
kernLeft = c;
kernRight = eth;
lastChange = "2025-02-14 16:17:50 +0000";
layers = (
{
layerId = m01;
shapes = (
{
closed = 1;
nodes = (
(402,-30,o),
(510,94,o),
(510,241,cs),
(510,560,o),
(326,788,o),
(65,788,c),
(65,728,l),
(256,728,o),
(392,595,o),
(435,400,c),
(471,359,l),
(421,481,o),
(351,514,o),
(272,514,cs),
(141,514,o),
(35,390,o),
(35,241,cs),
(35,81,o),
(153,-30,o),
(272,-30,cs)
);
},
{
closed = 1;
nodes = (
(178,30,o),
(101,124,o),
(101,241,cs),
(101,355,o),
(176,454,o),
(272,454,cs),
(381,454,o),
(443,366,o),
(443,241,cs),
(443,122,o),
(366,30,o),
(272,30,cs)
);
},
{
closed = 1;
nodes = (
(192,546,l),
(404,758,l),
(370,793,l),
(158,581,l)
);
}
);
width = 576;
},
{
layerId = "4DE8B86A-429B-4593-9BC8-49866BB1A430";
shapes = (
{
closed = 1;
nodes = (
(411,-36,o),
(508,90,o),
(508,231,cs),
(508,571,o),
(318,781,o),
(83,795,c),
(82,772,l),
(316,755,o),
(443,559,o),
(473,361,c),
(487,349,l),
(458,437,o),
(372,500,o),
(279,500,cs),
(152,500,o),
(51,377,o),
(51,231,cs),
(51,68,o),
(170,-36,o),
(279,-36,cs)
);
},
{
closed = 1;
nodes = (
(171,-12,o),
(74,90,o),
(74,231,cs),
(74,366,o),
(166,477,o),
(279,477,cs),
(369,477,o),
(485,414,o),
(485,231,cs),
(485,95,o),
(390,-12,o),
(279,-12,cs)
);
},
{
closed = 1;
nodes = (
(261,577,l),
(454,770,l),
(440,784,l),
(247,591,l)
);
}
);
width = 592;
},
{
layerId = "0BE882A4-FC89-4865-8E81-154FB3EE808B";
shapes = (
{
closed = 1;
nodes = (
(416,-22,o),
(522,89,o),
(522,286,cs),
(522,564,o),
(345,802,o),
(49,778,c),
(49,653,l),
(180,668,o),
(325,602,o),
(387,418,c),
(484,384,l),
(423,503,o),
(353,535,o),
(272,535,cs),
(132,535,o),
(23,427,o),
(23,256,cs),
(23,69,o),
(150,-22,o),
(272,-22,cs)
);
},
{
closed = 1;
nodes = (
(214,103,o),
(157,147,o),
(157,256,cs),
(157,355,o),
(208,410,o),
(272,410,cs),
(330,410,o),
(387,366,o),
(387,256,cs),
(387,158,o),
(337,103,o),
(272,103,cs)
);
},
{
closed = 1;
nodes = (
(184,540,l),
(411,768,l),
(354,825,l),
(127,597,l)
);
}
);
width = 576;
},
{
layerId = "9C2CFEA6-85BB-4338-BB26-B1BEA40B5780";
shapes = (
{
closed = 1;
nodes = (
(417,-20,o),
(524,85,o),
(524,321,cs),
(524,590,o),
(332,802,o),
(46,776,c),
(46,640,l),
(167,658,o),
(312,622,o),
(377,428,c),
(486,371,l),
(423,498,o),
(348,538,o),
(272,538,cs),
(130,538,o),
(21,408,o),
(21,259,cs),
(21,88,o),
(151,-20,o),
(272,-20,cs)
);
},
{
closed = 1;
nodes = (
(220,115,o),
(166,163,o),
(166,259,cs),
(166,359,o),
(217,403,o),
(272,403,cs),
(325,403,o),
(377,366,o),
(377,259,cs),
(377,163,o),
(334,115,o),
(272,115,cs)
);
},
{
closed = 1;
nodes = (
(166,543,l),
(398,775,l),
(334,840,l),
(102,608,l)
);
}
);
width = 576;
}
);
note = eth;
unicode = 240;
},
{
glyphname = e;
kernLeft = c;
kernRight = ae;
lastChange = "2025-02-14 16:17:50 +0000";
layers = (
{
anchors = (
{
name = bottom;
pos = (301,0);
},
{
name = ogonek;
pos = (266,0);
},
{
name = top;
pos = (257,472);
}
);
layerId = m01;
shapes = (
{
closed = 1;
nodes = (
(72,223,l),
(475,223,l),
(501,370,o),
(414,484,o),
(266,484,cs),
(126,484,o),
(38,387,o),
(38,245,cs),
(38,99,o),
(126,-9,o),
(277,-9,cs),
(403,-9,o),
(463,72,o),
(477,102,c),
(427,141,l),
(403,86,o),
(356,51,o),
(277,51,cs),
(173,51,o),
(104,123,o),
(104,245,cs),
(104,367,o),
(174,429,o),
(266,429,cs),
(368,429,o),
(423,361,o),
(409,256,c),
(427,275,l),
(72,275,l)
);
}
);
width = 513;
},
{
anchors = (
{
name = bottom;
pos = (290,0);
},
{
name = ogonek;
pos = (255,0);
},
{
name = top;
pos = (258,472);
}
);
layerId = "4DE8B86A-429B-4593-9BC8-49866BB1A430";
shapes = (
{
closed = 1;
nodes = (
(62,234,l),
(470,234,l),
(492,314,o),
(458,484,o),
(270,484,cs),
(132,484,o),
(47,386,o),
(47,247,cs),
(47,99,o),
(136,-8,o),
(278,-8,cs),
(407,-8,o),
(458,71,o),
(470,103,c),
(451,116,l),
(422,55,o),
(365,14,o),
(278,14,cs),
(159,14,o),
(72,105,o),
(72,247,cs),
(72,404,o),
(183,464,o),
(270,464,cs),
(390,464,o),
(464,380,o),
(450,245,c),
(455,256,l),
(62,256,l)
);
}
);
width = 512;
},
{
anchors = (
{
name = bottom;
pos = (301,0);
},
{
name = ogonek;
pos = (266,0);
},
{
name = top;
pos = (268,472);
}
);
layerId = "0BE882A4-FC89-4865-8E81-154FB3EE808B";
shapes = (
{
closed = 1;
nodes = (
(100,206,l),
(497,206,l),
(527,426,o),
(389,484,o),
(274,484,cs),
(130,484,o),
(38,389,o),
(38,242,cs),
(38,79,o),
(149,-10,o),
(288,-10,cs),
(393,-10,o),
(462,35,o),
(502,101,c),
(404,180,l),
(391,133,o),
(357,106,o),
(288,106,cs),
(210,106,o),
(166,148,o),
(166,242,cs),
(166,333,o),
(199,377,o),
(274,377,cs),
(349,377,o),
(373,335,o),
(361,273,c),
(399,303,l),
(100,303,l)
);
}
);
width = 536;
},
{
anchors = (
{
name = bottom;
pos = (311,0);
},
{
name = ogonek;
pos = (276,0);
},
{
name = top;
pos = (270,472);
}
);
layerId = "9C2CFEA6-85BB-4338-BB26-B1BEA40B5780";
shapes = (
{
closed = 1;
nodes = (
(105,203,l),
(500,203,l),
(532,439,o),
(384,484,o),
(275,484,cs),
(130,484,o),
(38,389,o),
(38,242,cs),
(38,73,o),
(155,-10,o),
(290,-10,cs),
(392,-10,o),
(464,31,o),
(506,101,c),
(401,186,l),
(388,142,o),
(358,115,o),
(290,115,cs),
(217,115,o),
(177,152,o),
(177,242,cs),
(177,329,o),
(203,369,o),
(275,369,cs),
(345,369,o),
(368,333,o),
(353,276,c),
(394,308,l),
(105,308,l)
);
}
);
width = 539;
}
);
note = e;
unicode = 101;
},
{
glyphname = f;
kernLeft = f;
kernRight = f;
lastChange = "2025-02-14 16:17:50 +0000";
layers = (
{
anchors = (
{
name = bottom;
pos = (167,0);
},
{
name = top;
pos = (167,930);
}
);
layerId = m01;
shapes = (
{
closed = 1;
nodes = (
(168,0,l),
(168,411,l),
(303,411,l),
(303,472,l),
(168,472,l),
(168,538,ls),
(168,589,o),
(185,616,o),
(228,616,cs),
(253,616,o),
(276,604,o),
(296,581,c),
(330,629,l),
(310,658,o),
(268,674,o),
(223,674,cs),
(136,674,o),
(102,623,o),
(102,538,cs),
(102,472,l),
(13,472,l),
(13,411,l),
(102,411,l),
(102,0,l)
);
}
);
width = 334;
},
{
anchors = (
{
name = bottom;
pos = (157,0);
},
{
name = top;
pos = (157,930);
}
);
layerId = "4DE8B86A-429B-4593-9BC8-49866BB1A430";
shapes = (
{
closed = 1;
nodes = (
(135,0,l),
(135,451,l),
(283,451,l),
(283,472,l),
(135,472,l),
(135,556,ls),
(135,620,o),
(156,654,o),
(215,654,cs),
(246,654,o),
(272,643,o),
(293,621,c),
(308,637,l),
(297,658,o),
(261,677,o),
(217,677,cs),
(145,677,o),
(112,637,o),
(112,556,cs),
(112,472,l),
(14,472,l),
(14,451,l),
(112,451,l),
(112,0,l)
);
}
);
width = 313;
},
{
anchors = (
{
name = bottom;
pos = (191,0);
},
{
name = top;
pos = (191,930);
}
);
layerId = "0BE882A4-FC89-4865-8E81-154FB3EE808B";
shapes = (
{
closed = 1;
nodes = (
(225,0,l),
(225,352,l),
(340,352,l),
(340,472,l),
(225,472,l),
(225,511,ls),
(225,543,o),
(238,557,o),
(255,557,cs),
(273,557,o),
(291,545,o),
(310,520,c),
(371,616,l),
(336,656,o),
(291,670,o),
(239,670,cs),
(130,670,o),
(96,603,o),
(96,511,cs),
(95,472,l),
(19,472,l),
(19,352,l),
(95,352,l),
(95,0,l)
);
}
);
width = 381;
},
{
anchors = (
{
name = bottom;
pos = (195,0);
},
{
name = top;
pos = (195,930);
}
);
layerId = "9C2CFEA6-85BB-4338-BB26-B1BEA40B5780";
shapes = (
{
closed = 1;
nodes = (
(234,0,l),
(234,342,l),
(346,342,l),
(346,472,l),
(234,472,l),
(234,506,ls),
(234,537,o),
(247,548,o),
(260,548,cs),
(277,548,o),
(294,535,o),
(311,509,c),
(377,614,l),
(341,655,o),
(294,670,o),
(242,670,cs),
(129,670,o),
(95,601,o),
(95,506,cs),
(94,472,l),
(20,472,l),
(20,342,l),
(94,342,l),
(94,0,l)
);
}
);
width = 389;
}
);
note = f;
unicode = 102;
},
{
glyphname = g;
kernLeft = g;
kernRight = g;
lastChange = "2025-02-14 16:17:50 +0000";
layers = (
{
anchors = (
{
name = bottom;
pos = (270,-275);
},
{
name = top;
pos = (270,472);
}
);
layerId = m01;
shapes = (
{
closed = 1;
nodes = (
(386,409,l),
(495,393,l),
(506,467,l),
(328,456,l)
);
},
{
closed = 1;
nodes = (
(204,195,o),
(156,243,o),
(156,306,cs),
(156,371,o),
(203,417,o),
(261,417,cs),
(320,417,o),
(368,372,o),
(368,306,cs),
(368,240,o),
(317,195,o),
(261,195,cs)
);
},
{
closed = 1;
nodes = (
(136,2,l),
(76,-25,o),
(36,-77,o),
(36,-141,cs),
(36,-225,o),
(107,-288,o),
(241,-288,cs),
(428,-288,o),
(500,-198,o),
(500,-101,cs),
(500,-22,o),
(456,16,o),
(392,29,cs),
(360,35,o),
(320,38,o),
(273,38,cs),
(202,37,ls),
(139,37,o),
(102,51,o),
(102,94,cs),
(102,134,o),
(128,150,o),
(154,153,cs),
(166,155,o),
(177,153,o),
(186,150,cs),
(218,138,o),
(236,135,o),
(261,135,cs),
(358,135,o),
(434,211,o),
(434,306,cs),
(434,401,o),
(356,477,o),
(261,477,cs),
(172,477,o),
(90,406,o),
(90,306,cs),
(90,254,o),
(113,208,o),
(150,175,c),
(183,188,l),
(96,199,o),
(42,147,o),
(42,86,cs),
(42,23,o),
(84,-7,o),
(143,-15,cs),
(172,-20,o),
(209,-22,o),
(252,-23,cs),
(285,-23,ls),
(385,-23,o),
(435,-40,o),
(435,-105,cs),
(435,-186,o),
(361,-227,o),
(242,-227,cs),
(137,-227,o),
(95,-181,o),
(96,-117,cs),
(96,-69,o),
(137,-26,o),
(179,-16,c)
);
}
);
width = 539;
},
{
anchors = (
{
name = bottom;
pos = (275,-275);
},
{
name = top;
pos = (275,472);
}
);
layerId = "4DE8B86A-429B-4593-9BC8-49866BB1A430";
shapes = (
{
closed = 1;
nodes = (
(372,436,l),
(484,422,l),
(498,466,l),
(338,454,l)
);
},
{
closed = 1;
nodes = (
(192,169,o),
(129,232,o),
(129,313,cs),
(129,397,o),
(192,456,o),
(268,456,cs),
(346,456,o),
(409,396,o),
(409,313,cs),
(409,230,o),
(346,169,o),
(268,169,cs)
);
},
{
closed = 1;
nodes = (
(150,14,l),
(89,-15,o),
(52,-69,o),
(52,-136,cs),
(52,-237,o),
(137,-289,o),
(249,-289,cs),
(428,-289,o),
(499,-191,o),
(499,-108,cs),
(499,-33,o),
(460,2,o),
(400,14,cs),
(370,19,o),
(330,22,o),
(281,22,cs),
(208,21,ls),
(141,21,o),
(95,38,o),
(95,91,cs),
(95,138,o),
(123,163,o),
(155,169,cs),
(170,172,o),
(183,171,o),
(192,166,c),
(233,150,o),
(244,147,o),
(268,147,cs),
(364,147,o),
(433,225,o),
(433,313,cs),
(433,404,o),
(359,477,o),
(268,477,cs),
(183,477,o),
(105,409,o),
(105,313,cs),
(105,258,o),
(130,211,o),
(171,178,c),
(186,181,l),
(96,188,o),
(70,121,o),
(70,88,cs),
(70,29,o),
(117,4,o),
(169,-1,cs),
(194,-4,o),
(224,-5,o),
(258,-4,cs),
(278,-4,ls),
(413,-4,o),
(473,-23,o),
(473,-103,cs),
(473,-210,o),
(380,-266,o),
(249,-266,cs),
(121,-266,o),
(73,-203,o),
(74,-120,cs),
(76,-68,o),
(116,-14,o),
(175,2,c)
);
}
);
width = 549;
},
{
anchors = (
{
name = bottom;
pos = (273,-275);
},
{
name = top;
pos = (273,472);
}
);
layerId = "0BE882A4-FC89-4865-8E81-154FB3EE808B";
shapes = (
{
closed = 1;
nodes = (
(417,368,l),
(522,350,l),
(529,468,l),
(323,459,l)
);
},
{
closed = 1;
nodes = (
(231,235,o),
(207,257,o),
(207,296,cs),
(207,335,o),
(231,357,o),
(261,357,cs),
(292,357,o),
(317,335,o),
(317,296,cs),
(317,257,o),
(292,235,o),
(261,235,cs)
);
},
{
closed = 1;
nodes = (
(126,-16,l),
(69,-39,o),
(24,-88,o),
(24,-147,cs),
(24,-262,o),
(147,-287,o),
(240,-287,cs),
(417,-287,o),
(512,-224,o),
(512,-90,cs),
(512,-5,o),
(459,38,o),
(390,52,cs),
(355,59,o),
(316,62,o),
(271,62,cs),
(203,61,ls),
(157,61,o),
(123,68,o),
(123,100,cs),
(123,118,o),
(137,129,o),
(157,130,cs),
(166,130,o),
(177,129,o),
(188,125,cs),
(208,120,o),
(233,116,o),
(261,116,cs),
(363,116,o),
(446,197,o),
(446,296,cs),
(446,399,o),
(361,477,o),
(261,477,cs),
(159,477,o),
(78,396,o),
(78,296,cs),
(78,249,o),
(97,204,o),
(129,172,c),
(191,192,l),
(103,219,o),
(11,178,o),
(11,83,cs),
(11,12,o),
(46,-23,o),
(114,-38,cs),
(148,-45,o),
(194,-49,o),
(252,-50,cs),
(306,-51,ls),
(353,-51,o),
(388,-67,o),
(388,-108,cs),
(388,-152,o),
(325,-170,o),
(242,-170,cs),
(171,-170,o),
(138,-148,o),
(138,-112,cs),
(138,-69,o),
(179,-43,o),
(195,-43,c)
);
}
);
width = 545;
},
{
anchors = (
{
name = bottom;
pos = (273,-275);
},
{
name = top;
pos = (273,472);
}
);
layerId = "9C2CFEA6-85BB-4338-BB26-B1BEA40B5780";
shapes = (
{
closed = 1;
nodes = (
(423,361,l),
(527,342,l),
(532,468,l),
(322,460,l)
);
},
{
closed = 1;
nodes = (
(238,241,o),
(215,261,o),
(215,294,cs),
(215,330,o),
(237,348,o),
(261,348,cs),
(287,348,o),
(309,327,o),
(309,294,cs),
(309,260,o),
(287,241,o),
(261,241,cs)
);
},
{
closed = 1;
nodes = (
(124,-19,l),
(68,-40,o),
(22,-91,o),
(22,-148,cs),
(22,-269,o),
(156,-287,o),
(240,-287,cs),
(438,-287,o),
(514,-213,o),
(514,-88,cs),
(514,-3,o),
(460,40,o),
(390,55,cs),
(355,62,o),
(315,66,o),
(271,66,cs),
(203,65,ls),
(160,65,o),
(127,70,o),
(127,101,cs),
(127,118,o),
(139,125,o),
(158,125,cs),
(167,126,o),
(177,125,o),
(188,122,cs),
(207,116,o),
(233,113,o),
(261,113,cs),
(360,113,o),
(448,190,o),
(448,294,cs),
(448,400,o),
(361,477,o),
(261,477,cs),
(159,477,o),
(76,396,o),
(76,294,cs),
(76,247,o),
(94,203,o),
(125,171,c),
(191,193,l),
(104,222,o),
(6,183,o),
(6,83,cs),
(6,11,o),
(40,-26,o),
(109,-41,cs),
(144,-49,o),
(191,-54,o),
(252,-55,cs),
(310,-56,ls),
(347,-56,o),
(380,-71,o),
(380,-108,cs),
(380,-153,o),
(297,-160,o),
(242,-160,cs),
(177,-160,o),
(146,-143,o),
(146,-111,cs),
(144,-71,o),
(185,-46,o),
(197,-48,c)
);
}
);
width = 546;
}
);
note = g;
unicode = 103;
},
{
glyphname = h;
kernLeft = b;
kernRight = h;
lastChange = "2025-02-14 16:17:50 +0000";
layers = (
{
anchors = (
{
name = bottom;
pos = (253,0);
},
{
name = center;
pos = (129,744);
},
{
name = top;
pos = (253,660);
}
);
layerId = m01;
shapes = (
{
closed = 1;
nodes = (
(118,0,l),
(118,300,l),
(129,359,o),
(190,417,o),
(261,417,cs),
(345,417,o),
(388,372,o),
(388,276,cs),
(388,0,l),
(454,0,l),
(454,277,ls),
(454,412,o),
(393,477,o),
(270,477,cs),
(200,477,o),
(139,428,o),
(118,373,c),
(118,660,l),
(52,660,l),
(52,0,l)
);
}
);
width = 506;
},
{
anchors = (
{
name = bottom;
pos = (245,0);
},
{
name = center;
pos = (129,744);
},
{
name = top;
pos = (260,660);
}
);
layerId = "4DE8B86A-429B-4593-9BC8-49866BB1A430";
shapes = (
{
closed = 1;
nodes = (
(83,0,l),
(83,299,l),
(89,386,o),
(170,456,o),
(254,456,cs),
(355,456,o),
(407,402,o),
(407,283,cs),
(407,0,l),
(431,0,l),
(431,285,ls),
(431,426,o),
(371,477,o),
(254,477,cs),
(173,477,o),
(104,412,o),
(83,348,c),
(83,660,l),
(59,660,l),
(59,0,l)
);
}
);
width = 490;
},
{
anchors = (
{
name = bottom;
pos = (276,0);
},
{
name = center;
pos = (140,744);
},
{
name = top;
pos = (253,660);
}
);
layerId = "0BE882A4-FC89-4865-8E81-154FB3EE808B";
shapes = (
{
closed = 1;
nodes = (
(181,0,l),
(181,301,l),
(200,339,o),
(243,357,o),
(280,357,cs),
(339,357,o),
(370,327,o),
(370,266,cs),
(370,0,l),
(499,0,l),
(499,266,ls),
(499,390,o),
(436,477,o),
(304,477,cs),
(246,477,o),
(201,448,o),
(181,411,c),
(181,660,l),
(52,660,l),
(52,0,l)
);
}
);
width = 551;
},
{
anchors = (
{
name = bottom;
pos = (280,0);
},
{
name = center;
pos = (142,744);
},
{
name = top;
pos = (284,660);
}
);
layerId = "9C2CFEA6-85BB-4338-BB26-B1BEA40B5780";
shapes = (
{
closed = 1;
nodes = (
(192,0,l),
(192,301,l),
(210,335,o),
(250,348,o),
(284,348,cs),
(339,348,o),
(367,320,o),
(367,264,cs),
(367,0,l),
(507,0,l),
(507,264,ls),
(507,387,o),
(443,477,o),
(310,477,cs),
(255,477,o),
(209,453,o),
(192,418,c),
(192,660,l),
(52,660,l),
(52,0,l)
);
}
);
width = 559;
}
);
note = h;
unicode = 104;
},
{
glyphname = hbar;
kernLeft = h;
kernRight = h;
lastChange = "2025-02-14 16:17:50 +0000";
layers = (
{
layerId = m01;
shapes = (
{
closed = 1;
nodes = (
(118,0,l),
(118,300,l),
(129,359,o),
(190,417,o),
(261,417,cs),
(345,417,o),
(388,372,o),
(388,276,cs),
(388,0,l),
(454,0,l),
(454,277,ls),
(454,412,o),
(393,477,o),
(270,477,cs),
(200,477,o),
(139,428,o),
(118,373,c),
(118,660,l),
(52,660,l),
(52,0,l)
);
},
{
closed = 1;
nodes = (
(4,531,l),
(286,531,l),
(286,597,l),
(4,597,l)
);
}
);
width = 506;
},
{
layerId = "4DE8B86A-429B-4593-9BC8-49866BB1A430";
shapes = (
{
closed = 1;
nodes = (
(81,0,l),
(81,299,l),
(87,386,o),
(168,456,o),
(252,456,cs),
(353,456,o),
(405,402,o),
(405,283,cs),
(405,0,l),
(429,0,l),
(429,285,ls),
(429,426,o),
(369,477,o),
(252,477,cs),
(171,477,o),
(102,412,o),
(81,348,c),
(81,660,l),
(57,660,l),
(57,0,l)
);
},
{
closed = 1;
nodes = (
(12,551,l),
(235,551,l),
(235,574,l),
(12,574,l)
);
}
);
width = 488;
},
{
layerId = "0BE882A4-FC89-4865-8E81-154FB3EE808B";
shapes = (
{
closed = 1;
nodes = (
(181,0,l),
(181,301,l),
(200,339,o),
(243,357,o),
(280,357,cs),
(339,357,o),
(370,327,o),
(370,266,cs),
(370,0,l),
(499,0,l),
(499,266,ls),
(499,390,o),
(436,477,o),
(304,477,cs),
(246,477,o),
(201,448,o),
(181,411,c),
(181,660,l),
(52,660,l),
(52,0,l)
);
},
{
closed = 1;
nodes = (
(2,508,l),
(372,508,l),
(372,616,l),
(2,616,l)
);
}
);
width = 551;
},
{
layerId = "9C2CFEA6-85BB-4338-BB26-B1BEA40B5780";
shapes = (
{
closed = 1;
nodes = (
(192,0,l),
(192,301,l),
(210,335,o),
(250,348,o),
(284,348,cs),
(339,348,o),
(367,320,o),
(367,264,cs),
(367,0,l),
(507,0,l),
(507,264,ls),
(507,387,o),
(443,477,o),
(310,477,cs),
(255,477,o),
(209,453,o),
(192,418,c),
(192,660,l),
(52,660,l),
(52,0,l)
);
},
{
closed = 1;
nodes = (
(-7,497,l),
(391,497,l),
(391,614,l),
(-7,614,l)
);
}
);
width = 559;
}
);
note = hbar;
unicode = 295;
},
{
glyphname = idotless;
kernLeft = i;
kernRight = i;
lastChange = "2025-02-14 16:17:50 +0000";
layers = (
{
anchors = (
{
name = bottom;
pos = (128,0);
},
{
name = ogonek;
pos = (94,0);
},
{
name = top;
pos = (128,472);
}
);
layerId = m01;
shapes = (
{
closed = 1;
nodes = (
(161,0,l),
(161,472,l),
(95,472,l),
(95,0,l)
);
}
);
width = 256;
},
{
anchors = (
{
name = bottom;
pos = (116,0);
},
{
name = ogonek;
pos = (103,0);
},
{
name = top;
pos = (116,472);
}
);
layerId = "4DE8B86A-429B-4593-9BC8-49866BB1A430";
shapes = (
{
closed = 1;
nodes = (
(128,0,l),
(128,472,l),
(105,472,l),
(105,0,l)
);
}
);
width = 233;
},
{
anchors = (
{
name = bottom;
pos = (140,0);
},
{
name = ogonek;
pos = (75,0);
},
{
name = top;
pos = (140,472);
}
);
layerId = "0BE882A4-FC89-4865-8E81-154FB3EE808B";
shapes = (
{
closed = 1;
nodes = (
(204,0,l),
(204,472,l),
(75,472,l),
(75,0,l)
);
}
);
width = 279;
},
{
anchors = (
{
name = bottom;
pos = (145,0);
},
{
name = ogonek;
pos = (74,0);
},
{
name = top;
pos = (145,472);
}
);
layerId = "9C2CFEA6-85BB-4338-BB26-B1BEA40B5780";
shapes = (
{
closed = 1;
nodes = (
(214,0,l),
(214,472,l),
(75,472,l),
(75,0,l)
);
}
);
width = 289;
}
);
note = dotlessi;
unicode = 305;
},
{
glyphname = jdotless;
kernLeft = j;
kernRight = ij;
lastChange = "2025-02-14 16:17:50 +0000";
layers = (
{
anchors = (
{
name = bottom;
pos = (91,-275);
},
{
name = top;
pos = (91,472);
}
);
layerId = m01;
shapes = (
{
closed = 1;
nodes = (
(-65,-192,l),
(42,-192,o),
(129,-125,o),
(129,-8,cs),
(129,472,l),
(63,472,l),
(63,-8,ls),
(63,-87,o),
(8,-132,o),
(-65,-132,c)
);
}
);
width = 182;
},
{
anchors = (
{
name = bottom;
pos = (75,-275);
},
{
name = top;
pos = (75,472);
}
);
layerId = "4DE8B86A-429B-4593-9BC8-49866BB1A430";
shapes = (
{
closed = 1;
nodes = (
(-69,-208,l),
(30,-198,o),
(96,-129,o),
(96,-28,cs),
(95,472,l),
(72,472,l),
(72,-28,ls),
(72,-119,o),
(12,-178,o),
(-68,-190,c)
);
}
);
width = 155;
},
{
anchors = (
{
name = bottom;
pos = (117,-275);
},
{
name = top;
pos = (117,472);
}
);
layerId = "0BE882A4-FC89-4865-8E81-154FB3EE808B";
shapes = (
{
closed = 1;
nodes = (
(-58,-167,l),
(58,-187,o),
(181,-118,o),
(181,21,cs),
(181,472,l),
(52,472,l),
(52,21,ls),
(52,-39,o),
(3,-63,o),
(-58,-46,c)
);
}
);
width = 234;
},
{
anchors = (
{
name = bottom;
pos = (122,-275);
},
{
name = top;
pos = (122,472);
}
);
layerId = "9C2CFEA6-85BB-4338-BB26-B1BEA40B5780";
shapes = (
{
closed = 1;
nodes = (
(-57,-164,l),
(68,-187,o),
(190,-108,o),
(190,25,cs),
(189,472,l),
(50,472,l),
(50,26,ls),
(50,-30,o),
(2,-52,o),
(-57,-32,c)
);
}
);
width = 243;
}
);
note = uni0237;
unicode = 567;
},
{
glyphname = k;
kernLeft = b;
kernRight = k;
lastChange = "2025-02-14 16:17:50 +0000";
layers = (
{
anchors = (
{
name = bottom;
pos = (233,0);
},
{
name = top;
pos = (233,930);
}
);
layerId = m01;
shapes = (
{
closed = 1;
nodes = (
(128,0,l),
(128,223,l),
(192,273,l),
(362,0,l),
(436,0,l),
(242,313,l),
(445,472,l),
(340,472,l),
(128,307,l),
(128,660,l),
(62,660,l),
(62,0,l)
);
}
);
width = 465;
},
{
anchors = (
{
name = bottom;
pos = (210,0);
},
{
name = top;
pos = (210,930);
}
);
layerId = "4DE8B86A-429B-4593-9BC8-49866BB1A430";
shapes = (
{
closed = 1;
nodes = (
(94,0,l),
(94,239,l),
(166,295,l),
(349,0,l),
(379,0,l),
(186,311,l),
(391,472,l),
(352,472,l),
(94,269,l),
(94,660,l),
(70,660,l),
(70,0,l)
);
}
);
width = 417;
},
{
anchors = (
{
name = bottom;
pos = (279,0);
},
{
name = top;
pos = (279,930);
}
);
layerId = "0BE882A4-FC89-4865-8E81-154FB3EE808B";
shapes = (
{
closed = 1;
nodes = (
(191,0,l),
(191,199,l),
(243,240,l),
(393,0,l),
(533,0,l),
(337,315,l),
(538,472,l),
(334,472,l),
(191,363,l),
(191,660,l),
(62,660,l),
(62,0,l)
);
}
);
width = 558;
},
{
anchors = (
{
name = bottom;
pos = (287,0);
},
{
name = top;
pos = (287,930);
}
);
layerId = "9C2CFEA6-85BB-4338-BB26-B1BEA40B5780";
shapes = (
{
closed = 1;
nodes = (
(202,0,l),
(202,195,l),
(251,234,l),
(399,0,l),
(549,0,l),
(353,315,l),
(554,472,l),
(333,472,l),
(202,372,l),
(202,660,l),
(62,660,l),
(62,0,l)
);
}
);
width = 574;
}
);
note = k;
unicode = 107;
},
{
glyphname = kgreenlandic;
kernLeft = b;
kernRight = k;
lastChange = "2025-02-14 16:17:50 +0000";
layers = (
{
anchors = (
{
name = bottom;
pos = (240,0);
},
{
name = top;
pos = (240,472);
}
);
layerId = m01;
shapes = (
{
closed = 1;
nodes = (
(142,0,l),
(142,280,l),
(122,207,l),
(206,273,l),
(377,0,l),
(450,0,l),
(240,338,l),
(224,288,l),
(460,472,l),
(354,472,l),
(129,296,l),
(142,284,l),
(142,472,l),
(76,472,l),
(76,0,l)
);
}
);
width = 480;
},
{
anchors = (
{
name = bottom;
pos = (219,0);
},
{
name = top;
pos = (219,472);
}
);
layerId = "4DE8B86A-429B-4593-9BC8-49866BB1A430";
shapes = (
{
closed = 1;
nodes = (
(109,0,l),
(109,290,l),
(96,229,l),
(181,295,l),
(365,0,l),
(394,0,l),
(192,326,l),
(166,284,l),
(409,472,l),
(369,472,l),
(97,259,l),
(109,249,l),
(109,472,l),
(85,472,l),
(85,0,l)
);
}
);
width = 434;
},
{
anchors = (
{
name = bottom;
pos = (286,0);
},
{
name = top;
pos = (286,472);
}
);
layerId = "0BE882A4-FC89-4865-8E81-154FB3EE808B";
shapes = (
{
closed = 1;
nodes = (
(205,0,l),
(205,264,l),
(175,175,l),
(257,240,l),
(408,0,l),
(547,0,l),
(325,356,l),
(324,294,l),
(551,472,l),
(346,472,l),
(191,352,l),
(205,336,l),
(205,472,l),
(76,472,l),
(76,0,l)
);
}
);
width = 571;
},
{
anchors = (
{
name = bottom;
pos = (294,0);
},
{
name = top;
pos = (294,472);
}
);
layerId = "9C2CFEA6-85BB-4338-BB26-B1BEA40B5780";
shapes = (
{
closed = 1;
nodes = (
(216,0,l),
(216,261,l),
(183,169,l),
(265,234,l),
(414,0,l),
(563,0,l),
(339,359,l),
(341,295,l),
(566,472,l),
(345,472,l),
(202,361,l),
(216,344,l),
(216,472,l),
(76,472,l),
(76,0,l)
);
}
);
width = 587;
}
);
note = kgreenlandic;
unicode = 312;
},
{
glyphname = l;
kernLeft = b;
kernRight = l;
lastChange = "2025-02-14 16:17:50 +0000";
layers = (
{
anchors = (
{
name = bottom;
pos = (95,0);
},
{
name = center;
pos = (95,236);
},
{
name = top;
pos = (95,655);
},
{
name = topright;
pos = (164,655);
}
);
layerId = m01;
shapes = (
{
closed = 1;
nodes = (
(128,0,l),
(128,660,l),
(62,660,l),
(62,0,l)
);
}
);
width = 189;
},
{
anchors = (
{
name = bottom;
pos = (82,0);
},
{
name = center;
pos = (82,236);
},
{
name = top;
pos = (81,662);
},
{
name = topright;
pos = (129,662);
}
);
layerId = "4DE8B86A-429B-4593-9BC8-49866BB1A430";
shapes = (
{
closed = 1;
nodes = (
(94,0,l),
(94,660,l),
(70,660,l),
(70,0,l)
);
}
);
width = 163;
},
{
anchors = (
{
name = bottom;
pos = (126,0);
},
{
name = center;
pos = (126,236);
},
{
name = top;
pos = (126,660);
},
{
name = topright;
pos = (227,660);
}
);
layerId = "0BE882A4-FC89-4865-8E81-154FB3EE808B";
shapes = (
{
closed = 1;
nodes = (
(191,0,l),
(191,660,l),
(62,660,l),
(62,0,l)
);
}
);
width = 252;
},
{
anchors = (
{
name = bottom;
pos = (137,0);
},
{
name = center;
pos = (137,236);
},
{
name = top;
pos = (137,660);
},
{
name = topright;
pos = (248,660);
}
);
layerId = "9C2CFEA6-85BB-4338-BB26-B1BEA40B5780";
shapes = (
{
closed = 1;
nodes = (
(202,0,l),
(202,660,l),
(62,660,l),
(62,0,l)
);
}
);
width = 263;
}
);
note = l;
unicode = 108;
},
{
glyphname = lslash;
kernLeft = lslash;
kernRight = lslash;
lastChange = "2025-02-14 16:17:50 +0000";
layers = (
{
layerId = m01;
shapes = (
{
closed = 1;
nodes = (
(199,0,l),
(199,331,l),
(311,382,l),
(284,438,l),
(199,399,l),
(199,660,l),
(133,660,l),
(133,369,l),
(36,324,l),
(63,270,l),
(133,302,l),
(133,0,l)
);
}
);
width = 345;
},
{
layerId = "4DE8B86A-429B-4593-9BC8-49866BB1A430";
shapes = (
{
closed = 1;
nodes = (
(179,0,l),
(179,326,l),
(302,382,l),
(286,414,l),
(179,366,l),
(179,660,l),
(155,660,l),
(155,356,l),
(51,308,l),
(68,278,l),
(155,318,l),
(155,0,l)
);
}
);
width = 359;
},
{
layerId = "0BE882A4-FC89-4865-8E81-154FB3EE808B";
shapes = (
{
closed = 1;
nodes = (
(240,0,l),
(240,339,l),
(335,382,l),
(292,473,l),
(240,449,l),
(240,660,l),
(110,660,l),
(110,389,l),
(23,348,l),
(66,258,l),
(110,278,l),
(110,0,l)
);
}
);
width = 345;
},
{
layerId = "9C2CFEA6-85BB-4338-BB26-B1BEA40B5780";
shapes = (
{
closed = 1;
nodes = (
(247,0,l),
(247,339,l),
(338,382,l),
(292,479,l),
(247,457,l),
(247,660,l),
(107,660,l),
(107,393,l),
(21,351,l),
(67,256,l),
(107,275,l),
(107,0,l)
);
}
);
width = 345;
}
);
note = lslash;
unicode = 322;
},
{
glyphname = m;
kernLeft = m;
kernRight = h;
lastChange = "2025-02-14 16:17:50 +0000";
layers = (
{
anchors = (
{
name = bottom;
pos = (421,0);
},
{
name = top;
pos = (421,472);
}
);
layerId = m01;
shapes = (
{
closed = 1;
nodes = (
(118,0,l),
(118,300,l),
(129,359,o),
(190,417,o),
(261,417,cs),
(345,417,o),
(388,372,o),
(388,276,cs),
(388,0,l),
(454,0,l),
(454,277,ls),
(454,412,o),
(393,477,o),
(270,477,cs),
(200,477,o),
(139,428,o),
(118,373,c),
(118,472,l),
(52,472,l),
(52,0,l)
);
},
{
closed = 1;
nodes = (
(434,0,l),
(454,0,l),
(454,300,l),
(464,357,o),
(523,417,o),
(596,417,cs),
(680,417,o),
(724,372,o),
(724,276,cs),
(724,0,l),
(790,0,l),
(790,277,ls),
(790,412,o),
(729,477,o),
(606,477,cs),
(531,477,o),
(478,432,o),
(453,378,cs),
(440,351,o),
(434,326,o),
(434,305,cs)
);
}
);
width = 842;
},
{
anchors = (
{
name = bottom;
pos = (419,0);
},
{
name = top;
pos = (419,472);
}
);
layerId = "4DE8B86A-429B-4593-9BC8-49866BB1A430";
shapes = (
{
closed = 1;
nodes = (
(83,0,l),
(83,299,l),
(89,386,o),
(170,456,o),
(254,456,cs),
(355,456,o),
(407,402,o),
(407,283,cs),
(407,0,l),
(431,0,l),
(431,285,ls),
(431,425,o),
(367,477,o),
(254,477,cs),
(173,477,o),
(104,412,o),
(83,348,c),
(83,472,l),
(59,472,l),
(59,0,l)
);
},
{
closed = 1;
nodes = (
(419,0,l),
(431,0,l),
(431,299,ls),
(433,384,o),
(518,456,o),
(602,456,cs),
(703,456,o),
(754,403,o),
(754,283,cs),
(755,0,l),
(779,0,l),
(779,285,ls),
(779,425,o),
(715,477,o),
(602,477,cs),
(526,477,o),
(470,434,o),
(442,380,cs),
(428,353,o),
(421,328,o),
(421,306,cs)
);
}
);
width = 838;
},
{
anchors = (
{
name = bottom;
pos = (435,0);
},
{
name = top;
pos = (435,472);
}
);
layerId = "0BE882A4-FC89-4865-8E81-154FB3EE808B";
shapes = (
{
closed = 1;
nodes = (
(181,0,l),
(181,301,l),
(200,339,o),
(243,357,o),
(280,357,cs),
(339,357,o),
(370,327,o),
(370,266,cs),
(370,0,l),
(499,0,l),
(499,266,ls),
(499,393,o),
(444,477,o),
(304,477,cs),
(246,477,o),
(201,448,o),
(181,411,c),
(181,472,l),
(52,472,l),
(52,0,l)
);
},
{
closed = 1;
nodes = (
(467,0,l),
(499,0,l),
(499,301,l),
(518,339,o),
(561,357,o),
(598,357,cs),
(657,357,o),
(688,327,o),
(688,266,cs),
(688,0,l),
(817,0,l),
(817,266,ls),
(817,393,o),
(762,477,o),
(622,477,cs),
(547,477,o),
(500,430,o),
(480,375,cs),
(469,347,o),
(464,323,o),
(464,302,cs)
);
}
);
width = 869;
},
{
anchors = (
{
name = bottom;
pos = (437,0);
},
{
name = top;
pos = (437,472);
}
);
layerId = "9C2CFEA6-85BB-4338-BB26-B1BEA40B5780";
shapes = (
{
closed = 1;
nodes = (
(192,0,l),
(192,301,l),
(210,335,o),
(250,348,o),
(284,348,cs),
(339,348,o),
(367,320,o),
(367,264,cs),
(367,0,l),
(507,0,l),
(507,264,ls),
(507,389,o),
(453,477,o),
(310,477,cs),
(255,477,o),
(209,453,o),
(192,418,c),
(192,472,l),
(52,472,l),
(52,0,l)
);
},
{
closed = 1;
nodes = (
(473,0,l),
(507,0,l),
(507,301,l),
(525,335,o),
(566,348,o),
(598,348,cs),
(653,348,o),
(682,320,o),
(682,264,cs),
(683,0,l),
(822,0,l),
(822,264,ls),
(822,389,o),
(768,477,o),
(625,477,cs),
(550,477,o),
(504,429,o),
(484,374,cs),
(473,347,o),
(468,323,o),
(469,302,cs)
);
}
);
width = 874;
}
);
note = m;
unicode = 109;
},
{
glyphname = n;
kernLeft = m;
kernRight = h;
lastChange = "2025-02-14 16:17:50 +0000";
layers = (
{
anchors = (
{
name = bottom;
pos = (253,0);
},
{
name = top;
pos = (253,472);
}
);
layerId = m01;
shapes = (
{
closed = 1;
nodes = (
(118,0,l),
(118,300,l),
(129,359,o),
(190,417,o),
(261,417,cs),
(345,417,o),
(388,372,o),
(388,276,cs),
(388,0,l),
(454,0,l),
(454,277,ls),
(454,412,o),
(393,477,o),
(270,477,cs),
(200,477,o),
(139,428,o),
(118,373,c),
(118,472,l),
(52,472,l),
(52,0,l)
);
}
);
width = 506;
},
{
anchors = (
{
name = bottom;
pos = (245,0);
},
{
name = top;
pos = (245,472);
}
);
layerId = "4DE8B86A-429B-4593-9BC8-49866BB1A430";
shapes = (
{
closed = 1;
nodes = (
(83,0,l),
(83,299,l),
(89,386,o),
(170,456,o),
(254,456,cs),
(355,456,o),
(407,402,o),
(407,283,cs),
(407,0,l),
(431,0,l),
(431,285,ls),
(431,425,o),
(367,477,o),
(254,477,cs),
(173,477,o),
(104,412,o),
(83,348,c),
(83,472,l),
(59,472,l),
(59,0,l)
);
}
);
width = 490;
},
{
anchors = (
{
name = bottom;
pos = (276,0);
},
{
name = top;
pos = (276,472);
}
);
layerId = "0BE882A4-FC89-4865-8E81-154FB3EE808B";
shapes = (
{
closed = 1;
nodes = (
(181,0,l),
(181,301,l),
(200,339,o),
(243,357,o),
(280,357,cs),
(339,357,o),
(370,327,o),
(370,266,cs),
(370,0,l),
(499,0,l),
(499,266,ls),
(499,393,o),
(444,477,o),
(304,477,cs),
(246,477,o),
(201,448,o),
(181,411,c),
(181,472,l),
(52,472,l),
(52,0,l)
);
}
);
width = 551;
},
{
anchors = (
{
name = bottom;
pos = (280,0);
},
{
name = top;
pos = (280,472);
}
);
layerId = "9C2CFEA6-85BB-4338-BB26-B1BEA40B5780";
shapes = (
{
closed = 1;
nodes = (
(192,0,l),
(192,301,l),
(210,335,o),
(250,348,o),
(284,348,cs),
(339,348,o),
(367,320,o),
(367,264,cs),
(367,0,l),
(507,0,l),
(507,264,ls),
(507,389,o),
(453,477,o),
(310,477,cs),
(255,477,o),
(209,453,o),
(192,418,c),
(192,472,l),
(52,472,l),
(52,0,l)
);
}
);
width = 559;
}
);
note = n;
unicode = 110;
},
{
glyphname = nhookleft;
kernLeft = m;
kernRight = h;
lastChange = "2025-02-14 16:17:50 +0000";
layers = (
{
layerId = m01;
shapes = (
{
closed = 1;
nodes = (
(118,0,l),
(52,0,l),
(52,-91,ls),
(52,-120,o),
(41,-132,o),
(24,-132,cs),
(0,-132,o),
(-24,-122,o),
(-48,-102,c),
(-48,-159,l),
(-44,-163,ls),
(-27,-179,o),
(0,-191,o),
(33,-191,cs),
(92,-191,o),
(118,-145,o),
(118,-80,cs)
);
},
{
closed = 1;
nodes = (
(118,0,l),
(118,300,l),
(129,359,o),
(190,417,o),
(261,417,cs),
(345,417,o),
(388,372,o),
(388,276,cs),
(388,0,l),
(454,0,l),
(454,277,ls),
(454,412,o),
(393,477,o),
(270,477,cs),
(200,477,o),
(139,428,o),
(118,373,c),
(118,472,l),
(52,472,l),
(52,0,l)
);
}
);
width = 497;
},
{
layerId = "4DE8B86A-429B-4593-9BC8-49866BB1A430";
shapes = (
{
closed = 1;
nodes = (
(78,0,l),
(54,0,l),
(54,-130,ls),
(54,-159,o),
(41,-173,o),
(24,-173,cs),
(-1,-173,o),
(-21,-164,o),
(-46,-141,c),
(-46,-159,l),
(-43,-163,ls),
(-32,-176,o),
(-4,-191,o),
(24,-191,cs),
(68,-191,o),
(78,-151,o),
(78,-111,cs)
);
},
{
closed = 1;
nodes = (
(78,0,l),
(78,299,l),
(84,386,o),
(165,456,o),
(249,456,cs),
(350,456,o),
(402,402,o),
(402,283,cs),
(402,0,l),
(426,0,l),
(426,285,ls),
(426,425,o),
(362,477,o),
(249,477,cs),
(168,477,o),
(99,412,o),
(78,348,c),
(78,472,l),
(54,472,l),
(54,0,l)
);
}
);
width = 476;
},
{
layerId = "0BE882A4-FC89-4865-8E81-154FB3EE808B";
shapes = (
{
closed = 1;
nodes = (
(181,0,l),
(52,0,l),
(52,-33,ls),
(52,-62,o),
(43,-72,o),
(27,-72,cs),
(4,-72,o),
(-24,-62,o),
(-48,-42,c),
(-48,-159,l),
(-41,-164,ls),
(-13,-181,o),
(9,-191,o),
(50,-191,cs),
(133,-191,o),
(181,-145,o),
(181,-33,cs)
);
},
{
closed = 1;
nodes = (
(181,0,l),
(181,301,l),
(200,339,o),
(243,357,o),
(280,357,cs),
(339,357,o),
(370,327,o),
(370,266,cs),
(370,0,l),
(499,0,l),
(499,266,ls),
(499,393,o),
(444,477,o),
(304,477,cs),
(246,477,o),
(201,448,o),
(181,411,c),
(181,472,l),
(52,472,l),
(52,0,l)
);
}
);
width = 542;
},
{
layerId = "9C2CFEA6-85BB-4338-BB26-B1BEA40B5780";
shapes = (
{
closed = 1;
nodes = (
(192,0,l),
(52,0,l),
(52,-24,ls),
(52,-53,o),
(44,-61,o),
(28,-61,cs),
(5,-61,o),
(-24,-51,o),
(-48,-32,c),
(-48,-159,l),
(-41,-164,l),
(-10,-181,o),
(10,-191,o),
(53,-191,cs),
(140,-191,o),
(192,-145,o),
(192,-25,cs)
);
},
{
closed = 1;
nodes = (
(192,0,l),
(192,301,l),
(210,335,o),
(250,348,o),
(284,348,cs),
(339,348,o),
(367,320,o),
(367,264,cs),
(367,0,l),
(507,0,l),
(507,264,ls),
(507,389,o),
(453,477,o),
(310,477,cs),
(255,477,o),
(209,453,o),
(192,418,c),
(192,472,l),
(52,472,l),
(52,0,l)
);
}
);
width = 550;
}
);
note = uni0272;
unicode = 626;
},
{
glyphname = eng;
kernLeft = m;
kernRight = h;
lastChange = "2025-02-14 16:17:50 +0000";
layers = (
{
anchors = (
{
name = bottom;
pos = (249,-275);
},
{
name = top;
pos = (249,472);
}
);
layerId = m01;
shapes = (
{
closed = 1;
nodes = (
(454,0,l),
(388,0,l),
(388,-91,ls),
(388,-120,o),
(376,-132,o),
(360,-132,cs),
(336,-132,o),
(312,-122,o),
(288,-102,c),
(288,-159,l),
(292,-163,ls),
(309,-179,o),
(336,-191,o),
(369,-191,cs),
(426,-191,o),
(454,-145,o),
(454,-80,cs)
);
},
{
closed = 1;
nodes = (
(118,0,l),
(118,300,l),
(129,359,o),
(190,417,o),
(261,417,cs),
(345,417,o),
(388,372,o),
(388,276,cs),
(388,0,l),
(454,0,l),
(454,277,ls),
(454,412,o),
(393,477,o),
(270,477,cs),
(200,477,o),
(139,428,o),
(118,373,c),
(118,472,l),
(52,472,l),
(52,0,l)
);
}
);
width = 497;
},
{
anchors = (
{
name = bottom;
pos = (241,-275);
},
{
name = top;
pos = (241,472);
}
);
layerId = "4DE8B86A-429B-4593-9BC8-49866BB1A430";
shapes = (
{
closed = 1;
nodes = (
(431,0,l),
(407,0,l),
(407,-130,ls),
(407,-159,o),
(394,-173,o),
(377,-173,cs),
(352,-173,o),
(332,-164,o),
(307,-141,c),
(307,-159,l),
(309,-163,l),
(320,-176,o),
(349,-191,o),
(377,-191,cs),
(420,-191,o),
(431,-150,o),
(431,-111,cs)
);
},
{
closed = 1;
nodes = (
(83,0,l),
(83,299,l),
(89,386,o),
(170,456,o),
(254,456,cs),
(355,456,o),
(407,402,o),
(407,283,cs),
(407,0,l),
(431,0,l),
(431,285,ls),
(431,425,o),
(367,477,o),
(254,477,cs),
(173,477,o),
(104,412,o),
(83,348,c),
(83,472,l),
(59,472,l),
(59,0,l)
);
}
);
width = 481;
},
{
anchors = (
{
name = bottom;
pos = (271,-275);
},
{
name = top;
pos = (271,472);
}
);
layerId = "0BE882A4-FC89-4865-8E81-154FB3EE808B";
shapes = (
{
closed = 1;
nodes = (
(499,0,l),
(370,0,l),
(370,-33,ls),
(370,-62,o),
(361,-72,o),
(344,-72,cs),
(323,-72,o),
(294,-62,o),
(270,-42,c),
(270,-159,l),
(277,-164,ls),
(305,-181,o),
(327,-191,o),
(368,-191,cs),
(451,-191,o),
(499,-145,o),
(499,-33,cs)
);
},
{
closed = 1;
nodes = (
(181,0,l),
(181,301,l),
(200,339,o),
(243,357,o),
(280,357,cs),
(339,357,o),
(370,327,o),
(370,266,cs),
(370,0,l),
(499,0,l),
(499,266,ls),
(499,393,o),
(444,477,o),
(304,477,cs),
(246,477,o),
(201,448,o),
(181,411,c),
(181,472,l),
(52,472,l),
(52,0,l)
);
}
);
width = 542;
},
{
anchors = (
{
name = bottom;
pos = (275,-275);
},
{
name = top;
pos = (275,472);
}
);
layerId = "9C2CFEA6-85BB-4338-BB26-B1BEA40B5780";
shapes = (
{
closed = 1;
nodes = (
(507,0,l),
(367,0,l),
(367,-24,ls),
(367,-53,o),
(358,-61,o),
(342,-61,cs),
(321,-61,o),
(291,-51,o),
(267,-32,c),
(267,-159,l),
(274,-164,l),
(305,-181,o),
(325,-191,o),
(368,-191,cs),
(455,-191,o),
(507,-145,o),
(507,-25,cs)
);
},
{
closed = 1;
nodes = (
(192,0,l),
(192,301,l),
(210,335,o),
(250,348,o),
(284,348,cs),
(339,348,o),
(367,320,o),
(367,264,cs),
(367,0,l),
(507,0,l),
(507,264,ls),
(507,389,o),
(453,477,o),
(310,477,cs),
(255,477,o),
(209,453,o),
(192,418,c),
(192,472,l),
(52,472,l),
(52,0,l)
);
}
);
width = 550;
}
);
note = eng;
unicode = 331;
},
{
glyphname = o;
kernLeft = c;
kernRight = o;
lastChange = "2025-02-14 16:17:50 +0000";
layers = (
{
anchors = (
{
name = bottom;
pos = (282,0);
},
{
name = center;
pos = (282,236);
},
{
name = ogonek;
pos = (254,0);
},
{
name = top;
pos = (282,472);
},
{
name = topright;
pos = (382,456);
}
);
layerId = m01;
shapes = (
{
closed = 1;
nodes = (
(417,-6,o),
(525,97,o),
(525,236,cs),
(525,371,o),
(421,477,o),
(281,477,cs),
(144,477,o),
(38,372,o),
(38,236,cs),
(38,97,o),
(145,-6,o),
(281,-6,cs)
);
},
{
closed = 1;
nodes = (
(179,55,o),
(104,132,o),
(104,236,cs),
(104,346,o),
(188,417,o),
(281,417,cs),
(378,417,o),
(459,344,o),
(459,236,cs),
(459,128,o),
(380,55,o),
(281,55,cs)
);
}
);
width = 563;
},
{
anchors = (
{
name = bottom;
pos = (287,0);
},
{
name = center;
pos = (287,236);
},
{
name = ogonek;
pos = (261,0);
},
{
name = top;
pos = (287,472);
},
{
name = topright;
pos = (388,456);
}
);
layerId = "4DE8B86A-429B-4593-9BC8-49866BB1A430";
shapes = (
{
closed = 1;
nodes = (
(425,-6,o),
(529,99,o),
(529,236,cs),
(529,374,o),
(424,477,o),
(287,477,cs),
(155,477,o),
(45,378,o),
(45,236,cs),
(45,86,o),
(163,-6,o),
(287,-6,cs)
);
},
{
closed = 1;
nodes = (
(166,14,o),
(69,108,o),
(69,236,cs),
(69,367,o),
(169,457,o),
(287,457,cs),
(414,457,o),
(505,360,o),
(505,236,cs),
(505,108,o),
(409,14,o),
(287,14,cs)
);
}
);
width = 574;
},
{
anchors = (
{
name = bottom;
pos = (284,0);
},
{
name = center;
pos = (284,236);
},
{
name = ogonek;
pos = (254,0);
},
{
name = top;
pos = (284,472);
},
{
name = topright;
pos = (386,456);
}
);
layerId = "0BE882A4-FC89-4865-8E81-154FB3EE808B";
shapes = (
{
closed = 1;
nodes = (
(421,-6,o),
(528,97,o),
(528,236,cs),
(528,372,o),
(425,477,o),
(283,477,cs),
(143,477,o),
(38,372,o),
(38,236,cs),
(38,97,o),
(145,-6,o),
(283,-6,cs)
);
},
{
closed = 1;
nodes = (
(217,115,o),
(167,164,o),
(167,236,cs),
(167,309,o),
(219,356,o),
(283,356,cs),
(348,356,o),
(399,310,o),
(399,236,cs),
(399,161,o),
(348,115,o),
(283,115,cs)
);
}
);
width = 567;
},
{
anchors = (
{
name = bottom;
pos = (284,0);
},
{
name = center;
pos = (284,236);
},
{
name = ogonek;
pos = (254,0);
},
{
name = top;
pos = (284,472);
},
{
name = topright;
pos = (386,456);
}
);
layerId = "9C2CFEA6-85BB-4338-BB26-B1BEA40B5780";
shapes = (
{
closed = 1;
nodes = (
(441,-6,o),
(529,116,o),
(529,236,cs),
(529,374,o),
(424,477,o),
(283,477,cs),
(143,477,o),
(38,371,o),
(38,236,cs),
(38,97,o),
(145,-6,o),
(283,-6,cs)
);
},
{
closed = 1;
nodes = (
(222,125,o),
(178,170,o),
(178,236,cs),
(178,301,o),
(222,346,o),
(283,346,cs),
(342,346,o),
(390,305,o),
(390,236,cs),
(390,167,o),
(341,125,o),
(283,125,cs)
);
}
);
width = 567;
}
);
note = o;
unicode = 111;
},
{
glyphname = oslash;
kernLeft = c;
kernRight = o;
lastChange = "2025-02-14 16:17:50 +0000";
layers = (
{
anchors = (
{
name = top;
pos = (284,472);
}
);
layerId = m01;
shapes = (
{
closed = 1;
nodes = (
(433,588,l),
(377,604,l),
(144,-103,l),
(200,-118,l)
);
},
{
closed = 1;
nodes = (
(418,0,o),
(526,109,o),
(526,244,cs),
(526,380,o),
(418,488,o),
(283,488,cs),
(128,488,o),
(40,358,o),
(40,244,cs),
(40,110,o),
(149,0,o),
(283,0,cs)
);
},
{
closed = 1;
nodes = (
(186,60,o),
(106,141,o),
(106,244,cs),
(106,347,o),
(187,428,o),
(283,428,cs),
(381,428,o),
(460,347,o),
(460,244,cs),
(460,143,o),
(380,60,o),
(283,60,cs)
);
}
);
width = 567;
},
{
anchors = (
{
name = top;
pos = (291,472);
}
);
layerId = "4DE8B86A-429B-4593-9BC8-49866BB1A430";
shapes = (
{
closed = 1;
nodes = (
(426,589,l),
(400,594,l),
(165,-111,l),
(191,-117,l)
);
},
{
closed = 1;
nodes = (
(424,5,o),
(533,115,o),
(533,249,cs),
(533,385,o),
(424,493,o),
(290,493,cs),
(158,493,o),
(48,383,o),
(48,249,cs),
(48,115,o),
(158,5,o),
(290,5,cs)
);
},
{
closed = 1;
nodes = (
(170,25,o),
(72,125,o),
(72,249,cs),
(72,373,o),
(171,473,o),
(290,473,cs),
(410,473,o),
(508,373,o),
(508,249,cs),
(508,126,o),
(410,25,o),
(290,25,cs)
);
}
);
width = 581;
},
{
anchors = (
{
name = top;
pos = (284,472);
}
);
layerId = "0BE882A4-FC89-4865-8E81-154FB3EE808B";
shapes = (
{
closed = 1;
nodes = (
(454,587,l),
(352,620,l),
(123,-90,l),
(225,-119,l)
);
},
{
closed = 1;
nodes = (
(412,-8,o),
(528,96,o),
(528,237,cs),
(528,372,o),
(418,481,o),
(283,481,cs),
(127,481,o),
(38,349,o),
(38,237,cs),
(38,102,o),
(148,-8,o),
(283,-8,cs)
);
},
{
closed = 1;
nodes = (
(221,113,o),
(167,168,o),
(167,237,cs),
(167,306,o),
(221,360,o),
(283,360,cs),
(346,360,o),
(399,306,o),
(399,237,cs),
(399,172,o),
(349,113,o),
(283,113,cs)
);
}
);
width = 567;
},
{
anchors = (
{
name = top;
pos = (284,472);
}
);
layerId = "9C2CFEA6-85BB-4338-BB26-B1BEA40B5780";
shapes = (
{
closed = 1;
nodes = (
(458,587,l),
(349,623,l),
(119,-88,l),
(228,-119,l)
);
},
{
closed = 1;
nodes = (
(419,-8,o),
(528,101,o),
(528,236,cs),
(528,371,o),
(418,480,o),
(283,480,cs),
(127,480,o),
(38,348,o),
(38,236,cs),
(38,102,o),
(147,-8,o),
(283,-8,cs)
);
},
{
closed = 1;
nodes = (
(226,122,o),
(178,171,o),
(178,236,cs),
(178,299,o),
(227,349,o),
(283,349,cs),
(341,349,o),
(389,299,o),
(389,236,cs),
(389,172,o),
(341,122,o),
(283,122,cs)
);
}
);
width = 567;
}
);
note = oslash;
unicode = 248;
},
{
glyphname = oe;
kernLeft = c;
kernRight = ae;
lastChange = "2025-02-14 16:17:50 +0000";
layers = (
{
anchors = (
{
name = bottom;
pos = (477,0);
},
{
name = top;
pos = (477,472);
}
);
layerId = m01;
shapes = (
{
closed = 1;
nodes = (
(793,-9,o),
(864,36,o),
(905,101,c),
(850,145,l),
(821,85,o),
(769,51,o),
(702,51,cs),
(595,51,o),
(533,129,o),
(529,233,c),
(901,233,l),
(913,324,o),
(901,376,o),
(866,419,cs),
(827,463,o),
(770,488,o),
(701,488,cs),
(604,488,o),
(533,440,o),
(493,367,c),
(452,440,o),
(371,488,o),
(283,488,cs),
(128,488,o),
(40,358,o),
(40,244,cs),
(40,110,o),
(149,0,o),
(283,0,cs),
(370,0,o),
(447,45,o),
(491,117,c),
(528,40,o),
(602,-9,o),
(702,-9,cs)
);
},
{
closed = 1;
nodes = (
(186,60,o),
(106,141,o),
(106,244,cs),
(106,347,o),
(187,428,o),
(283,428,cs),
(381,428,o),
(460,347,o),
(460,244,cs),
(460,143,o),
(380,60,o),
(283,60,cs)
);
},
{
closed = 1;
nodes = (
(535,290,l),
(552,373,o),
(612,428,o),
(701,428,cs),
(790,428,o),
(851,371,o),
(841,290,c)
);
}
);
width = 954;
},
{
anchors = (
{
name = bottom;
pos = (484,0);
},
{
name = top;
pos = (484,472);
}
);
layerId = "4DE8B86A-429B-4593-9BC8-49866BB1A430";
shapes = (
{
closed = 1;
nodes = (
(798,-8,o),
(871,37,o),
(912,101,c),
(886,121,l),
(846,52,o),
(785,14,o),
(710,14,cs),
(579,14,o),
(500,118,o),
(496,251,c),
(909,251,l),
(920,338,o),
(909,386,o),
(877,423,cs),
(838,468,o),
(780,491,o),
(709,491,cs),
(612,491,o),
(541,444,o),
(501,368,c),
(461,444,o),
(379,493,o),
(290,493,cs),
(158,493,o),
(48,383,o),
(48,249,cs),
(48,115,o),
(158,5,o),
(290,5,cs),
(377,5,o),
(453,50,o),
(497,123,c),
(533,43,o),
(607,-8,o),
(710,-8,cs)
);
},
{
closed = 1;
nodes = (
(170,25,o),
(72,125,o),
(72,249,cs),
(72,373,o),
(171,473,o),
(290,473,cs),
(410,473,o),
(508,373,o),
(508,249,cs),
(508,126,o),
(410,25,o),
(290,25,cs)
);
},
{
closed = 1;
nodes = (
(498,278,l),
(519,386,o),
(594,461,o),
(709,461,cs),
(829,461,o),
(901,390,o),
(887,278,c)
);
}
);
width = 967;
},
{
anchors = (
{
name = bottom;
pos = (478,0);
},
{
name = top;
pos = (478,472);
}
);
layerId = "0BE882A4-FC89-4865-8E81-154FB3EE808B";
shapes = (
{
closed = 1;
nodes = (
(796,-10,o),
(864,33,o),
(905,101,c),
(807,180,l),
(794,136,o),
(754,106,o),
(701,106,cs),
(634,106,o),
(590,139,o),
(590,207,c),
(900,207,l),
(915,304,o),
(899,364,o),
(860,412,cs),
(823,457,o),
(768,484,o),
(700,484,cs),
(603,484,o),
(532,437,o),
(493,365,c),
(448,436,o),
(370,481,o),
(283,481,cs),
(148,481,o),
(38,371,o),
(38,237,cs),
(38,81,o),
(170,-8,o),
(283,-8,cs),
(370,-8,o),
(448,39,o),
(492,108,c),
(532,36,o),
(602,-10,o),
(701,-10,cs)
);
},
{
closed = 1;
nodes = (
(217,113,o),
(167,172,o),
(167,237,cs),
(167,306,o),
(222,360,o),
(283,360,cs),
(346,360,o),
(399,305,o),
(399,237,cs),
(399,172,o),
(349,113,o),
(283,113,cs)
);
},
{
closed = 1;
nodes = (
(601,308,l),
(613,351,o),
(649,379,o),
(700,379,cs),
(746,379,o),
(785,343,o),
(783,308,c)
);
}
);
width = 956;
},
{
anchors = (
{
name = bottom;
pos = (478,0);
},
{
name = top;
pos = (478,472);
}
);
layerId = "9C2CFEA6-85BB-4338-BB26-B1BEA40B5780";
shapes = (
{
closed = 1;
nodes = (
(796,-10,o),
(864,33,o),
(905,101,c),
(799,186,l),
(790,145,o),
(753,115,o),
(701,115,cs),
(640,115,o),
(600,142,o),
(600,202,c),
(900,202,l),
(915,302,o),
(899,363,o),
(859,411,cs),
(822,456,o),
(768,483,o),
(700,483,cs),
(603,483,o),
(532,436,o),
(493,365,c),
(448,434,o),
(370,480,o),
(283,480,cs),
(148,480,o),
(38,370,o),
(38,236,cs),
(38,102,o),
(147,-8,o),
(283,-8,cs),
(370,-8,o),
(448,37,o),
(492,108,c),
(533,35,o),
(604,-10,o),
(701,-10,cs)
);
},
{
closed = 1;
nodes = (
(223,122,o),
(178,174,o),
(178,236,cs),
(178,299,o),
(227,349,o),
(283,349,cs),
(341,349,o),
(389,299,o),
(389,236,cs),
(389,172,o),
(341,122,o),
(283,122,cs)
);
},
{
closed = 1;
nodes = (
(612,311,l),
(623,347,o),
(655,371,o),
(700,371,cs),
(743,371,o),
(776,333,o),
(774,311,c)
);
}
);
width = 956;
}
);
note = oe;
unicode = 339;
},
{
glyphname = p;
kernLeft = m;
kernRight = b;
lastChange = "2025-02-14 16:17:50 +0000";
layers = (
{
anchors = (
{
name = bottom;
pos = (277,0);
},
{
name = top;
pos = (277,472);
}
);
layerId = m01;
shapes = (
{
closed = 1;
nodes = (
(128,-189,l),
(128,67,l),
(163,16,o),
(213,-6,o),
(280,-6,cs),
(413,-6,o),
(515,99,o),
(515,236,cs),
(515,393,o),
(386,477,o),
(275,477,cs),
(210,477,o),
(161,453,o),
(128,405,c),
(128,472,l),
(62,472,l),
(62,-189,l)
);
},
{
closed = 1;
nodes = (
(205,55,o),
(149,96,o),
(128,148,c),
(128,325,l),
(147,376,o),
(199,417,o),
(275,417,cs),
(374,417,o),
(449,336,o),
(449,236,cs),
(449,135,o),
(380,55,o),
(280,55,cs)
);
}
);
width = 553;
},
{
anchors = (
{
name = bottom;
pos = (275,0);
},
{
name = top;
pos = (275,472);
}
);
layerId = "4DE8B86A-429B-4593-9BC8-49866BB1A430";
shapes = (
{
closed = 1;
nodes = (
(94,-189,l),
(94,95,l),
(135,24,o),
(198,-6,o),
(278,-6,cs),
(404,-6,o),
(504,98,o),
(504,236,cs),
(504,368,o),
(404,477,o),
(271,477,cs),
(194,477,o),
(134,444,o),
(93,378,c),
(94,472,l),
(70,472,l),
(70,-189,l)
);
},
{
closed = 1;
nodes = (
(190,15,o),
(118,67,o),
(93,134,c),
(94,338,l),
(117,402,o),
(182,456,o),
(271,456,cs),
(389,456,o),
(481,357,o),
(481,236,cs),
(481,109,o),
(393,15,o),
(278,15,cs)
);
}
);
width = 549;
},
{
anchors = (
{
name = bottom;
pos = (291,0);
},
{
name = top;
pos = (291,472);
}
);
layerId = "0BE882A4-FC89-4865-8E81-154FB3EE808B";
shapes = (
{
closed = 1;
nodes = (
(192,-189,l),
(192,25,l),
(217,4,o),
(249,-6,o),
(296,-6,cs),
(443,-6,o),
(543,101,o),
(543,236,cs),
(543,378,o),
(430,477,o),
(292,477,cs),
(245,477,o),
(212,466,o),
(192,444,c),
(192,472,l),
(62,472,l),
(62,-189,l)
);
},
{
closed = 1;
nodes = (
(241,114,o),
(207,138,o),
(192,170,c),
(192,305,l),
(204,336,o),
(236,357,o),
(292,357,cs),
(361,357,o),
(414,308,o),
(414,236,cs),
(414,166,o),
(365,114,o),
(296,114,cs)
);
}
);
width = 581;
},
{
anchors = (
{
name = bottom;
pos = (293,0);
},
{
name = top;
pos = (293,472);
}
);
layerId = "9C2CFEA6-85BB-4338-BB26-B1BEA40B5780";
shapes = (
{
closed = 1;
nodes = (
(202,-189,l),
(202,18,l),
(226,2,o),
(255,-6,o),
(299,-6,cs),
(439,-6,o),
(548,94,o),
(548,236,cs),
(548,377,o),
(433,477,o),
(295,477,cs),
(252,477,o),
(221,468,o),
(202,451,c),
(202,472,l),
(62,472,l),
(62,-189,l)
);
},
{
closed = 1;
nodes = (
(248,124,o),
(215,145,o),
(202,174,c),
(202,302,l),
(214,330,o),
(243,348,o),
(295,348,cs),
(360,348,o),
(409,303,o),
(409,236,cs),
(409,173,o),
(364,124,o),
(299,124,cs)
);
}
);
width = 586;
}
);
note = p;
unicode = 112;
},
{
glyphname = thorn;
kernLeft = b;
kernRight = b;
lastChange = "2025-02-14 16:17:50 +0000";
layers = (
{
anchors = (
{
name = bottom;
pos = (272,0);
},
{
name = top;
pos = (272,930);
}
);
layerId = m01;
shapes = (
{
closed = 1;
nodes = (
(118,-189,l),
(118,67,l),
(154,16,o),
(204,-6,o),
(271,-6,cs),
(404,-6,o),
(506,99,o),
(506,236,cs),
(506,371,o),
(399,477,o),
(265,477,cs),
(200,477,o),
(151,453,o),
(118,405,c),
(118,660,l),
(52,660,l),
(52,-189,l)
);
},
{
closed = 1;
nodes = (
(196,55,o),
(139,96,o),
(118,148,c),
(118,325,l),
(138,376,o),
(189,417,o),
(265,417,cs),
(364,417,o),
(440,336,o),
(440,236,cs),
(440,130,o),
(366,55,o),
(271,55,cs)
);
}
);
width = 544;
},
{
anchors = (
{
name = bottom;
pos = (270,0);
},
{
name = top;
pos = (270,930);
}
);
layerId = "4DE8B86A-429B-4593-9BC8-49866BB1A430";
shapes = (
{
closed = 1;
nodes = (
(83,-189,l),
(83,95,l),
(126,24,o),
(188,-6,o),
(268,-6,cs),
(391,-6,o),
(494,95,o),
(494,236,cs),
(494,369,o),
(392,477,o),
(261,477,cs),
(184,477,o),
(124,444,o),
(83,378,c),
(83,660,l),
(59,660,l),
(59,-189,l)
);
},
{
closed = 1;
nodes = (
(179,15,o),
(108,67,o),
(83,134,c),
(83,338,l),
(106,402,o),
(172,456,o),
(261,456,cs),
(374,456,o),
(470,363,o),
(470,236,cs),
(470,107,o),
(379,15,o),
(268,15,cs)
);
}
);
width = 539;
},
{
anchors = (
{
name = bottom;
pos = (286,0);
},
{
name = top;
pos = (286,930);
}
);
layerId = "0BE882A4-FC89-4865-8E81-154FB3EE808B";
shapes = (
{
closed = 1;
nodes = (
(182,-189,l),
(182,25,l),
(207,4,o),
(240,-6,o),
(287,-6,cs),
(428,-6,o),
(534,97,o),
(534,236,cs),
(534,372,o),
(425,477,o),
(282,477,cs),
(235,477,o),
(202,466,o),
(182,444,c),
(182,660,l),
(52,660,l),
(52,-189,l)
);
},
{
closed = 1;
nodes = (
(232,114,o),
(197,138,o),
(182,170,c),
(182,305,l),
(195,336,o),
(227,357,o),
(282,357,cs),
(353,357,o),
(405,309,o),
(405,236,cs),
(405,166,o),
(356,114,o),
(287,114,cs)
);
}
);
width = 572;
},
{
anchors = (
{
name = bottom;
pos = (289,0);
},
{
name = top;
pos = (289,930);
}
);
layerId = "9C2CFEA6-85BB-4338-BB26-B1BEA40B5780";
shapes = (
{
closed = 1;
nodes = (
(192,-189,l),
(192,18,l),
(217,2,o),
(246,-6,o),
(290,-6,cs),
(434,-6,o),
(539,100,o),
(539,236,cs),
(539,372,o),
(430,477,o),
(285,477,cs),
(242,477,o),
(212,468,o),
(193,451,c),
(192,660,l),
(52,660,l),
(52,-189,l)
);
},
{
closed = 1;
nodes = (
(239,124,o),
(206,145,o),
(193,174,c),
(192,302,l),
(204,330,o),
(233,348,o),
(285,348,cs),
(350,348,o),
(399,303,o),
(399,236,cs),
(399,173,o),
(354,124,o),
(290,124,cs)
);
}
);
width = 577;
}
);
note = thorn;
unicode = 254;
},
{
glyphname = q;
kernLeft = d;
kernRight = q;
lastChange = "2025-02-14 16:17:50 +0000";
layers = (
{
anchors = (
{
name = bottom;
pos = (277,0);
},
{
name = top;
pos = (277,472);
}
);
layerId = m01;
shapes = (
{
closed = 1;
nodes = (
(492,472,l),
(426,472,l),
(426,405,l),
(393,453,o),
(343,477,o),
(278,477,cs),
(125,477,o),
(38,351,o),
(38,236,cs),
(38,99,o),
(140,-6,o),
(273,-6,cs),
(340,-6,o),
(390,16,o),
(426,67,c),
(426,-189,l),
(492,-189,l)
);
},
{
closed = 1;
nodes = (
(173,55,o),
(104,135,o),
(104,236,cs),
(104,341,o),
(184,417,o),
(278,417,cs),
(354,417,o),
(406,376,o),
(426,325,c),
(426,148,l),
(403,96,o),
(348,55,o),
(273,55,cs)
);
}
);
width = 553;
},
{
anchors = (
{
name = bottom;
pos = (274,0);
},
{
name = top;
pos = (274,472);
}
);
layerId = "4DE8B86A-429B-4593-9BC8-49866BB1A430";
shapes = (
{
closed = 1;
nodes = (
(480,472,l),
(457,472,l),
(457,379,l),
(415,444,o),
(355,477,o),
(278,477,cs),
(147,477,o),
(45,369,o),
(45,236,cs),
(45,95,o),
(148,-6,o),
(271,-6,cs),
(351,-6,o),
(413,24,o),
(456,95,c),
(457,-189,l),
(480,-189,l)
);
},
{
closed = 1;
nodes = (
(158,15,o),
(69,108,o),
(69,236,cs),
(69,363,o),
(165,456,o),
(278,456,cs),
(367,456,o),
(432,402,o),
(456,339,c),
(457,134,l),
(430,67,o),
(360,15,o),
(271,15,cs)
);
}
);
width = 549;
},
{
anchors = (
{
name = bottom;
pos = (291,0);
},
{
name = top;
pos = (291,472);
}
);
layerId = "0BE882A4-FC89-4865-8E81-154FB3EE808B";
shapes = (
{
closed = 1;
nodes = (
(520,472,l),
(390,472,l),
(390,445,l),
(370,466,o),
(337,477,o),
(290,477,cs),
(147,477,o),
(38,372,o),
(38,236,cs),
(38,97,o),
(144,-6,o),
(285,-6,cs),
(332,-6,o),
(365,4,o),
(390,25,c),
(390,-189,l),
(520,-189,l)
);
},
{
closed = 1;
nodes = (
(216,114,o),
(167,166,o),
(167,236,cs),
(167,308,o),
(221,357,o),
(290,357,cs),
(345,357,o),
(377,335,o),
(390,306,c),
(390,170,l),
(375,138,o),
(340,114,o),
(285,114,cs)
);
}
);
width = 581;
},
{
anchors = (
{
name = bottom;
pos = (293,0);
},
{
name = top;
pos = (293,472);
}
);
layerId = "9C2CFEA6-85BB-4338-BB26-B1BEA40B5780";
shapes = (
{
closed = 1;
nodes = (
(525,472,l),
(385,472,l),
(385,451,l),
(366,468,o),
(335,477,o),
(292,477,cs),
(147,477,o),
(38,372,o),
(38,236,cs),
(38,94,o),
(147,-6,o),
(287,-6,cs),
(331,-6,o),
(360,2,o),
(384,18,c),
(385,-189,l),
(525,-189,l)
);
},
{
closed = 1;
nodes = (
(221,124,o),
(178,173,o),
(178,236,cs),
(178,303,o),
(225,348,o),
(292,348,cs),
(344,348,o),
(372,330,o),
(384,303,c),
(385,173,l),
(370,145,o),
(338,124,o),
(287,124,cs)
);
}
);
width = 586;
}
);
note = q;
unicode = 113;
},
{
glyphname = r;
kernLeft = m;
kernRight = r;
lastChange = "2025-02-14 16:17:50 +0000";
layers = (
{
anchors = (
{
name = bottom;
pos = (191,0);
},
{
name = top;
pos = (191,472);
}
);
layerId = m01;
shapes = (
{
closed = 1;
nodes = (
(142,0,l),
(142,282,ls),
(142,367,o),
(189,417,o),
(245,417,cs),
(285,417,o),
(313,396,o),
(324,345,c),
(366,387,l),
(355,436,o),
(323,477,o),
(252,477,cs),
(192,477,o),
(136,424,o),
(132,333,c),
(142,333,l),
(142,472,l),
(76,472,l),
(76,0,l)
);
}
);
width = 381;
},
{
anchors = (
{
name = bottom;
pos = (189,0);
},
{
name = top;
pos = (189,472);
}
);
layerId = "4DE8B86A-429B-4593-9BC8-49866BB1A430";
shapes = (
{
closed = 1;
nodes = (
(125,0,l),
(125,285,ls),
(124,388,o),
(176,454,o),
(244,454,cs),
(289,454,o),
(319,431,o),
(330,376,c),
(350,387,l),
(343,438,o),
(321,477,o),
(244,477,cs),
(177,477,o),
(123,420,o),
(117,306,c),
(125,306,l),
(125,472,l),
(101,472,l),
(101,0,l)
);
}
);
width = 374;
},
{
anchors = (
{
name = bottom;
pos = (207,0);
},
{
name = top;
pos = (207,472);
}
);
layerId = "0BE882A4-FC89-4865-8E81-154FB3EE808B";
shapes = (
{
closed = 1;
nodes = (
(182,0,l),
(182,278,ls),
(181,335,o),
(221,361,o),
(261,361,cs),
(292,361,o),
(317,343,o),
(328,299,c),
(404,387,l),
(384,444,o),
(342,477,o),
(278,477,cs),
(219,477,o),
(171,438,o),
(169,374,c),
(182,374,l),
(182,472,l),
(52,472,l),
(52,0,l)
);
}
);
width = 414;
},
{
anchors = (
{
name = bottom;
pos = (210,0);
},
{
name = top;
pos = (210,472);
}
);
layerId = "9C2CFEA6-85BB-4338-BB26-B1BEA40B5780";
shapes = (
{
closed = 1;
nodes = (
(188,0,l),
(188,277,ls),
(188,330,o),
(225,352,o),
(264,352,cs),
(293,352,o),
(318,335,o),
(329,291,c),
(410,387,l),
(390,446,o),
(346,477,o),
(282,477,cs),
(226,477,o),
(171,449,o),
(171,381,c),
(188,381,l),
(188,472,l),
(49,472,l),
(49,0,l)
);
}
);
width = 420;
}
);
note = r;
unicode = 114;
},
{
glyphname = s;
kernLeft = s;
kernRight = s;
lastChange = "2025-02-14 16:17:50 +0000";
layers = (
{
anchors = (
{
name = bottom;
pos = (208,0);
},
{
name = top;
pos = (194,472);
}
);
background = {
shapes = (
{
closed = 1;
nodes = (
(263,-6,o),
(329,51,o),
(329,136,cs),
(329,222,o),
(257,244,o),
(168,271,cs),
(95,294,o),
(61,324,o),
(61,370,cs),
(61,419,o),
(99,454,o),
(164,454,cs),
(205,454,o),
(240,438,o),
(272,401,c),
(290,415,l),
(258,456,o),
(215,477,o),
(162,477,cs),
(83,477,o),
(38,427,o),
(38,368,cs),
(38,300,o),
(108,267,o),
(164,249,cs),
(267,218,o),
(305,197,o),
(305,136,cs),
(305,65,o),
(251,18,o),
(175,18,cs),
(118,18,o),
(65,42,o),
(32,82,c),
(13,65,l),
(60,18,o),
(114,-6,o),
(175,-6,cs)
);
}
);
};
layerId = m01;
shapes = (
{
closed = 1;
nodes = (
(289,-6,o),
(372,40,o),
(372,129,cs),
(372,297,o),
(105,231,o),
(105,357,cs),
(105,394,o),
(138,418,o),
(185,418,cs),
(230,418,o),
(265,401,o),
(292,368,c),
(339,410,l),
(300,457,o),
(252,477,o),
(182,477,cs),
(100,477,o),
(39,429,o),
(39,357,cs),
(39,181,o),
(306,243,o),
(306,129,cs),
(306,79,o),
(256,54,o),
(197,54,cs),
(144,54,o),
(99,78,o),
(67,119,c),
(20,75,l),
(71,21,o),
(130,-6,o),
(197,-6,cs)
);
}
);
width = 407;
},
{
anchors = (
{
name = bottom;
pos = (201,0);
},
{
name = top;
pos = (197,472);
}
);
layerId = "4DE8B86A-429B-4593-9BC8-49866BB1A430";
shapes = (
{
closed = 1;
nodes = (
(296,-6,o),
(362,51,o),
(362,136,cs),
(362,306,o),
(74,229,o),
(74,370,cs),
(74,419,o),
(112,454,o),
(187,454,cs),
(238,454,o),
(275,439,o),
(318,398,c),
(333,415,l),
(291,456,o),
(245,477,o),
(185,477,cs),
(96,477,o),
(51,427,o),
(51,368,cs),
(51,209,o),
(339,284,o),
(339,136,cs),
(339,65,o),
(284,18,o),
(198,18,cs),
(131,18,o),
(78,42,o),
(45,82,c),
(26,65,l),
(73,18,o),
(127,-6,o),
(198,-6,cs)
);
}
);
width = 404;
},
{
anchors = (
{
name = bottom;
pos = (245,0);
},
{
name = top;
pos = (224,472);
}
);
background = {
shapes = (
{
closed = 1;
nodes = (
(318,-6,o),
(401,40,o),
(401,129,cs),
(401,227,o),
(319,243,o),
(222,276,cs),
(181,290,o),
(134,306,o),
(134,357,cs),
(134,394,o),
(167,418,o),
(214,418,cs),
(259,418,o),
(294,401,o),
(321,368,c),
(368,410,l),
(329,457,o),
(281,477,o),
(211,477,cs),
(129,477,o),
(68,429,o),
(68,357,cs),
(68,266,o),
(143,238,o),
(207,218,cs),
(290,191,o),
(335,181,o),
(335,129,cs),
(335,79,o),
(285,54,o),
(226,54,cs),
(173,54,o),
(128,78,o),
(96,119,c),
(49,75,l),
(100,21,o),
(159,-6,o),
(226,-6,cs)
);
}
);
};
layerId = "0BE882A4-FC89-4865-8E81-154FB3EE808B";
shapes = (
{
closed = 1;
nodes = (
(341,-6,o),
(423,49,o),
(423,139,cs),
(423,321,o),
(179,267,o),
(180,339,cs),
(180,356,o),
(193,367,o),
(219,367,cs),
(258,367,o),
(289,344,o),
(308,319,c),
(398,403,l),
(351,455,o),
(281,477,o),
(222,477,cs),
(123,477,o),
(57,417,o),
(57,341,cs),
(57,174,o),
(294,223,o),
(294,148,cs),
(294,125,o),
(275,110,o),
(230,110,cs),
(176,110,o),
(142,131,o),
(110,174,c),
(20,90,l),
(79,26,o),
(145,-6,o),
(230,-6,cs)
);
}
);
width = 458;
},
{
anchors = (
{
name = bottom;
pos = (248,0);
},
{
name = top;
pos = (222,472);
}
);
background = {
shapes = (
{
closed = 1;
nodes = (
(344,-6,o),
(426,49,o),
(426,139,cs),
(426,242,o),
(335,272,o),
(252,292,cs),
(199,305,o),
(183,319,o),
(183,339,cs),
(183,356,o),
(196,367,o),
(222,367,cs),
(261,367,o),
(292,344,o),
(311,319,c),
(401,403,l),
(354,455,o),
(284,477,o),
(225,477,cs),
(126,477,o),
(60,417,o),
(60,341,cs),
(60,251,o),
(126,220,o),
(192,202,cs),
(249,186,o),
(297,183,o),
(297,148,cs),
(297,125,o),
(278,110,o),
(233,110,cs),
(179,110,o),
(145,131,o),
(113,174,c),
(23,90,l),
(82,26,o),
(148,-6,o),
(233,-6,cs)
);
}
);
};
layerId = "9C2CFEA6-85BB-4338-BB26-B1BEA40B5780";
shapes = (
{
attr = {
fill = 1;
strokePos = 0;
};
closed = 1;
nodes = (
(344,-6,o),
(427,50,o),
(427,142,cs),
(427,311,o),
(190,277,o),
(190,336,cs),
(190,350,o),
(199,358,o),
(222,358,cs),
(260,358,o),
(290,333,o),
(308,308,c),
(405,399,l),
(359,452,o),
(286,477,o),
(225,477,cs),
(126,477,o),
(58,415,o),
(58,338,cs),
(58,177,o),
(289,231,o),
(289,157,cs),
(289,132,o),
(270,119,o),
(233,119,cs),
(180,119,o),
(148,141,o),
(117,185,c),
(20,93,l),
(78,28,o),
(147,-6,o),
(233,-6,cs)
);
}
);
width = 462;
},
{
anchors = (
{
name = bottom;
pos = (177,0);
},
{
name = top;
pos = (173,472);
}
);
associatedMasterId = "4DE8B86A-429B-4593-9BC8-49866BB1A430";
layerId = "B638CC8A-9EBA-4ED3-8A89-68AE9F21FD87";
name = "11 fvr. 25  17:01";
shapes = (
{
closed = 1;
nodes = (
(262,-6,o),
(328,51,o),
(328,136,cs),
(328,196,o),
(296,231,o),
(256,250,cs),
(235,259,o),
(209,269,o),
(176,279,cs),
(94,304,o),
(60,324,o),
(60,370,cs),
(60,419,o),
(98,455,o),
(163,455,cs),
(204,455,o),
(239,438,o),
(271,401,c),
(289,415,l),
(257,456,o),
(214,477,o),
(161,477,cs),
(82,477,o),
(37,437,o),
(37,368,cs),
(37,327,o),
(63,301,o),
(96,286,cs),
(113,279,o),
(135,270,o),
(163,261,cs),
(266,230,o),
(304,201,o),
(304,136,cs),
(304,65,o),
(250,18,o),
(174,18,cs),
(117,18,o),
(64,42,o),
(31,82,c),
(12,65,l),
(59,18,o),
(113,-6,o),
(174,-6,cs)
);
}
);
width = 345;
},
{
anchors = (
{
name = bottom;
pos = (207,0);
},
{
name = top;
pos = (193,472);
}
);
associatedMasterId = m01;
layerId = "A435F25C-2D6F-4CF6-947E-643EE138E276";
name = "11 fvr. 25  17:01";
shapes = (
{
closed = 1;
nodes = (
(288,-6,o),
(361,50,o),
(361,141,cs),
(361,201,o),
(328,237,o),
(288,257,cs),
(268,266,o),
(242,276,o),
(210,287,cs),
(151,307,o),
(114,321,o),
(114,357,cs),
(114,394,o),
(141,418,o),
(188,418,cs),
(223,418,o),
(254,401,o),
(281,368,c),
(328,410,l),
(289,457,o),
(245,477,o),
(185,477,cs),
(103,477,o),
(48,429,o),
(48,357,cs),
(48,313,o),
(75,284,o),
(109,268,cs),
(126,260,o),
(148,251,o),
(177,242,cs),
(260,215,o),
(295,191,o),
(295,141,cs),
(295,89,o),
(255,55,o),
(196,55,cs),
(143,55,o),
(98,78,o),
(66,119,c),
(19,75,l),
(70,21,o),
(129,-6,o),
(196,-6,cs)
);
}
);
width = 385;
},
{
anchors = (
{
name = bottom;
pos = (243,0);
},
{
name = top;
pos = (222,472);
}
);
associatedMasterId = "0BE882A4-FC89-4865-8E81-154FB3EE808B";
layerId = "CEFB7D36-35D4-41F4-BD69-C06C91EF1673";
name = "11 fvr. 25  17:01";
shapes = (
{
closed = 1;
nodes = (
(329,-6,o),
(411,48,o),
(411,148,cs),
(411,209,o),
(374,249,o),
(333,270,cs),
(312,281,o),
(287,291,o),
(256,302,cs),
(216,315,o),
(194,326,o),
(194,339,cs),
(194,356,o),
(208,363,o),
(224,363,cs),
(253,363,o),
(277,344,o),
(296,319,c),
(386,403,l),
(339,455,o),
(289,477,o),
(220,477,cs),
(131,477,o),
(65,417,o),
(65,341,cs),
(65,289,o),
(94,258,o),
(129,240,cs),
(146,231,o),
(169,221,o),
(197,212,cs),
(244,196,o),
(282,183,o),
(282,148,cs),
(282,125,o),
(263,110,o),
(228,110,cs),
(184,110,o),
(150,131,o),
(118,174,c),
(28,90,l),
(87,26,o),
(153,-6,o),
(228,-6,cs)
);
}
);
width = 444;
},
{
anchors = (
{
name = bottom;
pos = (253,0);
},
{
name = top;
pos = (227,472);
}
);
associatedMasterId = "9C2CFEA6-85BB-4338-BB26-B1BEA40B5780";
layerId = "97703792-6BA3-476C-A480-6490C343D674";
name = "11 fvr. 25  17:01";
shapes = (
{
closed = 1;
nodes = (
(335,-6,o),
(420,48,o),
(420,149,cs),
(420,212,o),
(383,252,o),
(340,273,cs),
(319,284,o),
(293,294,o),
(263,305,cs),
(229,316,o),
(207,324,o),
(207,337,cs),
(207,350,o),
(218,354,o),
(231,354,cs),
(259,354,o),
(283,335,o),
(299,310,c),
(396,402,l),
(348,455,o),
(297,477,o),
(225,477,cs),
(135,477,o),
(68,415,o),
(68,339,cs),
(68,284,o),
(97,253,o),
(133,235,cs),
(150,226,o),
(173,216,o),
(201,207,cs),
(249,190,o),
(280,179,o),
(280,149,cs),
(280,132,o),
(263,120,o),
(234,120,cs),
(190,120,o),
(158,140,o),
(126,184,c),
(30,93,l),
(89,27,o),
(157,-6,o),
(234,-6,cs)
);
}
);
width = 454;
},
{
anchors = (
{
name = bottom;
pos = (190,0);
},
{
name = top;
pos = (186,472);
}
);
associatedMasterId = "4DE8B86A-429B-4593-9BC8-49866BB1A430";
layerId = "8D68B348-9595-482B-9DB0-2F59A1EB91CB";
name = "11 fvr. 25  17:11";
shapes = (
{
closed = 1;
nodes = (
(285,-6,o),
(351,51,o),
(351,136,cs),
(351,222,o),
(280,247,o),
(180,271,cs),
(96,291,o),
(63,324,o),
(63,370,cs),
(63,419,o),
(101,454,o),
(176,454,cs),
(227,454,o),
(264,439,o),
(307,398,c),
(322,415,l),
(280,456,o),
(234,477,o),
(174,477,cs),
(85,477,o),
(40,427,o),
(40,368,cs),
(40,300,o),
(109,265,o),
(176,249,cs),
(290,222,o),
(328,197,o),
(328,136,cs),
(328,65,o),
(273,18,o),
(187,18,cs),
(120,18,o),
(67,42,o),
(34,82,c),
(15,65,l),
(62,18,o),
(116,-6,o),
(187,-6,cs)
);
}
);
width = 371;
},
{
anchors = (
{
name = bottom;
pos = (207,0);
},
{
name = top;
pos = (193,472);
}
);
associatedMasterId = m01;
background = {
shapes = (
{
closed = 1;
nodes = (
(262,-6,o),
(328,51,o),
(328,136,cs),
(328,222,o),
(256,244,o),
(167,271,cs),
(94,294,o),
(60,324,o),
(60,370,cs),
(60,419,o),
(98,454,o),
(163,454,cs),
(204,454,o),
(239,438,o),
(271,401,c),
(289,415,l),
(257,456,o),
(214,477,o),
(161,477,cs),
(82,477,o),
(37,427,o),
(37,368,cs),
(37,300,o),
(107,267,o),
(163,249,cs),
(266,218,o),
(304,197,o),
(304,136,cs),
(304,65,o),
(250,18,o),
(174,18,cs),
(117,18,o),
(64,42,o),
(31,82,c),
(12,65,l),
(59,18,o),
(113,-6,o),
(174,-6,cs)
);
}
);
};
layerId = "B131008D-842D-49B3-9508-05AA613B271C";
name = "11 fvr. 25  17:11";
shapes = (
{
closed = 1;
nodes = (
(288,-6,o),
(371,40,o),
(371,129,cs),
(371,227,o),
(289,243,o),
(192,276,cs),
(151,290,o),
(104,306,o),
(104,357,cs),
(104,394,o),
(137,418,o),
(184,418,cs),
(229,418,o),
(264,401,o),
(291,368,c),
(338,410,l),
(299,457,o),
(251,477,o),
(181,477,cs),
(99,477,o),
(38,429,o),
(38,357,cs),
(38,266,o),
(113,238,o),
(177,218,cs),
(260,191,o),
(305,181,o),
(305,129,cs),
(305,79,o),
(255,54,o),
(196,54,cs),
(143,54,o),
(98,78,o),
(66,119,c),
(19,75,l),
(70,21,o),
(129,-6,o),
(196,-6,cs)
);
}
);
width = 385;
},
{
anchors = (
{
name = bottom;
pos = (243,0);
},
{
name = top;
pos = (222,472);
}
);
associatedMasterId = "0BE882A4-FC89-4865-8E81-154FB3EE808B";
background = {
shapes = (
{
closed = 1;
nodes = (
(316,-6,o),
(399,40,o),
(399,129,cs),
(399,227,o),
(317,243,o),
(220,276,cs),
(179,290,o),
(132,306,o),
(132,357,cs),
(132,394,o),
(165,418,o),
(212,418,cs),
(257,418,o),
(292,401,o),
(319,368,c),
(366,410,l),
(327,457,o),
(279,477,o),
(209,477,cs),
(127,477,o),
(66,429,o),
(66,357,cs),
(66,266,o),
(141,238,o),
(205,218,cs),
(288,191,o),
(333,181,o),
(333,129,cs),
(333,79,o),
(283,54,o),
(224,54,cs),
(171,54,o),
(126,78,o),
(94,119,c),
(47,75,l),
(98,21,o),
(157,-6,o),
(224,-6,cs)
);
}
);
};
layerId = "18B9E6EA-97F7-49A1-8DDF-49C722C2D272";
name = "11 fvr. 25  17:11";
shapes = (
{
closed = 1;
nodes = (
(339,-6,o),
(421,49,o),
(421,139,cs),
(421,242,o),
(330,272,o),
(247,292,cs),
(194,305,o),
(178,319,o),
(178,339,cs),
(178,356,o),
(191,367,o),
(217,367,cs),
(256,367,o),
(287,344,o),
(306,319,c),
(396,403,l),
(349,455,o),
(279,477,o),
(220,477,cs),
(121,477,o),
(55,417,o),
(55,341,cs),
(55,251,o),
(121,220,o),
(187,202,cs),
(244,186,o),
(292,183,o),
(292,148,cs),
(292,125,o),
(273,110,o),
(228,110,cs),
(174,110,o),
(140,131,o),
(108,174,c),
(18,90,l),
(77,26,o),
(143,-6,o),
(228,-6,cs)
);
}
);
width = 444;
},
{
anchors = (
{
name = bottom;
pos = (253,0);
},
{
name = top;
pos = (227,472);
}
);
associatedMasterId = "9C2CFEA6-85BB-4338-BB26-B1BEA40B5780";
background = {
shapes = (
{
closed = 1;
nodes = (
(349,-6,o),
(431,49,o),
(431,139,cs),
(431,242,o),
(340,272,o),
(257,292,cs),
(204,305,o),
(188,319,o),
(188,339,cs),
(188,356,o),
(201,367,o),
(227,367,cs),
(266,367,o),
(297,344,o),
(316,319,c),
(406,403,l),
(359,455,o),
(289,477,o),
(230,477,cs),
(131,477,o),
(65,417,o),
(65,341,cs),
(65,251,o),
(131,220,o),
(197,202,cs),
(254,186,o),
(302,183,o),
(302,148,cs),
(302,125,o),
(283,110,o),
(238,110,cs),
(184,110,o),
(150,131,o),
(118,174,c),
(28,90,l),
(87,26,o),
(153,-6,o),
(238,-6,cs)
);
}
);
};
layerId = "3A8528B4-CCBB-4E8A-B81E-25C26874F67C";
name = "11 fvr. 25  17:11";
shapes = (
{
attr = {
fill = 1;
strokePos = 0;
};
closed = 1;
nodes = (
(349,-6,o),
(432,50,o),
(432,142,cs),
(432,246,o),
(338,278,o),
(258,297,cs),
(209,309,o),
(195,321,o),
(195,336,cs),
(195,350,o),
(204,358,o),
(227,358,cs),
(265,358,o),
(295,333,o),
(313,308,c),
(410,399,l),
(364,452,o),
(291,477,o),
(230,477,cs),
(131,477,o),
(63,415,o),
(63,338,cs),
(63,247,o),
(132,215,o),
(196,197,cs),
(252,182,o),
(294,178,o),
(294,150,cs),
(294,132,o),
(279,119,o),
(238,119,cs),
(185,119,o),
(153,141,o),
(122,185,c),
(25,93,l),
(83,28,o),
(152,-6,o),
(238,-6,cs)
);
}
);
width = 454;
}
);
note = s;
unicode = 115;
},
{
glyphname = germandbls;
kernLeft = germandbls;
kernRight = germandbls;
lastChange = "2025-02-14 16:17:50 +0000";
layers = (
{
anchors = (
{
name = bottom;
pos = (309,0);
},
{
name = top;
pos = (309,930);
}
);
layerId = m01;
shapes = (
{
closed = 1;
nodes = (
(118,0,l),
(118,660,l),
(52,660,l),
(52,0,l)
);
},
{
closed = 1;
nodes = (
(495,-3,o),
(585,81,o),
(585,196,cs),
(585,313,o),
(507,381,o),
(413,381,c),
(413,354,l),
(493,354,o),
(546,423,o),
(546,499,cs),
(546,587,o),
(471,660,o),
(378,660,c),
(378,596,l),
(435,596,o),
(480,555,o),
(480,499,cs),
(480,436,o),
(440,392,o),
(360,392,cs),
(339,392,l),
(339,338,l),
(360,338,ls),
(459,338,o),
(519,278,o),
(519,196,cs),
(519,117,o),
(462,61,o),
(378,61,cs),
(318,61,o),
(277,89,o),
(246,150,c),
(187,123,l),
(220,43,o),
(297,-3,o),
(378,-3,cs)
);
},
{
closed = 1;
nodes = (
(52,596,l),
(378,596,l),
(378,660,l),
(52,660,l)
);
}
);
width = 618;
},
{
anchors = (
{
name = bottom;
pos = (291,0);
},
{
name = top;
pos = (291,930);
}
);
layerId = "4DE8B86A-429B-4593-9BC8-49866BB1A430";
shapes = (
{
closed = 1;
nodes = (
(79,0,l),
(79,660,l),
(59,660,l),
(59,0,l)
);
},
{
closed = 1;
nodes = (
(459,-3,o),
(541,80,o),
(541,187,cs),
(541,308,o),
(446,372,o),
(367,372,c),
(366,366,l),
(441,366,o),
(497,433,o),
(497,514,cs),
(497,593,o),
(429,660,o),
(345,660,c),
(344,643,l),
(419,643,o),
(475,582,o),
(475,514,cs),
(475,435,o),
(424,378,o),
(328,378,cs),
(309,378,l),
(309,360,l),
(330,360,ls),
(446,358,o),
(520,286,o),
(520,187,cs),
(520,90,o),
(449,21,o),
(345,21,cs),
(277,21,o),
(229,42,o),
(186,111,c),
(169,101,l),
(209,24,o),
(277,-3,o),
(345,-3,cs)
);
},
{
closed = 1;
nodes = (
(59,643,l),
(344,643,l),
(344,660,l),
(59,660,l)
);
}
);
width = 580;
},
{
anchors = (
{
name = bottom;
pos = (347,0);
},
{
name = top;
pos = (347,930);
}
);
layerId = "0BE882A4-FC89-4865-8E81-154FB3EE808B";
shapes = (
{
closed = 1;
nodes = (
(187,0,l),
(187,660,l),
(52,660,l),
(52,0,l)
);
},
{
closed = 1;
nodes = (
(568,-3,o),
(661,92,o),
(661,210,cs),
(661,329,o),
(598,394,o),
(493,394,c),
(493,335,l),
(596,335,o),
(631,425,o),
(631,476,cs),
(631,578,o),
(541,660,o),
(440,660,c),
(439,525,l),
(478,525,o),
(499,505,o),
(499,476,cs),
(499,439,o),
(474,414,o),
(417,414,cs),
(395,414,l),
(395,305,l),
(415,305,ls),
(487,305,o),
(527,265,o),
(527,210,cs),
(527,158,o),
(493,123,o),
(440,123,cs),
(383,123,o),
(355,161,o),
(347,208,c),
(225,156,l),
(243,63,o),
(349,-3,o),
(440,-3,cs)
);
},
{
closed = 1;
nodes = (
(52,525,l),
(439,525,l),
(439,660,l),
(52,660,l)
);
}
);
width = 694;
},
{
anchors = (
{
name = bottom;
pos = (354,0);
},
{
name = top;
pos = (354,930);
}
);
layerId = "9C2CFEA6-85BB-4338-BB26-B1BEA40B5780";
shapes = (
{
closed = 1;
nodes = (
(198,0,l),
(198,660,l),
(52,660,l),
(52,0,l)
);
},
{
closed = 1;
nodes = (
(583,-3,o),
(675,95,o),
(675,213,cs),
(675,331,o),
(613,396,o),
(507,396,c),
(506,332,l),
(610,332,o),
(645,424,o),
(645,472,cs),
(645,577,o),
(555,660,o),
(450,660,c),
(450,514,l),
(484,514,o),
(502,499,o),
(502,472,cs),
(502,439,o),
(480,418,o),
(427,418,cs),
(404,417,l),
(404,299,l),
(424,299,ls),
(496,299,o),
(529,261,o),
(529,213,cs),
(529,165,o),
(498,133,o),
(450,133,cs),
(394,133,o),
(368,174,o),
(364,218,c),
(231,162,l),
(247,68,o),
(354,-3,o),
(450,-3,cs)
);
},
{
closed = 1;
nodes = (
(52,514,l),
(450,514,l),
(450,660,l),
(52,660,l)
);
}
);
width = 707;
}
);
note = germandbls;
unicode = 223;
},
{
glyphname = longs;
kernLeft = longs;
kernRight = longs;
lastChange = "2025-02-14 16:17:50 +0000";
layers = (
{
anchors = (
{
name = bottom;
pos = (157,0);
},
{
name = top;
pos = (157,930);
}
);
layerId = "4DE8B86A-429B-4593-9BC8-49866BB1A430";
shapes = (
{
closed = 1;
nodes = (
(135,0,l),
(135,556,ls),
(135,620,o),
(156,654,o),
(215,654,cs),
(246,654,o),
(272,643,o),
(293,621,c),
(308,637,l),
(297,658,o),
(261,677,o),
(217,677,cs),
(145,677,o),
(112,637,o),
(112,556,cs),
(112,472,l),
(14,472,l),
(14,451,l),
(112,451,l),
(112,0,l)
);
}
);
width = 313;
},
{
anchors = (
{
name = bottom;
pos = (167,0);
},
{
name = top;
pos = (167,930);
}
);
layerId = m01;
shapes = (
{
closed = 1;
nodes = (
(168,0,l),
(168,538,ls),
(168,589,o),
(185,616,o),
(228,616,cs),
(253,616,o),
(276,604,o),
(296,581,c),
(330,629,l),
(310,658,o),
(268,674,o),
(223,674,cs),
(136,674,o),
(102,623,o),
(102,538,cs),
(102,472,l),
(13,472,l),
(13,411,l),
(102,411,l),
(102,0,l)
);
}
);
width = 334;
},
{
anchors = (
{
name = bottom;
pos = (191,0);
},
{
name = top;
pos = (191,930);
}
);
layerId = "0BE882A4-FC89-4865-8E81-154FB3EE808B";
shapes = (
{
closed = 1;
nodes = (
(225,0,l),
(225,511,ls),
(225,543,o),
(238,557,o),
(255,557,cs),
(273,557,o),
(291,545,o),
(310,520,c),
(371,616,l),
(336,656,o),
(291,670,o),
(239,670,cs),
(130,670,o),
(96,603,o),
(96,511,cs),
(95,472,l),
(19,472,l),
(19,352,l),
(95,352,l),
(95,0,l)
);
}
);
width = 381;
},
{
anchors = (
{
name = bottom;
pos = (195,0);
},
{
name = top;
pos = (195,930);
}
);
layerId = "9C2CFEA6-85BB-4338-BB26-B1BEA40B5780";
shapes = (
{
closed = 1;
nodes = (
(234,0,l),
(234,506,ls),
(234,537,o),
(247,548,o),
(260,548,cs),
(277,548,o),
(294,535,o),
(311,509,c),
(377,614,l),
(341,655,o),
(294,670,o),
(242,670,cs),
(129,670,o),
(95,601,o),
(95,506,cs),
(94,472,l),
(20,472,l),
(20,342,l),
(94,342,l),
(94,0,l)
);
}
);
width = 389;
}
);
unicode = 383;
},
{
glyphname = t;
kernLeft = t;
kernRight = t;
lastChange = "2025-02-14 16:17:50 +0000";
layers = (
{
anchors = (
{
name = bottom;
pos = (209,0);
},
{
name = center;
pos = (167,236);
},
{
name = top;
pos = (167,660);
},
{
name = topright;
pos = (308,930);
}
);
layerId = m01;
shapes = (
{
closed = 1;
nodes = (
(247,-6,o),
(293,7,o),
(321,26,c),
(293,79,l),
(270,64,o),
(247,57,o),
(216,57,cs),
(173,57,o),
(157,87,o),
(157,151,cs),
(157,418,l),
(305,418,l),
(305,478,l),
(157,478,l),
(157,660,l),
(91,660,l),
(91,478,l),
(15,478,l),
(15,418,l),
(91,418,l),
(91,146,ls),
(91,34,o),
(132,-6,o),
(212,-6,cs)
);
}
);
width = 336;
},
{
anchors = (
{
name = bottom;
pos = (205,0);
},
{
name = center;
pos = (165,236);
},
{
name = top;
pos = (165,660);
},
{
name = topright;
pos = (298,930);
}
);
layerId = "4DE8B86A-429B-4593-9BC8-49866BB1A430";
shapes = (
{
closed = 1;
nodes = (
(234,-6,o),
(281,4,o),
(306,21,c),
(295,41,l),
(267,26,o),
(237,19,o),
(201,19,cs),
(142,19,o),
(124,61,o),
(124,150,cs),
(124,457,l),
(290,457,l),
(290,479,l),
(124,479,l),
(124,660,l),
(101,660,l),
(101,479,l),
(21,479,l),
(21,457,l),
(101,457,l),
(101,159,ls),
(101,31,o),
(128,-6,o),
(211,-6,cs)
);
}
);
width = 327;
},
{
anchors = (
{
name = bottom;
pos = (219,0);
},
{
name = center;
pos = (180,236);
},
{
name = top;
pos = (180,660);
},
{
name = topright;
pos = (333,930);
}
);
layerId = "0BE882A4-FC89-4865-8E81-154FB3EE808B";
shapes = (
{
closed = 1;
nodes = (
(280,-6,o),
(320,11,o),
(352,35,c),
(299,136,l),
(287,123,o),
(270,113,o),
(249,113,cs),
(228,113,o),
(214,124,o),
(214,152,cs),
(215,360,l),
(336,360,l),
(336,477,l),
(215,477,l),
(215,660,l),
(85,660,l),
(85,477,l),
(15,477,l),
(15,360,l),
(85,360,l),
(85,126,ls),
(85,35,o),
(132,-6,o),
(221,-6,cs)
);
}
);
width = 367;
},
{
anchors = (
{
name = bottom;
pos = (219,0);
},
{
name = center;
pos = (182,236);
},
{
name = top;
pos = (182,660);
},
{
name = topright;
pos = (337,930);
}
);
layerId = "9C2CFEA6-85BB-4338-BB26-B1BEA40B5780";
shapes = (
{
closed = 1;
nodes = (
(286,-6,o),
(325,12,o),
(358,37,c),
(300,145,l),
(289,132,o),
(274,123,o),
(255,123,cs),
(236,123,o),
(224,129,o),
(224,152,cs),
(224,351,l),
(342,351,l),
(342,477,l),
(224,477,l),
(224,660,l),
(84,660,l),
(84,477,l),
(15,477,l),
(15,351,l),
(84,351,l),
(84,123,ls),
(84,34,o),
(134,-6,o),
(223,-6,cs)
);
}
);
width = 373;
}
);
note = t;
unicode = 116;
},
{
glyphname = tbar;
kernLeft = t;
kernRight = t;
lastChange = "2025-02-14 16:17:50 +0000";
layers = (
{
layerId = m01;
shapes = (
{
closed = 1;
nodes = (
(246,-6,o),
(292,7,o),
(320,26,c),
(292,79,l),
(269,64,o),
(246,57,o),
(215,57,cs),
(172,57,o),
(156,87,o),
(156,151,cs),
(156,418,l),
(304,418,l),
(304,478,l),
(156,478,l),
(156,660,l),
(90,660,l),
(90,478,l),
(14,478,l),
(14,418,l),
(90,418,l),
(90,146,ls),
(90,34,o),
(131,-6,o),
(211,-6,cs)
);
},
{
closed = 1;
nodes = (
(15,298,l),
(315,298,l),
(315,347,l),
(15,347,l)
);
}
);
width = 332;
},
{
layerId = "4DE8B86A-429B-4593-9BC8-49866BB1A430";
shapes = (
{
closed = 1;
nodes = (
(232,-6,o),
(279,4,o),
(304,21,c),
(293,41,l),
(265,26,o),
(235,19,o),
(199,19,cs),
(140,19,o),
(122,61,o),
(122,150,cs),
(122,457,l),
(288,457,l),
(288,479,l),
(122,479,l),
(122,660,l),
(99,660,l),
(99,479,l),
(19,479,l),
(19,457,l),
(99,457,l),
(99,159,ls),
(99,31,o),
(126,-6,o),
(209,-6,cs)
);
},
{
closed = 1;
nodes = (
(21,337,l),
(294,337,l),
(294,358,l),
(21,358,l)
);
}
);
width = 327;
},
{
layerId = "0BE882A4-FC89-4865-8E81-154FB3EE808B";
shapes = (
{
closed = 1;
nodes = (
(279,-6,o),
(319,11,o),
(351,35,c),
(298,136,l),
(286,123,o),
(269,113,o),
(248,113,cs),
(227,113,o),
(213,124,o),
(213,152,cs),
(214,360,l),
(335,360,l),
(335,477,l),
(214,477,l),
(214,660,l),
(84,660,l),
(84,477,l),
(14,477,l),
(14,360,l),
(84,360,l),
(84,126,ls),
(84,35,o),
(131,-6,o),
(220,-6,cs)
);
},
{
closed = 1;
nodes = (
(15,229,l),
(337,229,l),
(337,310,l),
(15,310,l)
);
}
);
width = 357;
},
{
layerId = "9C2CFEA6-85BB-4338-BB26-B1BEA40B5780";
shapes = (
{
closed = 1;
nodes = (
(285,-6,o),
(324,12,o),
(357,37,c),
(299,145,l),
(288,132,o),
(273,123,o),
(254,123,cs),
(235,123,o),
(223,129,o),
(223,152,cs),
(223,351,l),
(341,351,l),
(341,477,l),
(223,477,l),
(223,660,l),
(83,660,l),
(83,477,l),
(14,477,l),
(14,351,l),
(83,351,l),
(83,123,ls),
(83,34,o),
(133,-6,o),
(222,-6,cs)
);
},
{
closed = 1;
nodes = (
(14,227,l),
(342,227,l),
(342,318,l),
(14,318,l)
);
}
);
width = 361;
}
);
note = tbar;
unicode = 359;
},
{
glyphname = v;
kernLeft = v;
kernRight = v;
lastChange = "2025-02-14 16:17:50 +0000";
layers = (
{
anchors = (
{
name = bottom;
pos = (237,0);
},
{
name = top;
pos = (237,472);
}
);
layerId = m01;
shapes = (
{
closed = 1;
nodes = (
(264,0,l),
(460,472,l),
(389,472,l),
(232,87,l),
(242,87,l),
(85,472,l),
(14,472,l),
(210,0,l)
);
}
);
width = 474;
},
{
anchors = (
{
name = bottom;
pos = (224,0);
},
{
name = top;
pos = (224,472);
}
);
layerId = "4DE8B86A-429B-4593-9BC8-49866BB1A430";
shapes = (
{
closed = 1;
nodes = (
(234,0,l),
(428,472,l),
(403,472,l),
(219,22,l),
(229,22,l),
(44,472,l),
(19,472,l),
(213,0,l)
);
}
);
width = 449;
},
{
anchors = (
{
name = bottom;
pos = (265,0);
},
{
name = top;
pos = (265,472);
}
);
layerId = "0BE882A4-FC89-4865-8E81-154FB3EE808B";
shapes = (
{
closed = 1;
nodes = (
(316,0,l),
(515,472,l),
(375,472,l),
(259,185,l),
(269,185,l),
(154,472,l),
(14,472,l),
(213,0,l)
);
}
);
width = 529;
},
{
anchors = (
{
name = bottom;
pos = (269,0);
},
{
name = top;
pos = (269,472);
}
);
layerId = "9C2CFEA6-85BB-4338-BB26-B1BEA40B5780";
shapes = (
{
closed = 1;
nodes = (
(324,0,l),
(524,472,l),
(373,472,l),
(264,201,l),
(274,201,l),
(165,472,l),
(14,472,l),
(214,0,l)
);
}
);
width = 538;
}
);
note = v;
unicode = 118;
},
{
glyphname = w;
kernLeft = w;
kernRight = w;
lastChange = "2025-02-14 16:17:50 +0000";
layers = (
{
anchors = (
{
name = bottom;
pos = (347,0);
},
{
name = top;
pos = (347,472);
}
);
layerId = m01;
shapes = (
{
closed = 1;
nodes = (
(14,472,l),
(172,0,l),
(226,0,l),
(355,391,l),
(339,391,l),
(468,0,l),
(522,0,l),
(679,472,l),
(609,472,l),
(488,74,l),
(502,74,l),
(381,472,l),
(312,472,l),
(192,74,l),
(206,74,l),
(85,472,l)
);
}
);
width = 694;
},
{
anchors = (
{
name = bottom;
pos = (336,0);
},
{
name = top;
pos = (336,472);
}
);
layerId = "4DE8B86A-429B-4593-9BC8-49866BB1A430";
shapes = (
{
closed = 1;
nodes = (
(19,472,l),
(175,0,l),
(194,0,l),
(340,448,l),
(332,448,l),
(478,0,l),
(497,0,l),
(652,472,l),
(628,472,l),
(483,19,l),
(491,19,l),
(346,472,l),
(325,472,l),
(181,19,l),
(189,19,l),
(44,472,l)
);
}
);
width = 673;
},
{
anchors = (
{
name = bottom;
pos = (371,0);
},
{
name = top;
pos = (371,472);
}
);
layerId = "0BE882A4-FC89-4865-8E81-154FB3EE808B";
shapes = (
{
closed = 1;
nodes = (
(14,472,l),
(175,0,l),
(281,0,l),
(385,306,l),
(357,306,l),
(461,0,l),
(567,0,l),
(727,472,l),
(588,472,l),
(503,156,l),
(526,156,l),
(440,472,l),
(301,472,l),
(217,156,l),
(239,156,l),
(154,472,l)
);
}
);
width = 742;
},
{
anchors = (
{
name = bottom;
pos = (375,0);
},
{
name = top;
pos = (375,472);
}
);
layerId = "9C2CFEA6-85BB-4338-BB26-B1BEA40B5780";
shapes = (
{
closed = 1;
nodes = (
(14,472,l),
(176,0,l),
(290,0,l),
(390,292,l),
(360,292,l),
(460,0,l),
(575,0,l),
(736,472,l),
(584,472,l),
(506,170,l),
(529,170,l),
(451,472,l),
(299,472,l),
(220,170,l),
(245,170,l),
(165,472,l)
);
}
);
width = 750;
}
);
note = w;
unicode = 119;
},
{
glyphname = x;
kernLeft = x;
kernRight = x;
lastChange = "2025-02-14 16:17:50 +0000";
layers = (
{
anchors = (
{
name = bottom;
pos = (254,0);
},
{
name = top;
pos = (254,472);
}
);
layerId = m01;
shapes = (
{
closed = 1;
nodes = (
(93,0,l),
(254,190,l),
(415,0,l),
(498,0,l),
(298,237,l),
(493,472,l),
(410,472,l),
(257,286,l),
(99,472,l),
(15,472,l),
(212,240,l),
(10,0,l)
);
}
);
width = 508;
},
{
anchors = (
{
name = bottom;
pos = (232,0);
},
{
name = top;
pos = (232,472);
}
);
layerId = "4DE8B86A-429B-4593-9BC8-49866BB1A430";
shapes = (
{
closed = 1;
nodes = (
(43,0,l),
(232,222,l),
(420,0,l),
(449,0,l),
(248,239,l),
(442,472,l),
(413,472,l),
(235,256,l),
(46,472,l),
(15,472,l),
(217,241,l),
(15,0,l)
);
}
);
width = 464;
},
{
anchors = (
{
name = bottom;
pos = (295,0);
},
{
name = top;
pos = (295,472);
}
);
layerId = "0BE882A4-FC89-4865-8E81-154FB3EE808B";
shapes = (
{
closed = 1;
nodes = (
(175,0,l),
(295,142,l),
(415,0,l),
(579,0,l),
(380,234,l),
(577,472,l),
(413,472,l),
(298,331,l),
(186,472,l),
(22,472,l),
(212,239,l),
(10,0,l)
);
}
);
width = 589;
},
{
anchors = (
{
name = bottom;
pos = (302,0);
},
{
name = top;
pos = (302,472);
}
);
layerId = "9C2CFEA6-85BB-4338-BB26-B1BEA40B5780";
shapes = (
{
closed = 1;
nodes = (
(189,0,l),
(301,134,l),
(415,0,l),
(592,0,l),
(394,234,l),
(591,472,l),
(414,472,l),
(305,339,l),
(200,472,l),
(23,472,l),
(212,239,l),
(10,0,l)
);
}
);
width = 603;
}
);
note = x;
unicode = 120;
},
{
glyphname = y;
kernLeft = y;
kernRight = y;
lastChange = "2025-02-14 16:17:50 +0000";
layers = (
{
anchors = (
{
name = bottom;
pos = (285,-200);
},
{
name = top;
pos = (285,472);
}
);
layerId = m01;
shapes = (
{
closed = 1;
nodes = (
(175,-189,l),
(560,472,l),
(486,472,l),
(289,135,l),
(91,472,l),
(14,472,l),
(251,71,l),
(99,-189,l)
);
}
);
width = 570;
},
{
anchors = (
{
name = bottom;
pos = (271,-200);
},
{
name = top;
pos = (271,472);
}
);
layerId = "4DE8B86A-429B-4593-9BC8-49866BB1A430";
shapes = (
{
closed = 1;
nodes = (
(140,-189,l),
(530,472,l),
(504,472,l),
(275,87,l),
(48,472,l),
(19,472,l),
(261,64,l),
(112,-189,l)
);
}
);
width = 542;
},
{
anchors = (
{
name = bottom;
pos = (314,-200);
},
{
name = top;
pos = (314,472);
}
);
layerId = "0BE882A4-FC89-4865-8E81-154FB3EE808B";
shapes = (
{
closed = 1;
nodes = (
(234,-189,l),
(612,472,l),
(466,472,l),
(317,207,l),
(163,472,l),
(14,472,l),
(243,81,l),
(87,-189,l)
);
}
);
width = 627;
},
{
anchors = (
{
name = bottom;
pos = (318,-200);
},
{
name = top;
pos = (318,472);
}
);
layerId = "9C2CFEA6-85BB-4338-BB26-B1BEA40B5780";
shapes = (
{
closed = 1;
nodes = (
(245,-189,l),
(620,472,l),
(463,472,l),
(322,219,l),
(175,472,l),
(14,472,l),
(243,83,l),
(85,-189,l)
);
}
);
width = 636;
}
);
note = y;
unicode = 121;
},
{
glyphname = z;
kernLeft = z;
kernRight = z;
lastChange = "2025-02-14 16:17:50 +0000";
layers = (
{
anchors = (
{
name = bottom;
pos = (243,0);
},
{
name = center;
pos = (243,236);
},
{
name = top;
pos = (243,472);
}
);
layerId = m01;
shapes = (
{
closed = 1;
nodes = (
(437,0,l),
(437,66,l),
(138,66,l),
(443,428,l),
(443,472,l),
(46,472,l),
(46,405,l),
(342,405,l),
(43,49,l),
(43,0,l)
);
}
);
width = 485;
},
{
anchors = (
{
name = bottom;
pos = (241,0);
},
{
name = center;
pos = (241,236);
},
{
name = top;
pos = (241,472);
}
);
layerId = "4DE8B86A-429B-4593-9BC8-49866BB1A430";
shapes = (
{
closed = 1;
nodes = (
(423,0,l),
(423,30,l),
(79,30,l),
(439,454,l),
(439,468,l),
(56,468,l),
(56,441,l),
(394,441,l),
(42,24,l),
(42,0,l)
);
}
);
width = 482;
},
{
anchors = (
{
name = bottom;
pos = (255,0);
},
{
name = center;
pos = (255,236);
},
{
name = top;
pos = (255,472);
}
);
layerId = "0BE882A4-FC89-4865-8E81-154FB3EE808B";
shapes = (
{
closed = 1;
nodes = (
(468,0,l),
(468,120,l),
(237,120,l),
(460,388,l),
(460,478,l),
(42,478,l),
(42,351,l),
(274,351,l),
(54,88,l),
(54,0,l)
);
}
);
width = 510;
},
{
anchors = (
{
name = bottom;
pos = (258,0);
},
{
name = center;
pos = (258,236);
},
{
name = top;
pos = (258,472);
}
);
layerId = "9C2CFEA6-85BB-4338-BB26-B1BEA40B5780";
shapes = (
{
closed = 1;
nodes = (
(474,0,l),
(474,129,l),
(254,129,l),
(463,382,l),
(463,479,l),
(41,479,l),
(41,343,l),
(263,343,l),
(56,94,l),
(56,0,l)
);
}
);
width = 515;
}
);
note = z;
unicode = 122;
},
{
glyphname = saltillo;
lastChange = "2025-02-14 16:17:50 +0000";
layers = (
{
layerId = m01;
shapes = (
{
closed = 1;
nodes = (
(287,416,l),
(340,416,l),
(346,777,l),
(280,777,l)
);
}
);
width = 600;
},
{
layerId = "4DE8B86A-429B-4593-9BC8-49866BB1A430";
shapes = (
{
closed = 1;
nodes = (
(313,416,l),
(329,416,l),
(330,778,l),
(310,778,l)
);
}
);
width = 600;
},
{
layerId = "0BE882A4-FC89-4865-8E81-154FB3EE808B";
shapes = (
{
closed = 1;
nodes = (
(257,416,l),
(365,416,l),
(378,777,l),
(243,777,l)
);
}
);
width = 600;
},
{
layerId = "9C2CFEA6-85BB-4338-BB26-B1BEA40B5780";
shapes = (
{
closed = 1;
nodes = (
(258,416,l),
(375,416,l),
(389,778,l),
(243,778,l)
);
}
);
width = 600;
}
);
note = uniA78C;
unicode = 42892;
},
{
glyphname = a.ss01;
kernLeft = d;
lastChange = "2025-02-11 20:35:50 +0000";
layers = (
{
anchors = (
{
name = bottom;
pos = (277,0);
},
{
name = ogonek;
pos = (426,0);
},
{
name = top;
pos = (277,472);
}
);
layerId = m01;
shapes = (
{
closed = 1;
nodes = (
(426,472,l),
(426,405,l),
(390,456,o),
(340,477,o),
(273,477,cs),
(139,477,o),
(38,374,o),
(38,236,cs),
(38,93,o),
(153,-6,o),
(278,-6,cs),
(343,-6,o),
(393,18,o),
(426,67,c),
(426,0,l),
(492,0,l),
(492,472,l)
);
},
{
closed = 1;
nodes = (
(348,417,o),
(403,376,o),
(426,323,c),
(426,146,l),
(406,95,o),
(354,55,o),
(278,55,cs),
(183,55,o),
(104,130,o),
(104,236,cs),
(104,337,o),
(173,417,o),
(273,417,cs)
);
}
);
width = 553;
},
{
anchors = (
{
name = bottom;
pos = (274,0);
},
{
name = ogonek;
pos = (457,0);
},
{
name = top;
pos = (274,472);
}
);
layerId = "4DE8B86A-429B-4593-9BC8-49866BB1A430";
shapes = (
{
closed = 1;
nodes = (
(457,472,l),
(457,377,l),
(413,448,o),
(351,477,o),
(271,477,cs),
(146,477,o),
(45,373,o),
(45,236,cs),
(45,101,o),
(151,-6,o),
(278,-6,cs),
(355,-6,o),
(415,27,o),
(456,93,c),
(457,0,l),
(480,0,l),
(480,472,l)
);
},
{
closed = 1;
nodes = (
(360,456,o),
(431,403,o),
(456,338,c),
(457,133,l),
(432,69,o),
(367,15,o),
(278,15,cs),
(147,15,o),
(69,131,o),
(69,236,cs),
(69,363,o),
(157,456,o),
(271,456,cs)
);
}
);
width = 549;
},
{
anchors = (
{
name = bottom;
pos = (291,0);
},
{
name = ogonek;
pos = (390,0);
},
{
name = top;
pos = (291,472);
}
);
layerId = "0BE882A4-FC89-4865-8E81-154FB3EE808B";
shapes = (
{
closed = 1;
nodes = (
(390,472,l),
(390,447,l),
(365,468,o),
(332,477,o),
(285,477,cs),
(146,477,o),
(38,377,o),
(38,236,cs),
(38,99,o),
(146,-6,o),
(290,-6,cs),
(337,-6,o),
(370,5,o),
(390,27,c),
(390,0,l),
(520,0,l),
(520,472,l)
);
},
{
closed = 1;
nodes = (
(340,357,o),
(375,334,o),
(390,302,c),
(390,166,l),
(377,135,o),
(345,114,o),
(290,114,cs),
(219,114,o),
(167,166,o),
(167,236,cs),
(167,305,o),
(215,357,o),
(285,357,cs)
);
}
);
width = 581;
},
{
anchors = (
{
name = bottom;
pos = (293,0);
},
{
name = ogonek;
pos = (385,0);
},
{
name = top;
pos = (293,472);
}
);
layerId = "9C2CFEA6-85BB-4338-BB26-B1BEA40B5780";
shapes = (
{
closed = 1;
nodes = (
(385,472,l),
(385,455,l),
(360,470,o),
(331,477,o),
(287,477,cs),
(147,477,o),
(38,378,o),
(38,236,cs),
(38,99,o),
(147,-6,o),
(292,-6,cs),
(335,-6,o),
(365,3,o),
(384,21,c),
(385,0,l),
(525,0,l),
(525,472,l)
);
},
{
closed = 1;
nodes = (
(339,348,o),
(371,327,o),
(384,298,c),
(385,170,l),
(372,142,o),
(344,124,o),
(292,124,cs),
(227,124,o),
(178,169,o),
(178,236,cs),
(178,299,o),
(223,348,o),
(287,348,cs)
);
}
);
width = 586;
}
);
note = a.ss01;
},
{
glyphname = f_f;
lastChange = "2025-02-14 16:29:14 +0000";
layers = (
{
anchors = (
{
name = caret_1;
pos = (286.5,0);
}
);
layerId = m01;
shapes = (
{
closed = 1;
nodes = (
(323,616,o),
(344,565,o),
(346,491,cs),
(346,472,l),
(412,472,l),
(412,483,o),
(412,495,o),
(412,506,cs),
(412,609,o),
(355,674,o),
(256,674,cs),
(150,674,o),
(97,608,o),
(97,529,cs),
(97,472,l),
(8,472,l),
(8,411,l),
(97,411,l),
(97,0,l),
(163,0,l),
(163,411,l),
(298,411,l),
(298,472,l),
(163,472,l),
(163,520,ls),
(163,580,o),
(196,616,o),
(256,616,cs)
);
},
{
alignment = -1;
pos = (249,0);
ref = f;
}
);
width = 573;
},
{
anchors = (
{
name = caret_1;
pos = (260,0);
}
);
layerId = "4DE8B86A-429B-4593-9BC8-49866BB1A430";
shapes = (
{
closed = 1;
nodes = (
(325,656,o),
(332,580,o),
(329,494,cs),
(329,472,l),
(352,472,l),
(352,481,o),
(352,490,o),
(352,499,cs),
(357,609,o),
(340,677,o),
(231,677,cs),
(150,677,o),
(102,632,o),
(102,541,cs),
(102,472,l),
(4,472,l),
(4,451,l),
(102,451,l),
(102,0,l),
(125,0,l),
(125,451,l),
(273,451,l),
(273,472,l),
(125,472,l),
(125,546,ls),
(125,613,o),
(160,656,o),
(231,656,cs)
);
},
{
alignment = -1;
pos = (227,0);
ref = f;
}
);
width = 520;
},
{
anchors = (
{
name = caret_1;
pos = (326.5,0);
}
);
layerId = "0BE882A4-FC89-4865-8E81-154FB3EE808B";
shapes = (
{
closed = 1;
nodes = (
(331,555,o),
(365,530,o),
(371,486,cs),
(372,472,l),
(501,472,l),
(501,488,o),
(500,503,o),
(497,518,cs),
(474,627,o),
(376,670,o),
(294,670,cs),
(148,670,o),
(91,572,o),
(91,511,cs),
(90,472,l),
(14,472,l),
(14,352,l),
(90,352,l),
(90,0,l),
(220,0,l),
(220,352,l),
(335,352,l),
(335,472,l),
(220,472,l),
(220,480,ls),
(220,531,o),
(249,555,o),
(294,555,cs)
);
},
{
alignment = -1;
pos = (281,0);
ref = f;
}
);
width = 653;
},
{
anchors = (
{
name = caret_1;
pos = (333.5,0);
}
);
layerId = "9C2CFEA6-85BB-4338-BB26-B1BEA40B5780";
shapes = (
{
closed = 1;
nodes = (
(337,545,o),
(371,520,o),
(376,486,cs),
(377,472,l),
(517,472,l),
(517,489,o),
(515,505,o),
(512,520,cs),
(489,626,o),
(385,670,o),
(301,670,cs),
(138,670,o),
(90,556,o),
(90,508,cs),
(89,472,l),
(15,472,l),
(15,342,l),
(89,342,l),
(89,0,l),
(229,0,l),
(229,342,l),
(341,342,l),
(341,472,l),
(229,472,l),
(229,474,ls),
(229,522,o),
(257,545,o),
(301,545,cs)
);
},
{
alignment = -1;
pos = (288,0);
ref = f;
}
);
width = 667;
}
);
note = f_f;
unicode = 64256;
},
{
glyphname = f_f_i;
lastChange = "2025-02-14 16:29:23 +0000";
layers = (
{
anchors = (
{
name = caret_1;
pos = (265.333,0);
},
{
name = caret_2;
pos = (530.667,0);
}
);
layerId = m01;
shapes = (
{
closed = 1;
nodes = (
(738,0,l),
(738,472,l),
(672,472,l),
(672,0,l)
);
},
{
closed = 1;
nodes = (
(737,524,o),
(764,550,o),
(764,585,cs),
(764,617,o),
(737,644,o),
(704,644,cs),
(671,644,o),
(644,617,o),
(644,585,cs),
(644,550,o),
(671,524,o),
(704,524,cs)
);
},
{
closed = 1;
nodes = (
(323,616,o),
(344,565,o),
(346,491,cs),
(346,472,l),
(412,472,l),
(412,483,o),
(412,495,o),
(412,506,cs),
(412,609,o),
(355,674,o),
(256,674,cs),
(150,674,o),
(97,608,o),
(97,529,cs),
(97,472,l),
(8,472,l),
(8,411,l),
(97,411,l),
(97,0,l),
(163,0,l),
(163,411,l),
(298,411,l),
(298,472,l),
(163,472,l),
(163,520,ls),
(163,580,o),
(196,616,o),
(256,616,cs)
);
},
{
closed = 1;
nodes = (
(412,0,l),
(412,411,l),
(704,411,l),
(704,472,l),
(412,472,l),
(412,538,ls),
(412,589,o),
(429,616,o),
(472,616,cs),
(497,616,o),
(520,604,o),
(540,581,c),
(574,629,l),
(554,658,o),
(512,674,o),
(467,674,cs),
(380,674,o),
(346,623,o),
(346,538,cs),
(346,472,l),
(257,472,l),
(257,411,l),
(346,411,l),
(346,0,l)
);
}
);
width = 796;
},
{
anchors = (
{
name = caret_1;
pos = (249,0);
},
{
name = caret_2;
pos = (498,0);
}
);
layerId = "4DE8B86A-429B-4593-9BC8-49866BB1A430";
shapes = (
{
closed = 1;
nodes = (
(681,0,l),
(681,472,l),
(658,472,l),
(658,0,l)
);
},
{
closed = 1;
nodes = (
(694,532,o),
(714,551,o),
(714,578,cs),
(714,605,o),
(694,624,o),
(669,624,cs),
(641,624,o),
(622,605,o),
(622,578,cs),
(622,551,o),
(641,532,o),
(669,532,cs)
);
},
{
closed = 1;
nodes = (
(325,656,o),
(332,580,o),
(329,494,cs),
(329,472,l),
(352,472,l),
(352,481,o),
(352,490,o),
(352,499,cs),
(357,609,o),
(340,677,o),
(231,677,cs),
(150,677,o),
(102,632,o),
(102,541,cs),
(102,472,l),
(4,472,l),
(4,451,l),
(102,451,l),
(102,0,l),
(125,0,l),
(125,451,l),
(273,451,l),
(273,472,l),
(125,472,l),
(125,546,ls),
(125,613,o),
(160,656,o),
(231,656,cs)
);
},
{
closed = 1;
nodes = (
(352,0,l),
(352,451,l),
(670,451,l),
(670,472,l),
(352,472,l),
(352,556,ls),
(352,620,o),
(373,654,o),
(432,654,cs),
(463,654,o),
(489,643,o),
(510,621,c),
(525,637,l),
(514,658,o),
(478,677,o),
(434,677,cs),
(362,677,o),
(329,637,o),
(329,556,cs),
(329,472,l),
(231,472,l),
(231,451,l),
(329,451,l),
(329,0,l)
);
}
);
width = 747;
},
{
anchors = (
{
name = caret_1;
pos = (290,0);
},
{
name = caret_2;
pos = (580,0);
}
);
layerId = "0BE882A4-FC89-4865-8E81-154FB3EE808B";
shapes = (
{
closed = 1;
nodes = (
(823,0,l),
(823,472,l),
(694,472,l),
(694,0,l)
);
},
{
closed = 1;
nodes = (
(802,513,o),
(838,550,o),
(838,594,cs),
(838,638,o),
(802,674,o),
(758,674,cs),
(714,674,o),
(677,638,o),
(677,594,cs),
(677,550,o),
(714,513,o),
(758,513,cs)
);
},
{
closed = 1;
nodes = (
(331,555,o),
(365,530,o),
(371,486,cs),
(372,472,l),
(501,472,l),
(501,488,o),
(500,503,o),
(497,518,cs),
(474,627,o),
(376,670,o),
(294,670,cs),
(148,670,o),
(91,572,o),
(91,511,cs),
(90,472,l),
(14,472,l),
(14,352,l),
(90,352,l),
(90,0,l),
(220,0,l),
(220,352,l),
(335,352,l),
(335,472,l),
(220,472,l),
(220,480,ls),
(220,531,o),
(249,555,o),
(294,555,cs)
);
},
{
closed = 1;
nodes = (
(501,0,l),
(501,352,l),
(799,352,l),
(799,472,l),
(501,472,l),
(501,511,ls),
(501,543,o),
(514,557,o),
(531,557,cs),
(549,557,o),
(567,545,o),
(586,520,c),
(647,616,l),
(612,656,o),
(567,670,o),
(515,670,cs),
(406,670,o),
(372,603,o),
(372,511,cs),
(371,472,l),
(295,472,l),
(295,352,l),
(371,352,l),
(371,0,l)
);
}
);
width = 870;
},
{
anchors = (
{
name = caret_1;
pos = (294.333,0);
},
{
name = caret_2;
pos = (588.667,0);
}
);
layerId = "9C2CFEA6-85BB-4338-BB26-B1BEA40B5780";
shapes = (
{
closed = 1;
nodes = (
(837,0,l),
(837,472,l),
(697,472,l),
(697,0,l)
);
},
{
closed = 1;
nodes = (
(813,511,o),
(852,549,o),
(852,596,cs),
(852,641,o),
(813,679,o),
(768,679,cs),
(721,679,o),
(683,641,o),
(683,596,cs),
(683,549,o),
(721,511,o),
(768,511,cs)
);
},
{
closed = 1;
nodes = (
(337,545,o),
(371,520,o),
(376,486,cs),
(377,472,l),
(517,472,l),
(517,489,o),
(515,505,o),
(512,520,cs),
(489,626,o),
(385,670,o),
(301,670,cs),
(138,670,o),
(90,556,o),
(90,508,cs),
(89,472,l),
(15,472,l),
(15,342,l),
(89,342,l),
(89,0,l),
(229,0,l),
(229,342,l),
(341,342,l),
(341,472,l),
(229,472,l),
(229,474,ls),
(229,522,o),
(257,545,o),
(301,545,cs)
);
},
{
closed = 1;
nodes = (
(517,0,l),
(517,342,l),
(749,342,l),
(749,472,l),
(517,472,l),
(517,506,ls),
(517,537,o),
(530,548,o),
(543,548,cs),
(560,548,o),
(577,535,o),
(594,509,c),
(660,614,l),
(624,655,o),
(577,670,o),
(525,670,cs),
(412,670,o),
(378,601,o),
(378,506,cs),
(377,472,l),
(303,472,l),
(303,342,l),
(377,342,l),
(377,0,l)
);
}
);
width = 883;
}
);
note = f_f_i;
unicode = 64259;
},
{
glyphname = f_f_ij;
lastChange = "2025-02-14 16:17:50 +0000";
layers = (
{
anchors = (
{
name = bottom_1;
pos = (158,0);
},
{
name = bottom_2;
pos = (475,0);
},
{
name = bottom_3;
pos = (791,0);
},
{
name = caret_1;
pos = (322.667,0);
},
{
name = caret_2;
pos = (645.333,0);
},
{
name = top_1;
pos = (158,943);
},
{
name = top_2;
pos = (475,943);
},
{
name = top_3;
pos = (791,943);
}
);
layerId = m01;
shapes = (
{
closed = 1;
nodes = (
(726,-192,l),
(833,-192,o),
(920,-125,o),
(920,-8,cs),
(920,472,l),
(854,472,l),
(854,-8,ls),
(854,-87,o),
(799,-132,o),
(726,-132,c)
);
},
{
closed = 1;
nodes = (
(920,524,o),
(947,550,o),
(947,585,cs),
(947,617,o),
(920,644,o),
(887,644,cs),
(854,644,o),
(827,617,o),
(827,585,cs),
(827,550,o),
(854,524,o),
(887,524,cs)
);
},
{
alignment = -1;
ref = f_f_i;
}
);
width = 968;
},
{
anchors = (
{
name = bottom_1;
pos = (147,0);
},
{
name = bottom_2;
pos = (442,0);
},
{
name = bottom_3;
pos = (736,0);
},
{
name = caret_1;
pos = (294.333,0);
},
{
name = caret_2;
pos = (588.667,0);
},
{
name = top_1;
pos = (147,930);
},
{
name = top_2;
pos = (442,930);
},
{
name = top_3;
pos = (736,930);
}
);
layerId = "4DE8B86A-429B-4593-9BC8-49866BB1A430";
shapes = (
{
closed = 1;
nodes = (
(671,-208,l),
(768,-198,o),
(835,-131,o),
(835,-28,cs),
(835,472,l),
(812,472,l),
(812,-28,ls),
(812,-119,o),
(752,-178,o),
(671,-190,c)
);
},
{
closed = 1;
nodes = (
(851,532,o),
(869,551,o),
(869,578,cs),
(869,605,o),
(851,624,o),
(824,624,cs),
(797,624,o),
(778,605,o),
(778,578,cs),
(778,551,o),
(797,532,o),
(824,532,cs)
);
},
{
alignment = -1;
ref = f_f_i;
}
);
width = 883;
},
{
anchors = (
{
name = bottom_1;
pos = (182,0);
},
{
name = bottom_2;
pos = (547,0);
},
{
name = bottom_3;
pos = (912,0);
},
{
name = caret_1;
pos = (364.667,0);
},
{
name = caret_2;
pos = (729.333,0);
},
{
name = top_1;
pos = (182,930);
},
{
name = top_2;
pos = (547,930);
},
{
name = top_3;
pos = (912,930);
}
);
layerId = "0BE882A4-FC89-4865-8E81-154FB3EE808B";
shapes = (
{
closed = 1;
nodes = (
(807,-167,l),
(924,-187,o),
(1047,-117,o),
(1047,21,cs),
(1046,472,l),
(917,472,l),
(917,21,ls),
(918,-39,o),
(868,-63,o),
(807,-46,c)
);
},
{
closed = 1;
nodes = (
(1025,513,o),
(1062,550,o),
(1062,594,cs),
(1062,638,o),
(1025,674,o),
(982,674,cs),
(937,674,o),
(901,638,o),
(901,594,cs),
(901,550,o),
(937,513,o),
(982,513,cs)
);
},
{
alignment = -1;
ref = f_f_i;
}
);
width = 1094;
},
{
anchors = (
{
name = bottom_1;
pos = (186,0);
},
{
name = bottom_2;
pos = (558,0);
},
{
name = bottom_3;
pos = (929,0);
},
{
name = caret_1;
pos = (371.667,0);
},
{
name = caret_2;
pos = (743.333,0);
},
{
name = top_1;
pos = (186,930);
},
{
name = top_2;
pos = (558,930);
},
{
name = top_3;
pos = (929,930);
}
);
layerId = "9C2CFEA6-85BB-4338-BB26-B1BEA40B5780";
shapes = (
{
closed = 1;
nodes = (
(820,-164,l),
(947,-187,o),
(1067,-108,o),
(1067,25,cs),
(1067,472,l),
(928,472,l),
(928,26,ls),
(928,-30,o),
(880,-52,o),
(820,-32,c)
);
},
{
closed = 1;
nodes = (
(1043,511,o),
(1082,549,o),
(1082,596,cs),
(1082,641,o),
(1043,679,o),
(998,679,cs),
(951,679,o),
(913,641,o),
(913,596,cs),
(913,549,o),
(951,511,o),
(998,511,cs)
);
},
{
alignment = -1;
ref = f_f_i;
}
);
width = 1115;
}
);
note = f_f_ij;
},
{
glyphname = f_f_l;
lastChange = "2025-02-14 16:29:34 +0000";
layers = (
{
anchors = (
{
name = caret_1;
pos = (253,0);
},
{
name = caret_2;
pos = (506,0);
}
);
layerId = m01;
shapes = (
{
closed = 1;
nodes = (
(447,616,o),
(412,581,o),
(412,520,cs),
(412,472,l),
(547,472,l),
(547,411,l),
(412,411,l),
(412,0,l),
(346,0,l),
(346,411,l),
(163,411,l),
(163,0,l),
(97,0,l),
(97,411,l),
(8,411,l),
(8,472,l),
(97,472,l),
(97,529,ls),
(97,608,o),
(150,674,o),
(256,674,cs),
(311,674,o),
(353,649,o),
(377,604,c),
(405,649,o),
(451,674,o),
(524,674,cs),
(652,674,o),
(703,616,o),
(703,529,cs),
(703,0,l),
(637,0,l),
(637,520,ls),
(637,581,o),
(603,616,o),
(524,616,cs)
);
},
{
closed = 1;
nodes = (
(163,472,l),
(346,472,l),
(346,478,ls),
(346,571,o),
(322,616,o),
(256,616,cs),
(196,616,o),
(163,580,o),
(163,520,cs)
);
}
);
width = 759;
},
{
anchors = (
{
name = caret_1;
pos = (219,0);
},
{
name = caret_2;
pos = (438,0);
}
);
layerId = "4DE8B86A-429B-4593-9BC8-49866BB1A430";
shapes = (
{
closed = 1;
nodes = (
(389,656,o),
(353,609,o),
(353,541,cs),
(353,472,l),
(501,472,l),
(501,451,l),
(353,451,l),
(353,0,l),
(328,0,l),
(328,451,l),
(125,451,l),
(125,0,l),
(102,0,l),
(102,451,l),
(4,451,l),
(4,472,l),
(102,472,l),
(102,541,ls),
(102,632,o),
(150,677,o),
(231,677,cs),
(292,677,o),
(328,643,o),
(340,588,c),
(361,645,o),
(398,677,o),
(465,677,cs),
(550,677,o),
(601,630,o),
(601,541,cs),
(601,0,l),
(578,0,l),
(578,548,ls),
(577,615,o),
(542,656,o),
(465,656,cs)
);
},
{
closed = 1;
nodes = (
(125,472,l),
(328,472,l),
(328,476,ls),
(328,611,o),
(312,656,o),
(231,656,cs),
(160,656,o),
(125,613,o),
(125,546,cs)
);
}
);
width = 657;
},
{
anchors = (
{
name = caret_1;
pos = (304,0);
},
{
name = caret_2;
pos = (608,0);
}
);
layerId = "0BE882A4-FC89-4865-8E81-154FB3EE808B";
shapes = (
{
closed = 1;
nodes = (
(531,555,o),
(502,539,o),
(502,487,cs),
(502,472,l),
(617,472,l),
(617,352,l),
(502,352,l),
(502,0,l),
(372,0,l),
(372,352,l),
(220,352,l),
(220,0,l),
(90,0,l),
(90,352,l),
(14,352,l),
(14,472,l),
(90,472,l),
(90,511,ls),
(92,605,o),
(185,670,o),
(294,670,cs),
(341,670,o),
(393,658,o),
(433,629,c),
(470,656,o),
(530,670,o),
(614,670,cs),
(805,670,o),
(855,594,o),
(855,511,cs),
(856,0,l),
(727,0,l),
(727,478,ls),
(726,530,o),
(694,555,o),
(614,555,cs)
);
},
{
closed = 1;
nodes = (
(220,472,l),
(372,472,l),
(372,481,ls),
(372,531,o),
(338,555,o),
(294,555,cs),
(249,555,o),
(220,531,o),
(220,480,cs)
);
}
);
width = 912;
},
{
anchors = (
{
name = caret_1;
pos = (312.333,0);
},
{
name = caret_2;
pos = (624.667,0);
}
);
layerId = "9C2CFEA6-85BB-4338-BB26-B1BEA40B5780";
shapes = (
{
closed = 1;
nodes = (
(545,545,o),
(517,532,o),
(517,481,cs),
(517,472,l),
(628,472,l),
(628,342,l),
(517,342,l),
(517,0,l),
(377,0,l),
(377,342,l),
(229,342,l),
(229,0,l),
(89,0,l),
(89,342,l),
(15,342,l),
(15,472,l),
(89,472,l),
(89,508,ls),
(91,603,o),
(190,670,o),
(301,670,cs),
(348,670,o),
(401,660,o),
(442,633,c),
(482,656,o),
(542,670,o),
(629,670,cs),
(829,670,o),
(881,591,o),
(881,508,cs),
(881,0,l),
(742,0,l),
(742,471,ls),
(741,523,o),
(709,545,o),
(629,545,cs)
);
},
{
closed = 1;
nodes = (
(229,472,l),
(377,472,l),
(377,482,ls),
(377,530,o),
(341,545,o),
(301,545,cs),
(257,545,o),
(229,522,o),
(229,473,cs)
);
}
);
width = 937;
}
);
note = f_f_l;
unicode = 64260;
},
{
glyphname = f_i;
lastChange = "2025-02-14 16:29:40 +0000";
layers = (
{
anchors = (
{
name = bottom_1;
pos = (137,0);
},
{
name = bottom_2;
pos = (410,0);
},
{
name = caret_1;
pos = (273.5,0);
},
{
name = top_1;
pos = (137,943);
},
{
name = top_2;
pos = (410,943);
}
);
layerId = m01;
shapes = (
{
closed = 1;
nodes = (
(163,0,l),
(163,411,l),
(446,411,l),
(446,472,l),
(163,472,l),
(163,538,ls),
(163,589,o),
(180,616,o),
(223,616,cs),
(248,616,o),
(271,604,o),
(291,581,c),
(325,629,l),
(305,658,o),
(263,674,o),
(218,674,cs),
(131,674,o),
(97,623,o),
(97,538,cs),
(97,472,l),
(8,472,l),
(8,411,l),
(97,411,l),
(97,0,l)
);
},
{
closed = 1;
nodes = (
(489,0,l),
(489,472,l),
(423,472,l),
(423,0,l)
);
},
{
closed = 1;
nodes = (
(488,524,o),
(515,550,o),
(515,585,cs),
(515,617,o),
(488,644,o),
(455,644,cs),
(422,644,o),
(395,617,o),
(395,585,cs),
(395,550,o),
(422,524,o),
(455,524,cs)
);
}
);
width = 547;
},
{
anchors = (
{
name = bottom_1;
pos = (130,0);
},
{
name = bottom_2;
pos = (389,0);
},
{
name = caret_1;
pos = (259.5,0);
},
{
name = top_1;
pos = (130,930);
},
{
name = top_2;
pos = (389,930);
}
);
layerId = "4DE8B86A-429B-4593-9BC8-49866BB1A430";
shapes = (
{
closed = 1;
nodes = (
(125,0,l),
(125,451,l),
(444,451,l),
(444,472,l),
(125,472,l),
(125,556,ls),
(125,620,o),
(146,654,o),
(205,654,cs),
(236,654,o),
(262,643,o),
(283,621,c),
(298,637,l),
(287,658,o),
(251,677,o),
(207,677,cs),
(135,677,o),
(102,637,o),
(102,556,cs),
(102,472,l),
(4,472,l),
(4,451,l),
(102,451,l),
(102,0,l)
);
},
{
closed = 1;
nodes = (
(454,0,l),
(454,472,l),
(431,472,l),
(431,0,l)
);
},
{
closed = 1;
nodes = (
(468,532,o),
(487,551,o),
(487,578,cs),
(487,605,o),
(468,624,o),
(441,624,cs),
(414,624,o),
(395,605,o),
(395,578,cs),
(395,551,o),
(414,532,o),
(441,532,cs)
);
}
);
width = 519;
},
{
anchors = (
{
name = bottom_1;
pos = (147,0);
},
{
name = bottom_2;
pos = (441,0);
},
{
name = caret_1;
pos = (294,0);
},
{
name = top_1;
pos = (147,930);
},
{
name = top_2;
pos = (441,930);
}
);
layerId = "0BE882A4-FC89-4865-8E81-154FB3EE808B";
shapes = (
{
closed = 1;
nodes = (
(220,0,l),
(220,352,l),
(449,352,l),
(449,472,l),
(220,472,l),
(220,511,ls),
(220,543,o),
(233,557,o),
(250,557,cs),
(268,557,o),
(286,545,o),
(305,520,c),
(366,616,l),
(331,656,o),
(286,670,o),
(234,670,cs),
(125,670,o),
(91,603,o),
(91,511,cs),
(90,472,l),
(14,472,l),
(14,352,l),
(90,352,l),
(90,0,l)
);
},
{
closed = 1;
nodes = (
(541,0,l),
(541,472,l),
(412,472,l),
(412,0,l)
);
},
{
closed = 1;
nodes = (
(520,513,o),
(556,550,o),
(556,594,cs),
(556,638,o),
(520,674,o),
(476,674,cs),
(432,674,o),
(395,638,o),
(395,594,cs),
(395,550,o),
(432,513,o),
(476,513,cs)
);
}
);
width = 588;
},
{
anchors = (
{
name = bottom_1;
pos = (149,0);
},
{
name = bottom_2;
pos = (446,0);
},
{
name = caret_1;
pos = (297.5,0);
},
{
name = top_1;
pos = (149,930);
},
{
name = top_2;
pos = (446,930);
}
);
layerId = "9C2CFEA6-85BB-4338-BB26-B1BEA40B5780";
shapes = (
{
closed = 1;
nodes = (
(229,0,l),
(229,342,l),
(450,342,l),
(450,472,l),
(229,472,l),
(229,506,ls),
(229,537,o),
(242,548,o),
(255,548,cs),
(272,548,o),
(289,535,o),
(306,509,c),
(372,614,l),
(336,655,o),
(289,670,o),
(237,670,cs),
(124,670,o),
(90,601,o),
(90,506,cs),
(89,472,l),
(15,472,l),
(15,342,l),
(89,342,l),
(89,0,l)
);
},
{
closed = 1;
nodes = (
(549,0,l),
(549,472,l),
(410,472,l),
(410,0,l)
);
},
{
closed = 1;
nodes = (
(525,511,o),
(564,549,o),
(564,596,cs),
(564,641,o),
(525,679,o),
(480,679,cs),
(433,679,o),
(395,641,o),
(395,596,cs),
(395,549,o),
(433,511,o),
(480,511,cs)
);
}
);
width = 595;
}
);
note = f_i;
unicode = 64257;
},
{
glyphname = f_l;
kernLeft = f;
kernRight = l;
lastChange = "2025-02-14 16:29:47 +0000";
layers = (
{
anchors = (
{
name = bottom_1;
pos = (127,0);
},
{
name = bottom_2;
pos = (383,0);
},
{
name = caret_1;
pos = (255,0);
},
{
name = top_1;
pos = (127,943);
},
{
name = top_2;
pos = (383,943);
}
);
layerId = m01;
shapes = (
{
closed = 1;
nodes = (
(198,616,o),
(163,581,o),
(163,520,cs),
(163,472,l),
(298,472,l),
(298,411,l),
(163,411,l),
(163,0,l),
(97,0,l),
(97,411,l),
(8,411,l),
(8,472,l),
(97,472,l),
(97,529,ls),
(97,616,o),
(148,674,o),
(275,674,cs),
(403,674,o),
(454,616,o),
(454,529,cs),
(454,0,l),
(388,0,l),
(388,520,ls),
(388,581,o),
(354,616,o),
(275,616,cs)
);
}
);
width = 510;
},
{
anchors = (
{
name = bottom_1;
pos = (108,0);
},
{
name = bottom_2;
pos = (323,0);
},
{
name = caret_1;
pos = (215,0);
},
{
name = top_1;
pos = (108,930);
},
{
name = top_2;
pos = (323,930);
}
);
layerId = "4DE8B86A-429B-4593-9BC8-49866BB1A430";
shapes = (
{
closed = 1;
nodes = (
(161,656,o),
(125,609,o),
(125,541,cs),
(125,472,l),
(273,472,l),
(273,451,l),
(125,451,l),
(125,0,l),
(102,0,l),
(102,451,l),
(4,451,l),
(4,472,l),
(102,472,l),
(102,541,ls),
(102,630,o),
(153,677,o),
(238,677,cs),
(322,677,o),
(373,630,o),
(373,541,cs),
(374,0,l),
(350,0,l),
(350,548,ls),
(350,615,o),
(315,656,o),
(238,656,cs)
);
}
);
width = 430;
},
{
anchors = (
{
name = bottom_1;
pos = (158,0);
},
{
name = bottom_2;
pos = (473,0);
},
{
name = caret_1;
pos = (315,0);
},
{
name = top_1;
pos = (158,930);
},
{
name = top_2;
pos = (473,930);
}
);
layerId = "0BE882A4-FC89-4865-8E81-154FB3EE808B";
shapes = (
{
closed = 1;
nodes = (
(249,555,o),
(220,539,o),
(220,487,cs),
(220,472,l),
(335,472,l),
(335,352,l),
(220,352,l),
(220,0,l),
(90,0,l),
(90,352,l),
(14,352,l),
(14,472,l),
(90,472,l),
(90,511,ls),
(91,594,o),
(141,670,o),
(332,670,cs),
(523,670,o),
(573,594,o),
(573,511,cs),
(574,0,l),
(445,0,l),
(445,478,ls),
(444,530,o),
(412,555,o),
(332,555,cs)
);
}
);
width = 630;
},
{
anchors = (
{
name = bottom_1;
pos = (163,0);
},
{
name = bottom_2;
pos = (488,0);
},
{
name = caret_1;
pos = (325,0);
},
{
name = top_1;
pos = (163,930);
},
{
name = top_2;
pos = (488,930);
}
);
layerId = "9C2CFEA6-85BB-4338-BB26-B1BEA40B5780";
shapes = (
{
closed = 1;
nodes = (
(257,545,o),
(229,532,o),
(229,481,cs),
(229,472,l),
(341,472,l),
(341,342,l),
(229,342,l),
(229,0,l),
(89,0,l),
(89,342,l),
(15,342,l),
(15,472,l),
(89,472,l),
(89,508,ls),
(90,591,o),
(141,670,o),
(341,670,cs),
(542,670,o),
(593,591,o),
(593,508,cs),
(594,0,l),
(454,0,l),
(454,471,ls),
(454,523,o),
(422,545,o),
(341,545,cs)
);
}
);
width = 650;
}
);
note = f_l;
unicode = 64258;
},
{
glyphname = s_t;
lastChange = "2025-02-14 16:29:55 +0000";
layers = (
{
anchors = (
{
name = caret_1;
pos = (353,0);
}
);
layerId = m01;
shapes = (
{
closed = 1;
nodes = (
(288,-6,o),
(361,50,o),
(361,141,cs),
(361,201,o),
(328,237,o),
(288,257,cs),
(268,266,o),
(242,276,o),
(210,287,cs),
(151,307,o),
(114,321,o),
(114,357,cs),
(114,394,o),
(141,418,o),
(188,418,cs),
(223,418,o),
(254,401,o),
(281,368,c),
(328,410,l),
(289,457,o),
(245,477,o),
(185,477,cs),
(103,477,o),
(48,429,o),
(48,357,cs),
(48,313,o),
(75,284,o),
(109,268,cs),
(126,260,o),
(148,251,o),
(177,242,cs),
(260,215,o),
(295,191,o),
(295,141,cs),
(295,89,o),
(255,55,o),
(196,55,cs),
(143,55,o),
(98,78,o),
(66,119,c),
(19,75,l),
(70,21,o),
(129,-6,o),
(196,-6,cs)
);
},
{
closed = 1;
nodes = (
(626,-6,o),
(672,7,o),
(700,26,c),
(671,79,l),
(650,64,o),
(626,57,o),
(595,57,cs),
(551,57,o),
(536,87,o),
(536,151,cs),
(536,418,l),
(684,418,l),
(684,478,l),
(536,478,l),
(536,595,o),
(462,666,o),
(369,666,cs),
(277,666,o),
(221,604,o),
(227,517,cs),
(230,474,o),
(248,431,o),
(283,388,c),
(328,410,l),
(253,515,o),
(288,600,o),
(369,600,cs),
(433,600,o),
(470,549,o),
(470,478,c),
(394,478,l),
(394,418,l),
(470,418,l),
(470,146,ls),
(470,32,o),
(510,-6,o),
(590,-6,cs)
);
}
);
width = 706;
},
{
anchors = (
{
name = caret_1;
pos = (325,0);
}
);
layerId = "4DE8B86A-429B-4593-9BC8-49866BB1A430";
shapes = (
{
closed = 1;
nodes = (
(262,-6,o),
(328,51,o),
(328,136,cs),
(328,196,o),
(296,231,o),
(256,250,cs),
(235,259,o),
(209,269,o),
(176,279,cs),
(94,304,o),
(60,324,o),
(60,370,cs),
(60,419,o),
(98,455,o),
(163,455,cs),
(204,455,o),
(239,438,o),
(271,401,c),
(289,415,l),
(257,456,o),
(214,477,o),
(161,477,cs),
(82,477,o),
(37,437,o),
(37,368,cs),
(37,327,o),
(63,301,o),
(96,286,cs),
(113,279,o),
(135,270,o),
(163,261,cs),
(266,230,o),
(304,201,o),
(304,136,cs),
(304,65,o),
(250,18,o),
(174,18,cs),
(117,18,o),
(64,42,o),
(31,82,c),
(12,65,l),
(59,18,o),
(113,-6,o),
(174,-6,cs)
);
},
{
closed = 1;
nodes = (
(567,-6,o),
(614,4,o),
(639,21,c),
(628,41,l),
(600,26,o),
(570,19,o),
(534,19,cs),
(475,19,o),
(457,61,o),
(457,150,cs),
(458,457,l),
(624,457,l),
(624,479,l),
(458,479,l),
(456,604,o),
(427,666,o),
(345,666,cs),
(270,666,o),
(228,609,o),
(233,530,cs),
(235,490,o),
(249,451,o),
(274,412,c),
(289,415,l),
(237,512,o),
(239,642,o),
(345,642,cs),
(414,642,o),
(434,579,o),
(434,479,c),
(354,479,l),
(354,457,l),
(434,457,l),
(434,159,ls),
(434,31,o),
(461,-6,o),
(544,-6,cs)
);
}
);
width = 650;
},
{
anchors = (
{
name = caret_1;
pos = (395,0);
}
);
layerId = "0BE882A4-FC89-4865-8E81-154FB3EE808B";
shapes = (
{
closed = 1;
nodes = (
(329,-6,o),
(411,48,o),
(411,148,cs),
(411,209,o),
(374,249,o),
(333,270,cs),
(312,281,o),
(287,291,o),
(256,302,cs),
(216,315,o),
(194,326,o),
(194,339,cs),
(194,356,o),
(208,363,o),
(224,363,cs),
(253,363,o),
(277,344,o),
(296,319,c),
(386,403,l),
(339,455,o),
(289,477,o),
(220,477,cs),
(131,477,o),
(65,417,o),
(65,341,cs),
(65,289,o),
(94,258,o),
(129,240,cs),
(146,231,o),
(169,221,o),
(197,212,cs),
(244,196,o),
(282,183,o),
(282,148,cs),
(282,125,o),
(263,110,o),
(228,110,cs),
(184,110,o),
(150,131,o),
(118,174,c),
(28,90,l),
(87,26,o),
(153,-6,o),
(228,-6,cs)
);
},
{
closed = 1;
nodes = (
(718,-6,o),
(758,11,o),
(790,35,c),
(736,136,l),
(725,123,o),
(708,113,o),
(687,113,cs),
(666,113,o),
(653,124,o),
(653,152,cs),
(653,360,l),
(775,360,l),
(775,477,l),
(653,477,l),
(651,608,o),
(543,676,o),
(436,676,cs),
(324,676,o),
(239,597,o),
(240,498,cs),
(241,449,o),
(264,404,o),
(310,363,c),
(386,403,l),
(340,470,o),
(364,557,o),
(446,557,cs),
(491,557,o),
(523,522,o),
(523,477,c),
(453,477,l),
(453,360,l),
(524,360,l),
(524,126,ls),
(522,36,o),
(570,-6,o),
(659,-6,cs)
);
}
);
width = 790;
},
{
anchors = (
{
name = caret_1;
pos = (402,0);
}
);
layerId = "9C2CFEA6-85BB-4338-BB26-B1BEA40B5780";
shapes = (
{
closed = 1;
nodes = (
(335,-6,o),
(420,48,o),
(420,149,cs),
(420,212,o),
(383,252,o),
(340,273,cs),
(319,284,o),
(293,294,o),
(263,305,cs),
(229,316,o),
(207,324,o),
(207,337,cs),
(207,350,o),
(218,354,o),
(231,354,cs),
(259,354,o),
(283,335,o),
(299,310,c),
(396,402,l),
(348,455,o),
(297,477,o),
(225,477,cs),
(135,477,o),
(68,415,o),
(68,339,cs),
(68,284,o),
(97,253,o),
(133,235,cs),
(150,226,o),
(173,216,o),
(201,207,cs),
(249,190,o),
(280,179,o),
(280,149,cs),
(280,132,o),
(263,120,o),
(234,120,cs),
(190,120,o),
(158,140,o),
(126,184,c),
(30,93,l),
(89,27,o),
(157,-6,o),
(234,-6,cs)
);
},
{
closed = 1;
nodes = (
(734,-6,o),
(773,12,o),
(806,37,c),
(747,145,l),
(739,132,o),
(722,123,o),
(703,123,cs),
(684,123,o),
(672,129,o),
(672,152,cs),
(672,351,l),
(790,351,l),
(790,477,l),
(672,477,l),
(672,612,o),
(566,676,o),
(445,676,cs),
(333,676,o),
(248,596,o),
(249,495,cs),
(249,444,o),
(272,397,o),
(319,353,c),
(396,402,l),
(350,467,o),
(371,557,o),
(455,557,cs),
(500,557,o),
(532,522,o),
(532,477,c),
(463,477,l),
(463,351,l),
(533,351,l),
(533,123,ls),
(531,34,o),
(582,-6,o),
(671,-6,cs)
);
}
);
width = 804;
}
);
note = s_t;
unicode = 64262;
},
{
glyphname = Asuperior;
lastChange = "2025-01-08 09:23:44 +0000";
layers = (
{
layerId = m01;
shapes = (
{
closed = 1;
nodes = (
(340,285,l),
(192,662,l),
(156,662,l),
(8,285,l),
(48,285,l),
(89,389,l),
(259,389,l),
(300,285,l)
);
},
{
closed = 1;
nodes = (
(174,607,l),
(246,423,l),
(102,423,l)
);
}
);
width = 348;
},
{
layerId = "4DE8B86A-429B-4593-9BC8-49866BB1A430";
shapes = (
{
closed = 1;
nodes = (
(317,285,l),
(170,662,l),
(154,662,l),
(6,285,l),
(21,285,l),
(70,411,l),
(254,411,l),
(303,285,l)
);
},
{
closed = 1;
nodes = (
(162,646,l),
(248,424,l),
(75,424,l)
);
}
);
width = 324;
},
{
layerId = "0BE882A4-FC89-4865-8E81-154FB3EE808B";
shapes = (
{
closed = 1;
nodes = (
(373,285,l),
(226,662,l),
(156,662,l),
(8,285,l),
(90,285,l),
(117,354,l),
(265,354,l),
(292,285,l)
);
},
{
closed = 1;
nodes = (
(191,544,l),
(238,425,l),
(145,425,l)
);
}
);
width = 381;
},
{
layerId = "9C2CFEA6-85BB-4338-BB26-B1BEA40B5780";
shapes = (
{
closed = 1;
nodes = (
(380,285,l),
(232,662,l),
(156,662,l),
(8,285,l),
(97,285,l),
(122,348,l),
(266,348,l),
(291,285,l)
);
},
{
closed = 1;
nodes = (
(194,533,l),
(236,425,l),
(152,425,l)
);
}
);
width = 386;
}
);
note = Asuperior;
},
